<svg xmlns="http://www.w3.org/2000/svg" viewBox="0 0 1020.46 757.4">
  <defs>
    <style>
      .cls-1 {
        fill: #343a3a;
      }
    </style>
  </defs>
  <title>U_01_Dark Blob</title>
  <g id="Layer_2" data-name="Layer 2">
    <g id="Universe_-_Page" data-name="Universe - Page">
      <g id="_02" data-name="02">
        <path class="cls-1" d="M872,278.15s7-1,7,0v5c0,2-2,2.5,0,4.25s-.75,2.75,5,1.75l5.75-1s2.25-.5,2.25-3.5a36.75,36.75,0,0,1,0-5.25c.25-3.25,2-2.5.25-3.25s1-2.47-3.75-.86-3,2.36-6,1.61S872,278.15,872,278.15Z"/>
        <path class="cls-1" d="M769.41,159.4a49.8,49.8,0,0,0,5.94-.12c.75-.25,1.47-.81,3.47,1.44s0,.72,3,3.72,3.49,2.73,7,4.48,3.84,2.24,6.17,2.24,1.83-1.25,6.08,0,2.75-1.5,6,3.5,2.75,6,6.75,9.5,7.75.5,9.75,5-4.5,4.5,4,7.25,7.5.7,11.5,1.6,4.75-.6,7.25,1.4,4,1.25,6.5,5.25.25,2.5,4.5,6.25,4.75,7.5,9,5.25,3.5,1.5,4.25-2.25,2.5-.5,0-7-1.25-6-5.75-10-4-3.25-6.75-6.75-2.75-5.5-4.25-5-.75,1-3.75,2.73-1.75,1-7,0-8.5.77-12.25-2.48-1.5.5-3.75-3.25-.25-3.75-4.75-5.5,3,2-8-4-8.5-3.75-12.5-6.87-2.25-1.13-8.25-3.13-3.5,1.29-8.5-3.73-6.25-6.52-8.25-6.52-2-1.75-4.25.25-4.75,3.5-4.75,5.5c0,1,2.25,0,2.25,0Z"/>
        <path class="cls-1" d="M979,442.15s-1.75,1.22-2,6,.75,8,0,10.27-.75,2-3.25,6.22-2.25,1.48-3,6.73-.25,4.24,0,9.24-2,3.5,1.25,8,2.25,4.5,7,7.75,2,.25,7,5.75a74.12,74.12,0,0,1,7.51,9c4,5.25,3.49,2.84,5.49,8.17s1.25,3.83,4,9.08,3.25,7.25,4,13.25-.5,6,0,12.25-1.51,6.25.25,8.75a9.22,9.22,0,0,0,4.87,3.25c1.14-.75,2.64-2,4.64-8s4.75.5,3.25-13-.5-8.75-2.5-19.5-2.5-10-2-15,.75-1.5.75-9.5,3-6.25,0-14-2.25-6.5-5.25-12a43.57,43.57,0,0,0-7.75-11c-4-4.5-3.35-3.37-7.92-8.37s-15.58-13.37-15.58-13.37Z"/>
        <path class="cls-1" d="M925.78,340.15c0,1.75.75,1.2,0,5s3,11.28,3,11.28-1.75,1.5,2.25,0,2.5.25,8.5-3.25,10.75-8.55,13-8,6,1.19,7.75,3.48,1.75,1.29,4,4.79,1,5.25,5,5.5,4.75-2.75,7.75,0,3.5,7.25,3.5,9.75-5.25,2.5,0,5.75,3.75,2.75,7.75,4,1,0,5.26,1.25a24.71,24.71,0,0,0,5.74,1.25s2.5,0-1.5-5.5-2-5.16-4.24-7.83-2.26-3.42-6.26-7-1.5-3.12-7.75-5.87-7.75-.75-9.75-6,.5-6.25-2.25-8.5,2.5-2.5-6.75-5-7-1.25-13.25-2.5-10-2.2-11-2.1-3-1.65-5.75,1.85A59.78,59.78,0,0,0,925.78,340.15Z"/>
        <path class="cls-1" d="M1012.14,586.65s.39.75-2.36,5-2.25,4.25-3.75,8.25-2.5,6.25-2.5,8,6,2.5,6.25,1.75,1,.38,2.36-2.81,1.39-1.44,2.39-5.44,1.5-5.75,1.75-6.75-.25-.75,0-2.5S1012.14,586.65,1012.14,586.65Z"/>
        <path class="cls-1" d="M1001,626.15h-5s.25,3.41,2.5,3.08-.5-1.08,2.25-.33,4-.4,4-1.2,2.5-.55,0-1.55S1001,626.15,1001,626.15Z"/>
        <path class="cls-1" d="M449.28,754.15a34.51,34.51,0,0,1,5.25,0c1.75.25,1.75-.22,11.25-.11s11.25-1.94,18.5.08,2.75,3.28,15,3.28S512.53,756,524,753.22s9.25-5.32,19.75-5.07,8-2.25,20,1,14.5,3.82,26.75,3.28,13.5-1.15,23.75-5,1.11.43,14.68-5.32,18.32-6.25,21.57-7.75,16.25-11.75,17.5-16.25,3.5-11.25,4-19.5-3.75-5.25,0-13a69.27,69.27,0,0,1,10.25-16.14c3.5-4.11,13-13.11,14-14.11s6.5-5.71,7.5-4.6,2.5-.65,3.25,4.35,4.75,2.25,0,8.75-8,8-7.4,14.5.1,10,0,15.25-2.4,5.48,0,10.36-2.1,5.39,4.65,6.89,4.5,9.86,12-3.19,3-12.81,11.5-18.06,15-6,15-6,8.75,6.5,11.25,8,3.25,1,5.25,5.75.14,2.75,2.32,7.75-1.57,4.25,4.68,8.25,6.5,5.25,10.5,6.25,1.25,7.25,4,1S779,715.9,784,708.9s4-6.25,8.5-10.25,6.25,3.75,4-6.5-6.75-9.5-2.75-18-1.75-6.5,8.5-13.5S808,658.44,815,650.8s9.75-9.15,11.25-13.15,4.5-5.64,5-11.94,2.75-4.81-1.5-13.56-2.25.29-6.75-13.86-5.75-11.64-6.5-25.89-5.25-15-1-27.25,4-5,6.25-18,0-35.25-2-39.75-2,1.25-5.5-10.25-5.75-7-3.25-21.75,3.75-17,4.75-27.5,1-6.75,0-15-4.5-16.25-4.75-22.75-1.5-12,2.5-16.75,1.75-4.5,8.75-8.75,1.58-7.5,10-4.25,8-5,10.71,5.5,1.5,18.25,4.25,24.25,2.5,8.25,6.5,11.5,6.25,4,6.25,4-.5.5-3-15.5.5-14.16-4.75-22.58S846.53,356.9,842,352.15s-5.75-4.81-10.25-10.16-3.75-4.09-8.25-9.34-5.75-5-7.75-8.25-15-37-16-39.5-1-3.47-1-9.61-1.25-14.89-1.25-19.89-.12-17.48-6.19-24-1.06-6.26-13.06-12-9.8-6.5-18.78-11.25-10.22-7.25-16.72-8.75S685.53,149,685.53,149s-4.75.65-19-3.1-11.75-7-27.5-10.5-10-6.5-24.75-3.75-23,6.5-30.75,3.5-38.75-4.4-40-4.57,3.75-2.87-11,3-22.25,7.1-31,10.35-31.25,4-31.25,4-14.75,0-15.25-4-4.75-5.69-1.5-14.09,3-3.41,4.5-12.66,2.25-13.75,1.5-14-1-.5,3-6.75,5.25-2.75,6.5-10.5,3.25-11-2.5-15.75-6.75-5.5-10.75-8-9.5-26.75-6.5-29.5S460,20.9,460,19.4,445.28,3.9,445.28,3.9s6.5-5.78-11-3.27-71.75,19.27-82,30-12,12-18.25,18-37.75,18-37.75,18S295,62.4,290,72.4s-4.54,36.25-5.52,37.5.27-1-3.48,9-2.5,5.12-8.25,21.44-8.5,19.59-10.75,31.83,0,9.49-5,22.74-3.25,36.75-5,41.25,0-4.75-3.75,10.25-4.5,14.25-2,24.25,6.25,63.25,5.75,64.75,1-5.75-2.25,7-5,12.5-3,22.25,1.5,13.75,3,17.75.75,24.75-2,30.5-4,8.25-8,18.5-5,8-4.25,14,1.75,4.23,2.75,10.48,3.25,5.5,1,11.5,6,3.6-4,8.55-11.27,6.7-12.52,6.2,3.49,7-12.25-2.75-16.5-12-24.25-16.75-2.75,4-15.5-9-15.25-14.75-22.25-19.75-10-6-14-13.25-7-11.75-7-11.75l-10-10.25s-17.75.75-20.5-5.75-5.25-11-6.25-17.75-5-15.75-5-15.75-14.25-48-14.5-50.5a90.6,90.6,0,0,1,0-14.75c.5-7.5,1.5-7.75,1.5-13.5s3.25-6.25-3.5-12.5S65,264.4,59.78,257.9s-5-7.73-9.75-13.12S32,232.4,31.28,231.65s-12-11.75-12-11.75S6.54,206.4,2.54,215.15A26.14,26.14,0,0,0,1,233.65a81.1,81.1,0,0,1,1.5,9c.75,5,.5,4,2.75,9.75s3,4.25,3.75,8.5,1.27,5,1.89,8.5-.61,1.5,0,7,1.36,4.5,2.11,9.25-.75,4,.75,8.75,4.25,5,7.5,9.5,2,3.25,5.75,7.5-.75-2.25,7.75,8S45,327.65,45.53,332.15,45,348.9,45,348.9a30.55,30.55,0,0,0,6.25,11.75c5,6,3.75,3.5,8,8s3,3,7.25,7.25,2.25,4.5,8.75,9,4.5-3.25,10,7.5,6.75,4.75,8,14.75,4.25,5.5-1.25,16-6,14.25-8,23.5-5,6.5-1.5,11,16.5,39.25,20.25,44,.75,4,7.5,9,6.25,2,11.25,8.5,7.75,11,7.75,11,0-5.75,8.5,7,9.5,9.5,9,18.5-.75,10,0,15.75-.25,6.25,2,9.75,2,.75,5.5,8,2,7.25,7.25,15S176,621.4,176,621.4s49,42.65,52.25,46,4,2.66,10.75,6.61,8,3.19,14,7.69.5,2.25,14.75,8.75,11.25,6.5,22.75,9.5,11.75-3.25,17,5,3.25,9.75,12.25,14.25,5.25,4.5,16,7.75,3.75-1,20.75,8.5,15.5,9.25,30.75,15.25S449.28,754.15,449.28,754.15Z"/>
      </g>
    </g>
  </g>
</svg>
