<svg xmlns="http://www.w3.org/2000/svg" viewBox="0 0 660.56 570.38">
  <defs>
    <style>
      .cls-1 {
        fill: #636363;
      }
    </style>
  </defs>
  <title>U_02_Gray Blob</title>
  <g id="Layer_2" data-name="Layer 2">
    <g id="Universe_-_Page" data-name="Universe - Page">
      <g id="_08" data-name="08">
        <path class="cls-1" d="M0,307.2v16l11,16.39s1.5,6.11,3.75,8.61A30.31,30.31,0,0,1,20,355.67a66.46,66.46,0,0,0,3.5,6.08S26,368.2,27,369.2s.5,2,3,7,15,26,17.5,29.5,4.75,2.5,6.38,8.5,2.36,6.81,6.49,12.15,6.62,8.79,9.88,12.57,5.19,5.3,8,10.29-4.48,0,3.65,8.49,7.13,8.77,10.88,13.38,2.75,2.81,6,7.71,4.89,7.72,9.32,11.81,7,8.42,12.71,11.51,12.74,10.85,18.06,10.21,9.16-.12,16.66,6.38,11.5,8.5,18.5,12.75,5.66,4.47,19.33,9.11,23.62,3.57,31.14,6.6,16,5,18,5,10.78,3.67,23.9,7.58,14.57,6.25,24.35,7.08,13,5.91,25.65,2.12,11.38-.54,18.51-6.91,1.19-6.87,14.16-11.87,8.84-4.39,20.65-7.44,14.3-4,24.31-6.28,3.19-1.78,24.1-5,18.5-3.25,26.2-4.25-2.67.22,11.26-4.64,7.84-.71,20.89-9.53,11.71-1.5,24.38-10.91.67-6.6,15.17-11.51,17.5-3.16,21.5-6.79.84.42,12.17-11.6.67,1,13-15.52,8.83-13.82,17.57-23,11.35-11.5,11.35-11.5-3.58-5.5,8.42,2-3.67,4,16.92,9,24.35,7,28.71,4S647,434.27,651,431s2.67,1.22,5.35-8.78,6.17-3.13,2.92-15.31-1.64-9.82-4.44-15-2,.07-6.91-9.56-5,0-7.42-15.31-.25-13.06-2.36-21.44-6.79-1.28-4-16.58-.22.35,2.31-20.23,4.84-9.08,2.69-24.33.33-13.34-6.41-23.67-8.79,2-7-16.53,1.24-6.57,1.5-24.31-1.27-10.67,0-22.2.23-10.42,0-20.48,3.22-6.46-1.5-15.51,0-1-6.59-10.76a142,142,0,0,1-12.33-22.16c-1.31-3.13-.81-11.13-6.81-17.13s-7.5-5.32-15.5-12.66-6-7.84-14-12.59-12.37-11.23-18.94-13-10.89-2.34-13.22-5.55,18.35,2.47-12-3.87-34.74-6.89-42.42-9.12S468.28,46,457.39,43.87,443.5,37,435,38.37s1.88-.13-19.31,3.6-4.07,8.9-31.63,3.82-39.41-7.76-41-7.42-6.52-5.34-12.8,0,1.22,2.16-13.28,5.5-20.65,3.84-25.26,1.92S279.37,38.35,277.69,35a33.77,33.77,0,0,1-3.19-8c-.5-2.31,2.48.46-2-7.17a64.44,64.44,0,0,1-6.11-13.26l-4.79-3.2-10.9-2.23s-16-2.56-19.85,0S228,1,224.48,5.59s0-1.39-3.48,4.61,1-2.5-3.5,6-5.2,8.14-6.85,14.82.83,6.34-3.41,14.76-7.39,7.72-6.82,16.82-1.08.48,0,13.79,1.66,8.81,2.37,19.81-1,8-4.89,16.76-5.4.19-6.65,12-3.72,10.57,2.26,22.17,4,10.27,10.5,22.44,4.08,5.07,9,17.12,5.57,6.84,5.51,16.45.68,7.08-2.44,16.84-7.62,1.57-4.12,14.17,1.52,4.6,6.76,18.1,5.69,3.2,5.72,17.35,6,9.38,0,19S215,298.7,212,303.2s-8.51,6.57-11.76,11.29-.72,6.22-6.73,10.72-3.26-1.11-8.63,8.19-6.58,3.31-8.73,14.81-2.35,4.52,0,16.51,2.36,9.24,3.6,17.86,5.25,8.88,0,13.5,11.08,16.27-20.59,5.7S106,387.45,102,382.33s-16.28-13.69-20.15-16.66,6.17,4.93-6.1-6-5.47-9-16.62-14.75S51,339.75,37,331,12,316.82,6,312Z"/>
      </g>
    </g>
  </g>
</svg>
