<svg xmlns="http://www.w3.org/2000/svg" viewBox="0 0 151.76 146.18">
  <defs>
    <style>
      .cls-1 {
        fill: #dd8b6b;
      }
    </style>
  </defs>
  <title>U_03_Center Swirl</title>
  <g id="Layer_2" data-name="Layer 2">
    <g id="Universe_-_Page" data-name="Universe - Page">
      <g id="_05" data-name="05">
        <path class="cls-1" d="M22,18.75a4.91,4.91,0,0,0-3,4.9c0,3.92-.75,4.29,0,6.86a33,33,0,0,1,1.33,5.34A27.54,27.54,0,0,0,22,41.52a7.94,7.94,0,0,0,2.17-2.44c1.08-1.76,3-2.45,2.79-3.23s-1.16,1.93.06-2.68-.81-2.59,1.46-6.6,1-3.89,4.16-7.82.65-2.68,5.63-7.43S45.71,4.57,48,3.07s4.5-2.5,4.5,0,1.5,3.37-3,7.69-6.5,5.42-7.12,8-1.65,3-1.51,4.9L41,25.57a17,17,0,0,0,4.92-1.92C48,22.32,44.46,25.87,49,21.6s3.57-4.58,7.53-8.93S58.88,7,63.67,4.39,71.13-.43,73.54.07,79,2.07,79,2.82,78.21,4,75.46,8.53s-2.89,2-2.7,6,.13,5.56.13,5.56-4.43,3.28,2.57.36,2-1,9.25-4.58a120.66,120.66,0,0,1,11-5.15c5.75-2.44,3.57-2.9,10.41-3.79s8.09.27,10.59,1.56,3.25,3,4.5,4.14,3.75,3.57-3.5,3.24-8.06-2.73-12.53.72-5.47,6-5.47,6.2-9,6.26,1.4,4.75,7.12-4.34,14.11-3.17,4.09,1.18,10.79,3.17,7.29,1.7,12.62,5.6,9.58,2.66,9.33,5.9-.23,4.19-2.87,4,.15,1.46-7-.88-8.2-4.38-12.55-4.11-4.84-4.48-4.34.27,3,6.25,8,8.75a71.91,71.91,0,0,1,11,6.52c4.73,3.23,7-.21,7.75,6s.49,6.74,1.49,10,4,9,1,5.23-1.66-1.24-5-7.74a30.5,30.5,0,0,0-9.62-10.75c-.18,0,2.82-4.25-.18,0s-3.84,4.11-1.17,7.8,3.45,2.72,5.68,7.59,2.39,4.26,4.69,8.69,4.3.58,4.55,6.75,1.38,4.19-.18,8.81-2,4.83-3.77,9.85l-1.8,5s-1.25-1.67,0-11.46,8.25-6-.5-15.54-7.38-9.72-9.56-12.11.31-15.14-2.19-2.39-4.71,9.5-2.48,19,4.64,13.25,5.56,19-5.19,19.42-6.64,23.46-1.51,4.54-2.73,6.54a6.17,6.17,0,0,1-2.89,2.58s1-2.19,3.72-9.89,2.47-3.06,3.21-12.5,2.74-6.41-.38-12.67-3.66-7.65-3.66-7.65.43,2.63-2.89,9.63-1.28,6.81-6.43,13.53-1.8,3.89-7.35,10.43-6.55,10.76-12.8,12.65-10,4.33-7.49,1.36,3.24,1.28,7.49-8.47,7.62-12.08,9.06-15.79a16.27,16.27,0,0,0,1.35-5.88s5.28-6.92-.94,1-4.65,7.58-11.93,12.63-2,5.55-11.79,7.55-9.55,4.11-15.27,4.68-7.86,2.49-11.29-.59-13.78-.58-4.36-3.83,1.92,0,9.42-3.25,4.63.32,10.31-3.47,10.21-5.37,10.08-7.7,13.36-7.58-.14-2.33-11.25,6.91-20,9-2,3.22-12.25,2.51-10,3.11-18.25-1.43-14.3-6.45-15.4-7.62-7.25-4-1.3-2.94,5.62.79,10.29,3.53-3.58,5.44,6.67,2.09,14.33-3.64,15.92-5.62A15.59,15.59,0,0,0,48,115.65s4.64.32-7.8-1-3.78,2.43-13.24-1.57-7.36,1.75-13.91-5.75-8.8-13.25-9.3-17.5,0-6,0-6S3,82.23,6.23,87.15,9.05,93.34,13,96s-3.27,1.12,6.84,4.12,11,3,13.54,3.25,2.32,2.5,2.57.25,4,1-5-8.75S28.21,93,20,82.8A104.78,104.78,0,0,0,2.21,65.68s1.5-.61,0-2.86S0,61.32,0,56.82s1.21-9,2-9.75a18.08,18.08,0,0,0,1.75-2.3s.25,7.59.5,8.82S4,55.61,5.46,58s2.17,3.85,4.09,5.6,3.36,1.73,4.76,2.11,2.54,4.36,2.35,0,1.69-4.36,0-8.86-3.23-3-2.21-7.35,2.41-3.52,2.21-6.71S11.8,31.45,13,28.39A74.59,74.59,0,0,1,16.65,21Z"/>
      </g>
    </g>
  </g>
</svg>
