<svg xmlns="http://www.w3.org/2000/svg" viewBox="0 0 514.42 457.16">
  <defs>
    <style>
      .cls-1 {
        fill: #a0a0a0;
      }
    </style>
  </defs>
  <title>U_04_GraySwirl</title>
  <g id="Layer_2" data-name="Layer 2">
    <g id="Universe_-_Page" data-name="Universe - Page">
      <g id="_05" data-name="05">
        <path class="cls-1" d="M.17,387.1l18.73,14.6s2.8-1,5,3.32,1.48,5.58,8.48,11,3.32.68,9,6,.33.93,10.33,6,11.66,3.53,19,6.78,4,.47,14.67,3.53,14.9,5.39,20.95,6.06,10.72,2.16,14,1.92,16.67,2.54,17.67,2,4.67-1.23,9.33-1.9,12-3,17-3,3.33,2.06,16.67-1.8,13.78-7,18.22-6.79,8.44.53,9.44-.44,7-8.64,8.33-10.64,12-14.93,12-14.93a42.22,42.22,0,0,0,5-4.4c3-3,10.81-11,12.24-12.33S270,372.67,270,372.67a18.58,18.58,0,0,1,3.33-5.67c2.33-2.67,13-16,13-16l-25,3.67S257,358,255,358.33,243,355,240.64,355s-1.67.67-6.67-.33-12-4.67-14-5S214,348,208,347s-29.33-6.33-29.33-6.33a134.56,134.56,0,0,1-15-4.65c-8-3-12.67-5-16-6.63S133,327.33,133,327.33h-5s-22-9-23.33-10.33-4-4.33-4-4.33L92.77,304l-1-5.33L112.64,304a27.36,27.36,0,0,1,4.67,1.88c3,1.46,1.33.46,8.67,3.79s1.67.67,10.33,4.33,5,3.33,12.67,4.67,8.33,1.67,13.33,1.67H172c4.67,0-10.33-14.46-10.33-14.46a12.09,12.09,0,0,1-3-1.88c-1-1-8-2.67-13.67-5.33s-5.67-1.66-16.67-7-9-4-15.33-8.33-3.23-1-10-7.33-5.87-6.33-12.63-13.67-6-3.44-8-10.39-2-11.95-3.71-18.61-2-8.31-3-13.82-.67-14.18-1-17.84-.67-2.8-1-7.57.33-2.77-1.33-9.43S69,177,68,171.33s-2.67-13-2.67-13l-8-32.67s.13-1-1.94-5.67-1.45-3-3.59-14.5S51,94,49,87.67,47.64,87.33,45.31,75s-3-15.83-3.33-20.25-3.18-7.92-.76-13.5,8-11.58,10.56-15.58S57.32,9,57.32,9L62,0s4,.33,4,4.33S65.64,10,65,16s-2.67,12-2.67,15.33-.67,3.5,0,9.92.33,9.4,1.33,13.24-.33-.25,2.67,8,3.33,10.88,6,18.21,4.88,6.67,5.44,13,1.08,7,1.82,11.84-2.46,3.4,2.81,9.78,7.78,6.05,8,11.38.74,3.32.66,9.66-3.49,4.8-.29,10.9,1.21,3.44,4.54,10.44,4.69,3.67,7,12.33,3,11,4.17,17.33.33,2,2.24,9,2.91,6.67,4.91,11.67,2.67,3.57,3.67,10.62S115.64,221.33,119,229s6.67,11.95,8.67,15.64,5,7,6,7.36,18.67,22.33,18.67,22.33A69.87,69.87,0,0,1,157,280c1.33,2,1-.4,9,6.3s3,6.37,12,8.7,12,2.67,17,5,8.4,5.42,11.37,5.88,8,1.79,10.3,1.79,2.33-.33,5.67-.33,5-.33,9.33,1.33,8.61.67,13,2.67a75.73,75.73,0,0,0,12,3.67s-7.27,4,3.06,1,5,0,14.67-4,9.33-3.25,12-6.12S299,299.67,300,298.67s2.67-1,4.67-2,3.67,2,12-2.67,4-.67,9.34-4.67,4.38-.67,9.52-6.33,2.81-3,7.47-8.33,4-3.67,7.5-9,3.83-4,5.17-9.67,1-2.67,2.67-10-.12-6,3.11-16.67,4.16-5.76,3.36-15.71.41-6.62-3.36-15-3.11-5.33-8.77-12.67L347,178.67,341.31,160l-3.67-9.83s1.67-2.88,3.33-5.52a28,28,0,0,1,4.33-5L349,137s1-1.65,6.67,0,9,3.1,12,5,5.33,5.61,9,8.11,2.67,1.17,6.67,4.83,7.33,5,8.33,5,8.67-1.33,13.83-.33,3.5-1,13.17,2.67,10-2,14.33,3.5,3.83,4.83,6.75,8.83S443.31,180,444,181s-.67,3.67,0,5-4.25-3.51-4.25-3.51-.08-.16-2.75-3.16-6.33-7-7.67-8.33.33-1-1.33-1.33-8-4.33-12.67-3.83-6,.17-9.83,0,3.86,2.17-6.82,0-15-3.17-15-3.17-3.14-4-4.57,3.17S377.64,173,377.64,177s-1.81,4.67,1.43,8.33,3.57,4.54,4.57,8.77.63,4.23,1.48,9.57-1.52,4.51,0,7.92,1.85,4,1.52,7-4-2-1.52,5.53,2.52,7.52,3.52,10.85,2,4.61,2.67,9.64,3.67,3.69-.33,10.69-.87,4.94-6.19,11.31-1.06,6.27-5.72,9.35-3.76,6.6-9.76,10.3-11.67,7.7-14,9,1,1.33-4.83,3-3.4.33-11.45,2-11.95,3-15.5,4-1.22-.33-8.22,3.67,2.67,0-8.67,5-4.33,2.33-11.33,5-.67,4.5-11,4.42-4.67-2.71-15,.44-12.49-.74-17.91,4.37-7.81,4.94-6.78,6.19-2.85,1.61,4.09,2.6-1.06,0,6.94,1-.67,5.23,9.67,1.61-1-2.78,14.33-5.2S315.31,325,315.31,325s2.67,1.86-1.67,6.6-.33.63-5.67,7-4.33,5.72-8.33,9.72-2,3.33-4.33,8.67-.33,4.67-4,10-7.33,11.13-10.67,14.57,1.83,1.51-4.42,5.47-3.25,4.16-8.58,9.23-3.67,3.4-9.33,8.73.84,1-6.91,6-5.09.25-9.09,5-6,4.71-9.33,9-6.28,9.54-10.81,13.27,2.14,4.23-9.52,8S207,448.94,196,450.14s-5-3.2-15,0-4,1.58-14.67,3.89-9.33,2.89-17.67,2.43-9.33,1.79-16,0-1.33-5.52-16.33-6.32-12,2.36-20.67-.55-6.92-.42-13.29-3.33-.71.14-12.37-4.72S57.12,437,56,436.33s-5.74-2-11.41-4.67,1.21,2-10.06-6.33S22.31,416,22.31,416s-10.11-6.62-11.56-8.62S0,396.27,0,396.27Z"/>
        <path class="cls-1" d="M494,363.33v-20s3.29-1.31,2.81-6-.14-4.8.19-9.9-.3-6.56.85-9.83,1-4.51,1.57-9.39-.92-7.17,0-13.36,1-8.19.14-13.19-3.05-7-5.14-12.67S490,263.23,490,258.62s-3.65-13.74-3.83-16,1.17-3.19,0-7.23.81-8.38,0-10.71-.48-6.66,0-8.66,2.94-18,1.88-19-1.71-1.9-1.88-5.28-.51-16.23-.51-17.64-1.33-14.41-1.33-14.41,1-6.67,0-9.34-2.17-3.15-2.75-9.07-5.06-15.56-5.06-15.56-.86-1.29-3.52-8a80.05,80.05,0,0,0-6.15-11.82c-.18-.55-2.18-9-3.52-10.76s-4.2-7.84-7.1-11.65-1.57-2.64-5.57-6.89-3.15-7.25-6.66-8.88-10.09-9.38-14-11.87-.67-2.76-8.09-5.5-10.2-3.46-11.37-4.39,1.17-1.53-5-3.4-5.09-.85-9.25-2.2-2.12-3.11-19.5-3.75-17.79.27-19.94.35-14.51-.74-14.33,0-20.74-1.1-20.74-1.1S316,42.07,314,42.54s-9.17,3.4-9.17,3.4l5.62,6.65s-3.78-.72,3.55,1,3.56-1.27,10.78,2.23,16.35,5.74,20.78,6.62,11.08-.65,16.09,4.45,5,3.29,8.65,8,4.22,4.52,8.79,11,5.39,5.68,7.65,11.89,3,7.9,4.81,10.22a13.68,13.68,0,0,1,2.32,4.44l-6.76,2.83-3.61-.7s-1.71-4.55-7.45-8.7-16.17-5.87-18.53-9.05-4.6-7.6-10.23-10.38-8.24-5-11.77-6.57-4.18-4-9.52-6.92-7.57-3.32-7.57-3.32l-8-2.74s-5.41-1.65-7.76-2.61-7.08-2.54-7.08-2.54l-4.56-1s-8.66.12-9.69,0-5.11,0-5.11,0,.61-1.56-5.49-1.18-1.39-.39-11.07,0-9.21-1.05-13.45,0-4.36-.66-9.55,1.18-6,1.91-9.69,3.1-3.58-.81-9.8,2.44-8.54,4.09-10.2,6,.5-1.88-3.25,4.2-5,6.2-8.2,9.31,1.34-2.35-4.48,3.44-5.73,5.35-8.07,8.46-.74,1.88-5.87,7.71a53.26,53.26,0,0,0-7.13,9.78s-7.57-5.76-11.28-13.35-5.58-5.93-3.48-12.6,1.6-8.5,6.52-12.75,9.54-5.63,11.73-6.94-.31-.14,5.61-3.89,10.26-5.94,14.59-8.17,2.71-.42,9-5,7.33-6.18,18.08-9,12.57-5.44,14.57-5,11.12-1.54,13.39-2.73,2.27-2,9.27-5.28,6.19-3,12.76-4.78S287.6,21.26,287.29,21l.31.29,1-3.66-1.35-2.82-7.49-1.44H271A22.62,22.62,0,0,0,262.86,12c-5.22,0-9.47-2.07-16-.72s-3.51-.39-12.69,2.48-8.18,1.38-14.68,3.8-9.33,2.46-15.75,4.27-5.07.75-10.08,3.95S189,28,183,33.35s-1.91.65-8.29,7-5.38,8.32-11.21,10-9.32.23-11.91,2-.32-2-4.62,3.51-3.93,2.61-6.28,8.06-.35,3.2-5,8.49-1,2.28-5,6.45S125,89.33,125,89.33v11s-.5,1.17,0,4.83l.32,2.34.18,1.33s-4.5-8.56-4.67-10.69.5.53,0-6.14-3.5-4.24,0-12.12,5.5-7.22,6.67-11.55.11-3.52,5-8.93,4.64-3.42,10.92-9.08.28-1.33,6.28-5.66,6-4.81,11.33-7.74,4,.38,9-4.44,7-6.11,16.32-10.63,12.18-7.27,14.09-8.06-.67-.26,6.58-2.94,5.33-6.36,10.5-6.27-11.13,1.54,9.18-.52,19.52-1.9,26.92-2.31,4.51-1.75,9.29-.25,2,.29,7.87,2.56S269.48,3,278.23,6.67s12.25,3.41,15.5,5.37,3.62.63,8.93,3-1.5,2.27,9.07,5.14,9.87,2.22,20.06,6.08,6.18,1.49,17.68,5.61,8.39,5.09,14.83,3.13,8-8.45,13.33-6.37-1.43-.69,9.08,3.9,7.28,2.7,11.93,4.44a74.39,74.39,0,0,0,11.82,3.4c2.17.34,3.5-1.2,8.25,2.2s1.21-2.06,10.05,3.4,11.54,4.45,15.2,7.43-.67,1,5.66,5.64A73,73,0,0,1,459,66.9c2.33,2.1,4.88,3.93,6.77,7.68s1.83,4.42,3.36,6.75-.35-2.44,2.42,5.11-.51,1.8,3.8,9,4.14,4.54,6.22,9.71,2.76.49,4.59,8.5,1.83,7.14,5.16,14.07,4.62,5.29,5.48,10.44,2,3.54,2.6,10.68,0,3.23.75,11-.84,4.9,0,12-.78,5.56.2,13.34-1.7,4.63,2.81,13.37,2.89,5,4.19,11,1.66,2.45.7,10.43-1.72,2.2-3,11.22-1.22,9.45-.29,14.09-.9,3.71,2.18,10,5,5.43,6.86,11.53-.84,19.77-1,21.44,1.13.16,0,5.41,1.09,5,1,8.61S511.09,316,508,319s-9.23,6.58-8.64,7.46-.25,16,0,17.13S494,363.33,494,363.33Z"/>
      </g>
    </g>
  </g>
</svg>
