<svg xmlns="http://www.w3.org/2000/svg" viewBox="0 0 57.25 56.42">
  <defs>
    <style>
      .cls-1 {
        fill: #efc6b9;
      }

      .cls-2 {
        fill: #fff;
      }
    </style>
  </defs>
  <title>U_05_Center</title>
  <g id="Layer_2" data-name="Layer 2">
    <g id="Universe_-_Page" data-name="Universe - Page">
      <g id="_06" data-name="06">
        <path class="cls-1" d="M2.54,12.11c.33-.57,2-3.19,2.5-3.21s.67-.1,3.83-1.73A60.23,60.23,0,0,1,15.46,3.9C21.7,1,21.37-.61,24.2.21s4,2.06,6.73,2.44,5.6-.73,8.52,1.24,2.71,3,5.07,4.31,2.19.06,3.85,3.28.67,2.05,3.42,5.72S58.1,20.54,57.07,24s-2,3.08-2.2,6.17.83,1.58-.17,5.08.3,5.15-1.35,6.33,1.09-.54-4,2.4-1.62-.34-6.79,4.13-1.33,5.28-7.5,6.3-.21,3.59-8.69.8-3.08-1.29-8.86-3-5.28.72-8.95-4.14S3.37,45.86,4,41.53s2.17-2.33,1.33-6.33-.67-4.16-2.83-7S-.43,26.87.22,24,2.54,12.11,2.54,12.11Z"/>
        <path class="cls-2" d="M16.54,19.1s-3.35,1.35,1.76-1.65,6.42-3.3,8.11-3.28,1-1.19,4.55.54,2.17,1.73,5.5,3.23,2.83-.94,4.33,2.78,2,4.51,2.5,7,0,5.27,0,6.5,2.25,0-.75,1.72-1.47.76-4,1.76,1.23.25-2.52,1-2.24-.25-5.74,0-4.27,0-6.51-1-3.32.48-4-1.76-3.58-4.22-3.33-5.23a13.48,13.48,0,0,0,.13-3Z"/>
      </g>
    </g>
  </g>
</svg>
