<svg xmlns="http://www.w3.org/2000/svg" viewBox="0 0 511.29 453.78">
  <defs>
    <style>
      .cls-1 {
        fill: #5b301a;
      }
    </style>
  </defs>
  <title>U_06_Red</title>
  <g id="Layer_2" data-name="Layer 2">
    <g id="Universe_-_Page" data-name="Universe - Page">
      <g id="_03" data-name="03">
        <path class="cls-1" d="M37.15,334l3.75-4.25h1.75s.5,0,0,2.13a15,15,0,0,0-.5,2.13c-.25,1.5-1.56,3,.72,2.75s-.22,0,3.78-1.25,3.5-3,5.75-2.24.25,1.79,3.5,3.51,2.5,1.47,5.25,2l2.75.5s-6,3.5-7.25,3.5h-3s-6.75.25-9.25,0-2.5-.75-6-2.25l-4.06-1.75H32.65Z"/>
        <path class="cls-1" d="M61.65,304.38a7.69,7.69,0,0,1,3.63,2.44,21.84,21.84,0,0,0,5.56,5c2.75,1.75,4,1.48,7,4.23s2.78,0,2.78,2.73v6L84.4,321l.75-.75s1-2.75,4-.75,3,.5,4.75,5.25,2.5,5,4,6.75-1.5-3.5,7.75-1.75,8-.5,11.25,3a28,28,0,0,0,8,6.25,37.59,37.59,0,0,1,5.5,3.86c2.5,1.89-.75,2.39,5.25,2.64s7.75-.25,10.75,0,1,.47-3-2.64-6.5-2.86-7.75-5.11-1,.5-1.25-2.25,2.5-3.75,2.75-5.75,3.5-1.74-1.5-4.75-2-3.5-7.51-4.5-4-.25-8-1-2.5,1.5-5.75-2.75-1-4.9-7-6.2,1.25-2.3-9.5-1.3-12.25,1.6-14.25,1.3-9.75-10-12.75-11a26.39,26.39,0,0,0-7-1Z"/>
        <path class="cls-1" d="M155.4,410.76c-1.25,0,1-.45-6,1.65s-7.83,2.6-9.54,4.1-1.71,3-3,5.5.25,2.72-4.25,6.49-3.75,1.76-7,6.26-4,3.75-5,7.75-2.75,5.5-3,7.25-2.75,7,3.75,1.75,5.75-3.75,6.5-5.25,5-.5,4-3.5,0,.25,0-4.25-1-4.27,1.25-6.26.5,1.23,4.25-3.76,4.75-5,7-8.24,0-1.75,2.25-3.25.25.25,4.5-3a36.33,36.33,0,0,0,6.5-6.25Z"/>
        <path class="cls-1" d="M173.4,402.51c1-.5,3-2.25,5-2.25,1.38,0,2.52.71,4.25,1.4a16.69,16.69,0,0,0,2.75.85c3.5.75,5.75,1.5,5.75,1.5l1.25,2.5c.75,1.5,1.25,1,2,1.25s1.5.75,1.5-3.75-4.5-2,0-6,4-3,4.75-5.25,1.25-4.75,0-4.25-3.75.5-4.5,2.25,3.5-2.25-.75,1.75-3.75,3.59-6.75,5.67-10.5-.08-11.25,0S173.4,402.51,173.4,402.51Z"/>
        <path class="cls-1" d="M183.65,369.26s-3.52,3.75-4.2,5.25a17.55,17.55,0,0,1-1.62,3.13,24.67,24.67,0,0,0-2.72,3.88c-1,2,0,6.94,0,6.94a28.18,28.18,0,0,0,4.16,2.31c1.85.75,2.85,1.5,4.6,1.75l1.75.25s1.25-4.63,0-4.31l-1.25.31s-2.39.25,1.81-3,3.44-3.75,4.69-4.75a4.7,4.7,0,0,0,1.75-3.37c0-.87,2-.87,0-.87a13.91,13.91,0,0,0-3.25.88s-4.58,4.38-5.29,5.13.79-.5-.71.75a6.78,6.78,0,0,1-3.82,1.25s-1.57-2.75,0-3.75,4.53-5,4.53-5Z"/>
        <path class="cls-1" d="M167.65,358.51c1,.75,2.75.75,2.75,2.5s1.25,2,3,2.5,2.25.5,3.25,0,2.93.38,2.93.38,1.93-2.34,0-4.23-1.93-3.39-1.93-3.39-1.5-.75-.5-3,2.11-2.75,2.43-3.75,2.14-.75.86-2a18.24,18.24,0,0,0-5.76-3c-1.53-.5.22-.5-1.53-.5a39.63,39.63,0,0,1-5.5,0c-2.75-.25-2-1.5-2.75-.25s2.25,4.75,2.25,4.75l1.5.5c.75.25-.75-1,.75.25s2,3.83,1.5,4.29a10.75,10.75,0,0,0-1.25,1.71Z"/>
        <path class="cls-1" d="M184.11,353.55l1.54,1.71s-.5-1.25,0,1.75-.75,4.5,0,5.5.51.25,1.76,1.38-.26,2.38,1.24,1.13,2.25-1.25,2.25-3.5.25-3.75,0-4.75-.78-.92.11-3.21,3.14-4.79,4.14-6.54l1-1.75c-1,1.75-8.74,2-8.74,2-1.51,2-2.26,3.25-2.26,3.25Z"/>
        <path class="cls-1" d="M230.9,369.13s4.75-1.18,4.75,1.47v8.15s-.75,4.25,2.5,0,2-1.5,3.25-4.25,2.25-3.27,4-5.64,2.75-1.82,3.5-3.34-.75-2.27,0-4,4.5-3.5.75-1.75-4,3.25-5.5,4.13-.86-.83-3.05,1.65-.07,4-3.45,3.73S230.9,369.13,230.9,369.13Z"/>
        <path class="cls-1" d="M226.53,390.88a7.92,7.92,0,0,0,4.44-.06c.25-.25-.53-.16,1.72-2.35a54.9,54.9,0,0,0,4-4.7c.75-.75-.76-1.26.74-.76s2.25-.25,1.5,2.5a15.34,15.34,0,0,1-2.25,5.25,7.13,7.13,0,0,0-1,2s-.5.25-1.25,2.5.92,4.25-1.48,3.75-6.27-4.5-6.27-4.5v1.25Z"/>
        <path class="cls-1" d="M341.15,369a3.7,3.7,0,0,0,2.63,1.46c1.75.15,3.81-2.79,4.56-3.54s1.53-2.72,2.28-3.1.27.39,2.52-1.36A30.1,30.1,0,0,0,356.9,359s2,2,1.75-2,1-2.75-.23-5-1.77-2.5-1.77-4.75v-4.5a38.77,38.77,0,0,0,.5-4.5,21.33,21.33,0,0,0,0-4,12.92,12.92,0,0,1-.75-4.25c0-2.5,2-.5,0-3.75s-4.3-3.87-4.4-4.18-.76,1.43-1.93,4.68-1.42,2.25-1.17,4.5-.16,1.5,1.17,4.75,2,3,1.93,6.25,1.1,3,0,5.25a54.24,54.24,0,0,1-3.1,6,15.22,15.22,0,0,0-1.91,3.21c-1.34,2.5-2.84,3.75-2.84,5.5S341.15,369,341.15,369Z"/>
        <path class="cls-1" d="M351.65,317s.08-1,2.58-2a6.71,6.71,0,0,1,4.67-.11,7,7,0,0,1,0-4.64,21.62,21.62,0,0,0,1.43-6.5c0-1.5.51.5,0-1.5s-1.25-2.5-3.25-5.75-3.25-4.75-4-6.25-2-2-1.15-5.75-.15-4,0-6.75,2.49-2.75-1.93-4.5-4.42-5-4.42-1.75-1.25,2.75,0,5.75-.31,3.59,1.34,5.42,0,.58,3.07,4.08,4.33,13,4.33,13,.75,0,.75,2-1.17,3.5-1.42,4.25l-2.08,6.25Z"/>
        <path class="cls-1" d="M322.81,212.13s5,1.06,5.8,1.06,1.4-1.59,2.4-.09,2.32.45,2.32,2.7.54-.77,0,4-1.54,5.49.24,6.24,1.41,0,2.91,1.49,2.13,4.74,2.13,4.74v7.5l2.5,2h.5a39.1,39.1,0,0,1-.5-5.25c0-2.25-1-4,.5-4.75a8.07,8.07,0,0,1,3.44-.75c.31,0,.25.5,1.9.5s1,2.5,3.07-.25a17.1,17.1,0,0,1,5.08-4.31s-2.91-2.19-5.08-2.19h-5.42s-3.25-1.25-3.5-2.25-3.1-2-2.17-2.75,0-4.5,0-4.5a7.67,7.67,0,0,1-2.33-2c-1.25-1.5-.25-2.5-2.25-2.75a24.06,24.06,0,0,0-4.5,0Z"/>
        <path class="cls-1" d="M430.9,289c.25,1.5-2-.75,0,3.25s1,4.5,2.75,5.5.8,3.75,2,0L436.9,294h0c-1.5-4.25-3.17-6.5-3.09-7.25s2.34-1,.09-.75S430.9,289,430.9,289Z"/>
        <path class="cls-1" d="M444.43,318c.72,1.5.72.67,2.22,2.34s1.5-2,2.25,1.69-1.5.22,0,5.47a53.09,53.09,0,0,1,1.75,7.5s-.31,4,1.47,1.25.78.25,1.78-2.75,1.25,0,0-4.5-1.56-2.19-1.78-7,2.72-3.28,0-7.53-.5-5.25-4.24-5.75-1-1.75-3.73-.5-2.75,1.25-3.5,3.5-4,4.5-2,5.25,0,1.75,2,.75A3.89,3.89,0,0,1,444.43,318Z"/>
        <path class="cls-1" d="M446.38,350.76c-.73,1,.48,9.13,0,10.38s.5-.44-.24,4.06-2.43,6.28-1.71,7,.43,2.52-.18,3.27-1.91,3,1.12,1.51,3,.5,3.78-2.75-1.5-.08,0-4.42,2-1.33,2-5.58,1-5.13,0-7.13-3.27-6.37-3.27-6.37Z"/>
        <path class="cls-1" d="M484.15,228.76c.75,0,5-4.75,6.75,0s1,1.5,1.75,4.75,3.5,5.75,3.5,6.5-.75,2.25,2,3,.75,1.71,4.5,2.48,3.5.77,5,1.52a3,3,0,0,0,2.75,0s2-.29,0-1.52-1.75.27-3.5-1.23a18.34,18.34,0,0,0-3.25-2.5,37.81,37.81,0,0,1-4.75-4s-1.61-1-1.18-1.74,1.32,1.75,0-2.75l-1.32-4.5s.75-.5-2-4-1.87-3.75-5.44-6.25L485.4,216s-2-1.5-2.5,1.75.25,5,0,6S484.15,228.76,484.15,228.76Z"/>
        <path class="cls-1" d="M389.15,186.76l3,9.5,2.5,5.92s.5-.17,0,1.08,4.51-2.5,4.51-2.5a26,26,0,0,1,4.74,6.5,7.81,7.81,0,0,0,2.5,3.14c2,1.61,1.25,1.61,3.25,3.61s.75,3,3.5,3.25,3.5-1,5.75,0-1,1,2.25,1,4.5-1.25,5.25,0l.75,1.25c-.75-1.25,1.88-2-3.68-5s-1.32-3-5.57-3-4.25,0-5.75-1.11-5.5-7.64-5.5-7.64.25,2.59-2.5-.58-2.76-1.92-2.25-4.17,2-2.25,3.75-3.25a43.39,43.39,0,0,0,3.75-2.5s1.56,1-1.09-.5-2.16-2.25-3.91-2.5-.75-.5-4-1-4.25-1-5-1.5,1.25-.5-2-2.25-4.25-2.25-4.25-2.25-2-1.75-2.25,0S389.15,186.76,389.15,186.76Z"/>
        <path class="cls-1" d="M420.65,184.51l4.42-.75a6,6,0,0,0,2.39.75c1.69.25,4.27-1.5,6.35,0a14,14,0,0,0,5.34,2.75c3,1,2.35-.75,4.3,2s2.4,3,2.93,3.75,1.14,1.75,1.14,1.75a3.49,3.49,0,0,1-2.9,2,23,23,0,0,1-4.47,0,12.17,12.17,0,0,1-2.14,2c-.86.5,1.19.59-2.34,3.42s-4.45,2.33-5.61,4.83-4,2.5-2.6,4.5,2.94,1.75,3.69,2.25,2.66-1.5,2.66-1.5-2.33,1.78,0-1.86,1.55-3.89,4.19-5.39,3.49-1.16,5.44-2.83-1.1-.93,2.93-1.43.77-1.75,4-.5,1.69-1.41,4.35,1.92.9,3.58,2.65,3.33,2.32,2,2.41-1,2.91-3.42,0-5.71-3.46-2-5.06-4-1.46-2-3.15-3.25,1-1.75-5.22-5.5-5.51-5.06-8.37-4.53,1.39,0-2.86.53-1-10-3.25-9.25-3.88,0-4.44.75-1.48,0-2.39,1.25a12.08,12.08,0,0,1-1.6,1.84Z"/>
        <path class="cls-1" d="M427.65,75.76h4s-.5-2.5,2.25,0,2.25,2.25,4,3.75,0,1.25,1.75,1.5l1.75.25s1.5-3.11,1.25-3.31-1.78-.94-1.76-2.19.76-1.75-1.24-2.75-1.7-.5-4-2S427.65,75.76,427.65,75.76Z"/>
        <path class="cls-1" d="M467.4,83.51s1.25-1,0,2.25-2.25,4-2.75,5.27-.75,2.23-1.5,3.73-3,2.06,0,2.28,2.36,2.53,4.81,0,1.94-2,4.44-2.78l2.5-.75s1.25-1.5,0-4-.25-3.25-1.5-4.5S467.4,83.51,467.4,83.51Z"/>
        <path class="cls-1" d="M318.65,155.51s-2-2,0,.75a49.24,49.24,0,0,1,4.15,8,11.39,11.39,0,0,0,2.1,1.5c1,.5,1.67,5.25,2,0S318.65,155.51,318.65,155.51Z"/>
        <path class="cls-1" d="M327.9,179.73s3.75,1.22,4.5,0-.25.53,2.25-2a21.67,21.67,0,0,1,4.33-3.5l1.17-1.54a5,5,0,0,1,2.25-1.46c1.5-.5.75,0,4,0s3.5-1.44,5.5-.22-.25.47,3.25,2.47,2.67,2.75,5.46,3.5,1.54-.25,4.79,1.25a31.51,31.51,0,0,0,5.5,2,19.19,19.19,0,0,1-6.25-4.87c-2.5-3.15-3.33-5.83-4-4.87s.29,1.39-4.46-.2-4.16.31-6.08-2.14,1.83-4.45-3.17-2.95-2.75.25-5,1.5-.75.75-2.25,1.25-1.5-.75-3,1.75-1.75.42-2.5,3a30.88,30.88,0,0,1-1.75,4.54Z"/>
        <path class="cls-1" d="M298.53,176.13c0,.75-.69-.81.06,1.94s.06,1.38.06,3.41v2.28s-3.67,3.25.29,1.5,1.46-1.75,4-1.75,2.75,0,4.25.5,1.5.75,3,.75,2.5,2.5,1.5,0,.5-3.76-2.75-3.76h-3.25a2.48,2.48,0,0,0-1.07-2.5c-1.43-1-.93-.75-1.43-2.37s0-3.45-1.25-3.41l-1.25,0Z"/>
        <path class="cls-1" d="M250.4,164.74a30.91,30.91,0,0,0,3-1.48c.75-.5-2,1,2-1.75s2.75-3.5,5.25-3.25,2.25-.5,4,1.25,2.5-.5,2.5,3a14.93,14.93,0,0,0,1,5.7s1.5,1.45,2.75,0l1.25-1.45,2.25-.5s.5,2.9,2.5,1.95,3.25-1.7,5.5-1.2l2.25.5s4.75,1,0-1.75-2-1.75-4.75-2.75-.5-.5-2.75-1a13.17,13.17,0,0,0-4-.5c-1.5,0,.75,1.75-1.5,0s.86-.84-3.07-3.29-2.18-3.36-5.18-3.41-2.5-1.2-4.5,0l-2,1.2-3.5,3.25Z"/>
        <path class="cls-1" d="M336.15,114s4,2,4,2.75-.75-.5,2,3.25,1.25,1.5,5,5.5,5.15,4,5.7,6.25-5,6.5,2.3,2.5a54,54,0,0,0,13-10.75s-.75-1.5,1.25-.5,2.5-1,1.5,3-.5,5-3.25,7.25l-2.75,2.25s-.75.25-.75,1.75.75,2.5.5,3.75-.33.75-4,2.75-6,2-5.46,2.75a2.71,2.71,0,0,1-1.37,3.5c-1.62.75-3.87,2-4.37,0s.5-.75,0-4,3-3.5,0-6-2.61-1.5-4.31-4.5.81-3.5-1.69-6.75-1.35-3.5-4.42-5.75-3.83-1.25-5.08-3.75S336.15,114,336.15,114Z"/>
        <path class="cls-1" d="M375.4,85a2.23,2.23,0,0,1,1.5,2c0,1.5-4.5,1-.75,2.5s4,.53,5.5,1.52,1.5.23,4,2.48,1.75,2.31,3.25,3.53a10.29,10.29,0,0,0,3.25,1.72c2,0,2.54-2.19,4.27-1.72s-.27.72,1.73.47,4,1.06,3.75-.47.29-4.28,0-5.16,0,.44-2.76-1.09,2.24-2.28-2.76-1.53l-5,.75-5.75-.75s-.5.75-1.5-.75-.5-4-2.25-5.15-3.25-2.1-3.25-2.1Z"/>
        <path class="cls-1" d="M349.65,106l3.33-1.68s-1.26-.32,2.24-1.32,4.39-.75,5.43-1.25-1.22-1.5,1-.5,1,2.07,4,2.16,5-.09,5.25,0-3,1.59.25.09,5.5-2.68,5.5-2.68-3.5-2.07-5.25-2.07h-1.75c-1.5,0-1.75-1.94-3-1.72s-1-1.47-3.62,0-2.37.47-4.12,1.72,3.5.5-1.75,1.25-4.5.93-6.75,1.21-1-1.46-4,1.29-5.87,1-2.87,2.75a13.5,13.5,0,0,0,6.13,1.75Z"/>
        <path class="cls-1" d="M342.26,72s3.64,3.77,4.14,4,.5-.51,0,2.74S345.1,85,345.1,85s3.81-1.79,5.56-1.65.25-3.89,3.5,0,4.86,2.65,5.3,4.9-1.14,3.25,1.16,4a11.3,11.3,0,0,0,5.29,0s-1.25-.08,1.75.33,3.75,0,3.75,0,3-1.08-.5-2.58-4.75-2.25-5-3,.75,1-2.75-2-3.95-2.75-5.72-4.75-.28-.5-2.28-3.25-.75-4-4.5-5-2-.25-3.75-1S342.26,72,342.26,72Z"/>
        <path class="cls-1" d="M317.76,64.26c1.39,0,1.64.75,2.64,0s-.5.25,1-.75,2-1.75,3.75-1.25l1.75.5s-1-2.5-2-3.25-2.5,1-1-.75-.64-4-1.57-4-.43-1.75-2.68,0-4,2-3.5,3.63a4.28,4.28,0,0,1-.09,2.87Z"/>
        <path class="cls-1" d="M242,95s-.06-2.72,1.44-4-1.78,2,1.47-1.27,2.23-.75,5.48-4.75l3.24-4s1.75,1.25,2.5-2.25,1-5.75,2-6.5-6.5,1.5,1-.75,1.5-.5,7.5-2.25,1.25-2.75,6-1.75,3-1.5,7.5,1.75,5.47,3,6.61,3.5,1.64.63,4.89.63,4.15.38,5.45.38h3.55c3.75,0,5.75.25,6.75.25s-1.25.5,2.5,1,4.33,1.27,6.16,1,1.09,0,3.59,0,3.75,1,5.5,0-2.25.49,2.75-1.51l5-2a6.6,6.6,0,0,0-2.75-3.5c-2.25-1.5,3.75-3.5-2.25-1.5s-3,.5-6,2-1.42,1.13-5.84,1.31-.91.31-7.91,0S301.3,70.76,297.1,69s-4.95-2.68-6.7-2.34-.5,0-3-.07-1.25-.67-4-2-3-.33-5.5-1.58l-2.5-1.25s-.75-2.57-.75-2.6,2.5-3.4,2.5-3.4h7.5s2.75,3,4,2.63,1.25-1.62,3.25,0,3.3,1.12,4.28,2.37-1.78,1.25,1,1.25,2,1.75,2.75,0,1.5-1.24-.5-3.62-2.2-4.69-3.22-4.41-.28.93-3.28,0-2.53-2.2-6.14-3.2-3.11,1-5.11,0-4.75.17-6.25-.29,1-1.71-1.5-.46a9.28,9.28,0,0,0-3.75,4s-1.13-.47-1.56,1-.57,3.56,0,4.28.57-.78.57.72,2.86.25-.57,3.25-2.43,4-4.93,4-3.75-1.5-5.5,0-2.75,2.54-3.75,3.52-2,0-2,2.48,2-2.25,0,2.5-.25,2.25-3.25,5.5-3.75,4.25-5.25,5S242,95,242,95Z"/>
        <path class="cls-1" d="M279.65,112l3-5s-2.5,1.75,2.25-1.25,4.25-2.82,5.75-4,1.75-3.12,3.25-2.54.65-1.67,3.2,1.08,3.3,3.64,4.55,4.07a6.06,6.06,0,0,0,2.93,0s3.07-.14,1.82-2.61.85-.8-1.82-3.51a8.94,8.94,0,0,1-2.68-5.44c0,.23,1.25-.26-1.5,0s-2.5-.72-5.5,0-3.25-1.77-6-2.77,2.25-3.5-4.25-1.5l-6.5,2s0-1,2.5,2.27,2.5,3.3,4,4.26l1.5,1s0-.5-1.25,1.87,2.75-1.62-1.25,2.38a73.12,73.12,0,0,0-5.5,6.25C277.15,109.51,279.65,112,279.65,112Z"/>
        <path class="cls-1" d="M211.9,72.36S216,70.11,218,70.84s-1.44-.09,3.81,1.43,4,2,6.78,1.5.52,1.37,4,.18,3.76-.73,5.51-1.71,2.75-.75,3.88-1.61,3.88-2.87,3.88-2.87.75.52,1.5-1.74a6.07,6.07,0,0,0,0-4c-3.75,3-5,2.52-5.38,4s-.87,1.58-2.37,2.16-.5-.58-3.75,0-3.92.67-6,0S226.15,66,225.4,66s-.25-1.24-2.75,0-4,2.16-4,2.16-.5-2.5,0-3.59.25-.83,1-2.58-.5-.25,1.5-4.75.5-4.58,3.25-7.79,1.5-2.46,2.75-3.21.25,1.75,1.5-1.5-.67-2.5,1.29-5-5-2.5,2-2.5,7.25-.5,8,0S242,36,242,36s2.87-1.5,0-2,1.63-1.5-2.87-.5-2.5,1.89-6-.43S229.65,30,227.4,28s.25,1.75-2.25-2,0-4.5-3.25-6.25-2.25-4.5-3.25-1.75-.5,2.75,1.5,5.25,1.25-1.75,2,2.5,1,5.45,1,6.85,2-.6-.5,2.65a53.64,53.64,0,0,1-4,4.75c-4,4-4.25.5-4,4s1.5,4.67,1.5,5.46a4.58,4.58,0,0,1-.5,2.54c-.5.75-4,2.25-5,3.25s-.75,3-2.25,3.13-3.5,2.37-3.5,2.37.5-.75-2.5,2.75-.5-.5-3,3.5-4.75,4.46-3.25,5.23l1.5.77s-.25,2.46,3-.77.25.77,3.25-3.23a43.43,43.43,0,0,1,3-3.87s1.25-1.38,2.25-1.38h3.5s2,1,1,2.26S211.9,72.36,211.9,72.36Z"/>
        <path class="cls-1" d="M145.9,58.39c0-.38-.5-.13,2.25-2.88s1-2,4.5-4.75a44.78,44.78,0,0,0,6-5.16c1.75-1.84-3.5,1.91,1.75-1.84a65.47,65.47,0,0,0,7.5-6s4.75-.25-1.25,0-3.5-.72-7.5-.11-2.5-2-5.5-.21S150.4,40,148.15,42s-2.5-.32-3.25,3.59a30,30,0,0,1-.75,3.91c-.75,3,2,1.19-1,4.47s-1.75,2.28-5.5,6.53a50.28,50.28,0,0,0-4.5,5.51l4.25-1.43c3-1.33,2.5-2.83,3-1.33S138.9,65,140.15,68s1.25,5,2.5,4.23,4.5-.23,3.25-2.48-1.5-1-1.5-3.74,0-3.51.5-4.76S145.9,58.39,145.9,58.39Z"/>
        <path class="cls-1" d="M190.9,34s-2.25-1,1-2.5a32.86,32.86,0,0,0,6.25-4,3.94,3.94,0,0,1,1.75-2,26.58,26.58,0,0,1,4.75-2.75c2.25-1-1.75,1,2.25-1a27.28,27.28,0,0,1,5.25-2.25s3.25-6.25,1.75-6.25-.25-.5-1.5,0a15.62,15.62,0,0,0-5.5,3.58c-1.75,1.92,1.25-1.33-3.5,1.92s-3.47,0-7.73,4.76a72.65,72.65,0,0,1-7,7Z"/>
        <path class="cls-1" d="M151.65,64.59s.12-.42,1.62,0,.69,3.71,3.19-.19a73,73,0,0,1,4.22-6s-2.23,1.37,1.5-2.63,7-6.33,4-6.29-1.5-1.46-3,0,1-2.25-1.5,1.5-2.28,4.75-2.28,4.75,0-.5-1.72.5-4.13,2.13-4.13,2.13l-1.87.9Z"/>
        <path class="cls-1" d="M154.15,76s-.75.51,1.25,0,2.94-2.3,4.09-3.78-.59-3.48,1.16-1.48,1.29,1.44,1.52,3.6-1.73.9,0,3.9,1.73.58,1.73,3.54.5.46,0,3A29.23,29.23,0,0,1,162.17,90s-3.33-.75-2.68-3.25,1.59-1,0-3.4-.34-2.2-2.59-3.4A6.1,6.1,0,0,1,154.15,76Z"/>
        <path class="cls-1" d="M256.15,30.26s.75-.8,0,2.35,0-.1-.75,3.15-.5,1,0,4.25a43.63,43.63,0,0,0,1.08,5.59c.17.41,1.42-1.59,1.92-3.84s-4-.7,0-3.85l4-3.15s.5-1-1.25-3.25l-1.75-2.25Z"/>
        <path class="cls-1" d="M276.4,23.52s-1-1.51,1.51-1.76,1.24.75,2.49-.25-3,.5,1.25-1,2.75-2.25,4.25-1.5,2.25.47,3,2.11,2.75-1.83,1,2.4a21,21,0,0,1-3.14,5.74,6.29,6.29,0,0,1,.7,3.35c-.06,2.15-.56,2.9,1.69,3.15s1.75,1.5,4.75,0,2.5.25,3-1.5,4,.5,0-3.25-3.69-3.5-4.59-5.25.16-3.25,0-4,2.09.41-1.41-3-1.5-5.21-5.75-4-5.72-.33-7.24,2.08S276.4,23.52,276.4,23.52Z"/>
        <path class="cls-1" d="M344.65,33.76h5s-1.5-1.5,1.5.25,3.5,2.2,5.25,2.48,1.86-.58,3.05,1,1.7,1.3,2.7,2.55-2,1.75,2.25,1.25,4,1.75,4.25-.5,2.5,0,.25-2.25-1-4.25-3.75-4.5-3.39.05-5.7-.85a8.8,8.8,0,0,0-4.3-.55,2.21,2.21,0,0,1-2.63-.07c-1.37-1-1.87-1.28-3.12-1.28S344.65,33.76,344.65,33.76Z"/>
        <path class="cls-1" d="M15.15,198.51c.25.75-.25,3.34,3,3.67s1.75-.92,3.25.33,2.28,1,3.27,2.89,1,.61,1,1.86.5,3,1.5,1.5-3.25-2.72,1.5-3.36,4.88-.89,5.69,1.11a13.46,13.46,0,0,0,3.06,4c1.75-.75,3-.5,2.5-3s-.5-3.16-2.5-5.33l-2-2.17s1.25,1.75-2.75-1.5-3.64-3-5.07-4.75-2.9-3-2.91-4,.73-2.25-1.27-2.25-1.25-2.75-3.25,0-1.5,2.25-5,2.75-3.5-1.5-3.5.5,1.91,3,2.33,3.5,2.17,1,2.17,1.75A8.41,8.41,0,0,1,15.15,198.51Z"/>
        <path class="cls-1" d="M155.53,265.92s-1.4,1.42-4.17-.08-.36-1-2.86-1.54-5.84,1-5.84,1v1.42s4-1.25,1.25,0-3.25,1.5-4.25,1.25-2.5-1.72-3.25-1.86-1.5-1.95-1.5-1.95,3.25,1.56-1.75.81-3.5.5-5-.75-.75.5-1.5-1.25-.5-1.5-3-5.25-2-4-4.25-5.5.75-.5-2.25-1.5a41.13,41.13,0,0,0-5.5-1.25,14.13,14.13,0,0,0-3.25,0c-.75,0-2.5-1.25-2.5-2s-2.75,1,0-.75l2.75-1.75s.75.5,1.25-3.25,2-2.75.5-3.75.5-2.75-1.5-1,2.75-2-2,1.75-7,3-7,3,3.25,1.5,0-1.5-3.75-2.24-5.5-4,2.25,1.75-1.75-1.75-5.25-2-6.25-4.75-1.75,1.25-1-2.75,2.25-3.84.75-6.3,1.5-.45-1.5-2.45-1,.25-3-2,0-1.5-4-3.75,1-1-5.25-2.11-5.75.89-7.5,0,1.25,1.86-1.75-.89a21.49,21.49,0,0,1-3.83-5.05c-.75-1.31-1.17-2.27-1.17-2.27s4.5,4.1,5.75,3.22,1.25-.64,2-2.14,2.75-.25.75-1.5-1.25,1-2-1.25S60.4,197,63.9,197s1-3,3.5,0-2.25-.25,2.5,3,5.75,2.5,6.5,3.25-.75,1.25.75.75-3.25-3,1.5-.5,4,3.5,6.25,3.75,2-.25,3.5.75,1.5.53,2.75,2.39,0,1.61,3.25,4.86,4.5.66,3.25,5.45-2.5,5.55-2.25,6.55-.75,1.75,2.5,3,4,.5,5.25,1.63a5,5,0,0,0,3.69,1.12c1.06,0-.69-.75,1.06,0a52,52,0,0,1,5.25,3s1.25-1.27.75,2.23a18.18,18.18,0,0,1-1.75,5.75l1.75,1a5.11,5.11,0,0,1,3.07,1.5c1.68,1.5.43,1.5,3.68,3s4,.75,5,2,1.75.5,1.75,3-1.75,3.25,0,2.5,1.5-2.5,3-1,1,2.5,4,3-3.5-.75,3,.5,6.5,1,8,1.5.14-.25,2.44.5a14,14,0,0,1,3.81,1.5C152.9,263.76,155.53,265.92,155.53,265.92Z"/>
        <path class="cls-1" d="M179.58,322.47a4.81,4.81,0,0,0,1.31,2.29c1.26,1.5,2.68,2.25,3.22,1.75s-.21,2,.54-.5-3.25,1,.75-2.5,0-1.25,4-3.5,8.53-2,4.14-4l-4.39-2s-.5-1.4,3-3.45,3.58-2.13,4.41-2.84-1.7,0,2.2-2a30.68,30.68,0,0,1,4.91-2.25l1.23-.5c4.25-1.75,6.25-2.43,6.5-3.34s5-.41,1.5-1.16-2-2.5-3.5-.75-4,1.75-4.25,3.5-4.75.75-4.75.75-4,2.5-1.64-.75,2.64.24,4.14-4.25-1.49-9.25-1.49-9.25c2.74,0,1,1.5,4.24,0s2.5-1.25,4.75-3l2.25-1.75a1.22,1.22,0,0,0-1.25-1.5c-1.5,0-3.75.34-4.5,1.17s-3.73,3.64-5.49,3.23-1.51-1.91-1.76-.41.5-2.25-.25,1.5,1.72,2.86-.64,6.56-3.11,5.27-3.61,6.11.78-1.16-1.61,2.09-3.63,4.5-6.13,7.5-2.84,3-3.3,4.25.21,1.25,0,3.5l-.21,2.25Z"/>
        <path class="cls-1" d="M206.78,340.73s5.06,1.14,5.56-.11-.91,1.19,1.81-1.56-1.77-1,2.73-2.78,1-.76,6.26-1.76-1.75,1.24,5.25-1,4.75-.75,8-3.75,4.14-.75,4.7-4.5,2.31-4.75.56-3.75-1.5,2-4.5,4.25-2.08,2-4.29,2.5-1.71,5-3.71,1.5,1-4-2.62-4.75,5.13-5.75-3.62-.75-8.5,2-8.75,5.22a59.4,59.4,0,0,0,0,7.28h-1.53Z"/>
        <path class="cls-1" d="M259.15,357.76l4.5-4.21a2.59,2.59,0,0,1,2.25-2.79l2.5-.5s1,2.75,1.75,0,.25-2.48,1.25-4,.75-2.85,2.75-3.06-2,.55,2-.2,3.75-1.11,5-1.8-1.5.3,1.75-2.2,3.14-2.23,3.86-4.48,2.31-2.22.73-2.25-2.34,1-4.59,2.22-3.5,1.43-4.25,2.71,2,.29-3.5,2.29a78.59,78.59,0,0,0-8.75,3.7s0-2-3.75-.34-3.5.39-3.75,1.64-1.5-2.25-.25,1.25,2,3.25,2,5a14.83,14.83,0,0,1-1,4.27Z"/>
        <path class="cls-1" d="M277.15,329.76a12.19,12.19,0,0,1,3.25-2.62c.75-.63,2-.13,2.25-2.38s2.25,0,0-3.61-1.69-3.64-2.22-5.89S277.9,317,279.9,313s1.75-5.58,2.75-5.29l1,.29s1.72-.62,3.11-3.68-.11.43,1.39-3.07-.25,1.25,1.5-3.5-1.25,0,1.75-4.75,2.75-3.25,3-4.75-2.25-5.58-2.25-5.58c4.75,2.83,6.25,3.23,6.25,3.23s-.25,1.34,0-1.41a26.59,26.59,0,0,0,0-4.48,11.71,11.71,0,0,1,1.5-4.86s0-2.34-1.75,0,.25,5.09-1.75,2.34-2-4-2-5.5,1.25-1.27-1-1.89-2.75-4.14-3.75,0a28.5,28.5,0,0,1-1.48,5,19.64,19.64,0,0,1-3.52,0c-2.25-.16-3.75-3.16-2.25-.16s2.5,2.8,3.5,5,.22,2.73.86,3.48.42-.44,1.41,2.41,2.48-.66,1,2.84-3.5,2.86-3.5,4.81,1.25.44,0,3.19S283.9,299,282.4,301l-1.5,2s1.25-2.12-1,1.32-1.25,4-3.75,6.23-1.75.7-2.5,2.2-1.75,3-1.75,5.5-.78-.12,1.24,3.82,2,3.7,2,5.07-2,.12,0,1.37Z"/>
        <path class="cls-1" d="M287.56,266l1.89-3.5c1.25-.25,2-3.25,2.88,0s2.08-.61,1.58,3.5.79,5.48,2.27,4.11-.53,1.14,1.47-1.36,2.5-.75,2.25-5.5,2.5-4,0-6.25.05-2.33-3.73-3.29-2,1.29-3.78-1-3-3.75-3-3.75a1.23,1.23,0,0,1,1.25-1.67c1.75-.08-.63,2.58,3.56,0l4.19-2.58s-.95-3.5-2.22-3,.59,1-2,1.25-6,.75-6,.75h-.52s.6-1-1.82-2-1.93.5-3.43-2.25-.25-2.75-2.25-4.75-1.25-1-3.5-2.87-1.5.87-2.25-1.88,1.47-3.86-1.26-3.93-4.55,0-4.55,0-.18-.32-1.18,1.93-1.25,3.74-3.25,3.49a7.64,7.64,0,0,0-1.7,0,22.23,22.23,0,0,1-3.75.38,32.56,32.56,0,0,0-3.77,0s8,3.12,8.72,3.37a33.79,33.79,0,0,0,4.93.25c.57,0-1.93-.75.57,0s2.47,2,4,2.24,1,.26,2.51,1.76.5-.75,1.5,1.5-.91,2.5.79,3.25a25.41,25.41,0,0,0,3.71,1.23l1.25,1.85c-1.5,1.17-.5-1.92-2.25,1a20.71,20.71,0,0,1-5.5,5.38s.25,0,0,1.54a5.91,5.91,0,0,0,.5,3.25c.25.75-4.25,3.75.25.75s2.75-.75,4.5-3l1.75-2.25,1.25-.29c2.5,0,.75,0,2.5,0s.75-1.75,1.75,0a5.67,5.67,0,0,1,.52,3.75Z"/>
        <path class="cls-1" d="M244.65,317c3.75-.5,4,1.5,4.75,0s-2.47,1.25,1.89-2.25l4.36-3.5s.5.1,1.25-.7,3.41-2.13,1.2-2.84,0,1.29-2.2-.71l-2.25-2s-.2,1.38,1.28-.68,1.63-1.82,3.18-3.32-.2.25,1.55-1.5,3.75,1.5,1.75-1.75l-2-3.25s-1.75-.18,1-1.72,3-.78,4.25-2.28a5.53,5.53,0,0,0,1.5-3.5c0-.75-1.25-1.66-1.25-4.33s1-.67,0-2.67-.5-1.25-2.25-3-2.25.32-2.75-1.84.5-3.66-.5-4.54-2.25-1.2-2.5-2.54,3-7.34,2.75-8.59l-.25-1.25s.91-3.5-1.3,0-3.15,2.25-3.18,5.25a28.33,28.33,0,0,0,0,4.63c.22,2.37-.22.37,0,3.87a35,35,0,0,1,0,5.5s-1.53-2.5-2,1-2,2.09-.25,4.17,2.75,3.23,2.75,3.23,2-2.14,1,1.23-.2,4.19-1.47,5.65a5.2,5.2,0,0,0-1.53,4,2.64,2.64,0,0,0,1.53,2.19s2-.62,0,.72-3.5,1.84-3.64,2.84-.64,1-.89,3.25a12.46,12.46,0,0,0,0,3.25c0,.75.75.6,0,1.55l-.75,1-1.92,2Z"/>
        <path class="cls-1" d="M407.17,239a18.53,18.53,0,0,0,3.48,1.5c2.25.75,1.75-1.25,3.25,1.25s-.75,3.46,1.5,3.73a11.63,11.63,0,0,0,3.5,0s-.25.22,1.75.12-.25,1.65,2-.1,1.75-2.47,3.25-2.86.5-2.64,1.5-.39,1.75,1.71.25,3.23-.67,2.93-2.58,2.85l-1.92-.08-2.5.08c-3.25.17.75,2.17-3.25.17s-1.75-.25-4-2-.5-.62-3.75-2.31-4.5-.69-4.5-2.44S407.17,239,407.17,239Z"/>
        <path class="cls-1" d="M214.65,176.63s-.27,1.56,2.48-.19,2.23-3.09,4.68-2.09,1.39-1.3,2.39,1,.47,5,1,2.23a26.5,26.5,0,0,0,.36-2.76c.25-1.5.11-1.51.11-1.51v-1.5s-2.25,1.75,1.75-1.25,1.75-.5,4-3l2.25-2.5s-.75-.41,2.5-3.45,1-.55,3.25-3,2.75.5,2.25-2.5,1.75-3.5-.5-3-2.75-.4-4.5,1.8-.25.7-1.75,2.2-2.75,1.11-3.25,2.43,0,2.07-1.5,3.57-.07,2.74-2,2.75-3.33-1.5-3.52,0,.56-1.5-.19,1.75-1.4,4.25-2.7,4.25h-1a14.6,14.6,0,0,1-3.27.75,18.46,18.46,0,0,1-2.73.21Z"/>
        <path class="cls-1" d="M266.15,185.87l4-3.36s.21-1.14,1.61,1.68,2.4,1.57,2.15,4.57.25,3.79,1,4.52.5-1,.75.73,1,3,0,4.39,1,.61-1,1.36-1.74-1.22-3.5-1.36a29.73,29.73,0,0,0-3.75,0c-1,1.86-3,1.86-1.25,4.36s1.49,2.5,4,3.75,1,0,4,1.75.59,1.25,3.79,2.25,3.46,3.5,4.71,1.75,4.38,3.33,2.07-.46.93-.29-2.32-3.79-4.49-4.75-4.49-4.75-2.43,1.09,0-1.08L280.4,200h0c-1.25-2.75-1.25,0-1.25-2.75s-1-1.09,0-4a10.93,10.93,0,0,0,.75-4.52l-2-1s-.67.31-1.73-1.47,1.39-3-.71-4,1.65,1-2.1-1-6-2-6-2C266.65,180.51,266.15,185.87,266.15,185.87Z"/>
        <path class="cls-1" d="M228.65,246.51s-2.5,2.25-2.12,3-1.12,0,0,2.75,2.39,1.64,1.88,4.44.94,1.81-1,4.31-2.22,4.25-4.47,4.75a7.62,7.62,0,0,1-3.75,0s-1.75,2.92,0,2.34,1.47,1.59,4.36,0,.39.41,2.89-1.59-1.25-.5,2.25-2.75.25-1.25,3.5-2.25l3.25-1s3.85,0,3.8-.75,1.7.89-1.3-3.06l-3-3.94s-2,.5-.25-1.75,4.55-5.52,4.55-5.52c2.7-1,5-3,5.45,0s0,1.77,1.25,4l1.25,2.25s-.09,2,.58.25.83,1,0-2.62-.33-2.35-1.08-5.49.75-2.64-2-3.89.25-2.5-2.75-1.25.75-2.75-3,1.25-2,1-3.75,4a31,31,0,0,1-4.25,5.5Z"/>
        <path class="cls-1" d="M248.55,237.62l2.1,4.14v1s-.5,0-.25,2.73a6.07,6.07,0,0,0,1.75,4s-1,2.5,1.5,1.25,3-.59,3-2.42-1-2.7,0-4.14,2.5,1.31,1-1.44.5-.5-1.5-2.75-3.72-4.21-4.86-4l-1.14.23Z"/>
        <path class="cls-1" d="M151.42,275.17s0,.91,2.6,0,3.22.91,5.05,0,3.33,1.13,4.08-.26-1.24-3.15,1.63-3.15,3.44.25,4.9,1,1.84,2.07,3.15,2.41-2.13,1,1.84.41-.78,2.43,4-.57,2.5-2.25,4.75-3l2.25-.75s1.67-3-1.54-3.12-2-.13-3.21-.13a16.67,16.67,0,0,0-3.5.68s-1,2-1.75,1.43.75-1.1-2.25-2,1.25-.88-3-.88-1.25-1.5-4.25,0,.5-1.39-4,1.43-4.5,3.82-4.5,3.82Z"/>
        <path class="cls-1" d="M72.9,189.51c-.75,0-2.65-1-3.57-1.25s-1.43.25-2.43,0-3,1.61-3.5-.07-4,1.79-1.75-2.32,4.25-2.07,2.5-5.59-.5-1.72-2.5-4.12-2.5-.48-3.5-3.44.75-5-2.5-6-1.75-2-3.25-1a7.38,7.38,0,0,0-2.25,2.45s1.25.45-1.75,0-.5-.45-4.75-1.45-1-.24-5.75-1-4.5-1.29-6-1l-1.5.27c-2.75.5-3.89-.24-4.57.76s1.57-.76-.68,1-3.5,4.15-5,4.7a12.91,12.91,0,0,0-4.5,2.3c-3,2-3.25,4.16-5.5,3.33s-2.75,3-3.25-.93-2.5-1.4-.5-3.9-1.57-1.6,2-4.05A42,42,0,0,1,14,164.74c.92-.48-4.62,4.42.92-.48s1.08-5.81,5.54-4.91,5.39.09,5.39.09-1.18-.34,1-.4,2.79.78,3.54,0-1,.47,2.25-2.28.75-4.84,4.25-3.92,1.75-.08,3.5.92,2.5-.4,3.5,1,2,1.45,2.5,2.2,1.25,3.11,2.25,2.43S53,158.26,53,158.26s-.11.5,0-1-1.14-.75.11-1.5L54.4,155s2.5,2.22.25-2.39.25-2.86-2.25-4.61-1.75-1.75-3.75-1.75-2.75,1.75-3.5,0,1.75-1-1.5-3.25.75-2.5-3.25-2.25a81.57,81.57,0,0,1-9.75-.25l-1.11-1.69.86-1.31s-2.25,1.5,1,0l3.25-1.5s-.5-1,2.25,0,.5.75,2.75,1,2,0,3.75,1-2.25-3.5,1.75,1,2.5,4.25,4,4.5,2.28-.75,3.89.75,1.36-1.5,3.11,2l1.75,3.5.25,6.75c3.5,2.75,2.75,4.5,5.25,5l2.5.5s-.25,2.9-.5,6.2-2.5-.45-.25,3.3,3.1,3.55,4.18,4.65.32-.4,1.07,1.1,1-.5.75,1.5a44.08,44.08,0,0,0-.5,4.75c0,1.25-.75,1.47,1.25,2.36s.75.14,2,.89S72.9,189.51,72.9,189.51Z"/>
        <path class="cls-1" d="M230.9,205.4s-.38-3.11,2.43,0-.68,2.11,2.82,3.11,1.64.78,4.95,1.89,3.55,3.83,5.05,2.84,4,2.27,2.4-1.48-2.4-3-3.9-4.5,3.5,2.75-1.5-1.5-7.25-5-7.25-5,3.25,3-.75,0-1.5-4.25-4-3-2.74,3-2.74,3l1.49,1.43Z"/>
        <path class="cls-1" d="M148.95,241.88s.72.19-1.23-.06,2.12,1.47-1.88-.28-3.94-1.78-3.94-1.78h-4.25s.9,3.5-1.42,0-2.33-2.5-3.08-3.75,2.75,1-2.25-2.75-3.5-3.25-5-3.75-1.5,1.25-4.5,0-4.5-2.25-5.25-1.75,1.75,1.25,0,2.5a12,12,0,0,1-1.87,1.25l-2.62.38v-2.13a9.17,9.17,0,0,1,1-2.13c.5-.62.5,1.13.5-.62s-4-1.5,0-1.75,1.25-.25,4-.25.5-1.25,2.75,0,1,.39,4,1.07a17.5,17.5,0,0,1,3,.68c2.5.75.15.25,3.32,2.75s.93,1,3.93,3.89,3.75,4.71,4.5,4.79l.75.08s4.25,1.54,1.5-2.23-1-3.27-3.5-5.52-.5-.5-2.5-2.25a9.8,9.8,0,0,0-3.25-2.21c-1.5-.79-2.75-1.59-2.75-1.59s-3-1.69.25-1.44,0-1.5,4,1a43.39,43.39,0,0,1,4,2.5c2.5,1.75,2.25,2.25,4.25,3.25s3,.71,3.75,2.73l.75,2s.89,3.75,1.94,4.75,1-.62,1.06,1Z"/>
        <path class="cls-1" d="M137.65,256.76h3s3.75,1.64,4.25-.06-.36-3.34,2.94-3.27l3.31.08s6.25-.05,0-2.4l-6.25-2.35s.25-.75-1.5,0-1-.75-1.75.75l-.75,1.5s.25,2.35-1,2.42l-1.25.08Z"/>
        <path class="cls-1" d="M169.69,249.51a8.9,8.9,0,0,1,3.15-1.17c1.31-.33.06-.17,3.06,0s.25-.08,3,.17,3.67,1.89,5.21.32.91-.07,2-2.32a15.64,15.64,0,0,0,1.32-4.17s2.11.58-1.32,0,.07-1.58-3.43-.58-1.25-.75-3.5,1,.25,1.75-2.25,1.75-.5-.62-3.5-.31.5-1.44-3,.31-1.5-.5-3.5,1.75,1.75-1-2,2.25l-3.75,3.25a4.31,4.31,0,0,0,3,1.19c1.53-.19,0,.56,1.53-.19s1.69-1.65,1.69-1.65Z"/>
        <path class="cls-1" d="M197.9,247.22a6.6,6.6,0,0,0,3.57-1.73c1.43-1.48-2.07.77,1.43-1.48a18.41,18.41,0,0,1,5-2.68l2.5-1.07s.5,1.15-1.25,2.08.5-.33-1.75.92-1,.25-2.25,1.25-.5-.79-2,1S197.9,247.22,197.9,247.22Z"/>
        <path class="cls-1" d="M196.57,273a35.41,35.41,0,0,1,3.34,2.16c2.25,1.59-.25,1.59,2.25,1.59s2.5.5,4.63,0,2.13,1.75,2.13-.5a3.82,3.82,0,0,0-2-3.25s2.5-.25-.12-2.38-.37-2.62-2.62-2.12-2.74,1.61-2.74,1.61a5.81,5.81,0,0,1-2.51,1.36C197.9,271.51,196.57,273,196.57,273Z"/>
        <path class="cls-1" d="M230.9,282.76s.42.29,2-1.21-.21-.27,1.54-1.52,6.7-4.85,6.7-4.85-.45-.58.93-2.37-.87-3.3,1.38-1.8,2.75-1.75,2.25,1.5,3.25,1.25-.5,3.25-5,1.52-5,1.52,1.1,2.53-1,2.75-.3-.77-2,.23a18.44,18.44,0,0,0-1.75,1l-5.5,1.46Z"/>
        <path class="cls-1" d="M139.12,220.46c.75.8.54,1,.54,1v-2.75s1.25-.5-.37-1-3.37.5-4.12,0c-.37-.25-.62.05-.91.25s-.59.29-1.09-.39c-1-1.36.5-.61-1-1.36s-.75,1.5-1.5-.75.75-.75-.75-2.25-1.5-3-2.25-2.75-.5,1.88-.75.13-.25-1.87-.25-1.87h4l2.25.25h0s1.75-1.12-1.5-3.56L128.15,203a2.59,2.59,0,0,1-1.5-.83c-.5-.67-.75-3.4-2-3.78s-.25-1.64-1.25-.39-2.75-3.5-1,1.25l1.75,4.75s-2.24,1.38-2.5,1.44-2.25-.05-2.25-.05-.75,1.14-2.25,0l-1.5-1.14s-3.56-.75-4.28-1,0-1.5-3-.5-2.75-.5-3,1a4.62,4.62,0,0,0,2.75,4.5l2,1s1.25-1.25,2.25,1.25-1.25,1.25,1,2.5-1,1.5,2.25,1.25,4-2.5,4-2.5c4,0,4.5-.75,5.25,0s.5.41,1.25,2.08-2.25-.58.75,1.67l3,2.25s.25.64,1.75.25S139.12,220.46,139.12,220.46Z"/>
        <path class="cls-1" d="M120.65,193.4s-1.75-4.08-2-3.83-.25.22-.25.22,1,1.46-1-.28-1-.5-2-1.75a9.38,9.38,0,0,0-2-1.89,5.77,5.77,0,0,0-1.9-1.86,18.52,18.52,0,0,1-2.85-2.53v2.28s3.75.72,0,2.11l-3.75,1.39s-3,2.74-1.5.12.25,1.13,1.5-2.62,1.42-2.71.46-4.48,1.54.48-1-1.77-.75-1.25-2.5-2.25-.25,1.5-1.75-1-2,.75-1.5-2.5,1,.5.5-3.25-1.5-7.19-1.75-7,3.75-2.18-1-1-3.5,1.45-4.75,1.2-1.25.75-2-1.25.25-3.25,0-4,0-1,1-3.25.5-7,.5-7-2-2.5,1.5,1.5,2.5.25,3.5,4-.5,2,1,3.75,1.25,2.36,3,2.93.25-4.18,1.75.57,1.5,5,1.5,6.75-.25-.5,0,1.75-.33,3,2,4,3.54.21,3.54.21c.25-3.71.25-5-.5-6s-1.87-1.29-1.56-2-1.31-1.93,0-2.2.06,2,1.56-1,3.44-2.25,3-3.75.47-1.15,0-3,1.22-3.14,0-3.72-2,.42-1.72-2.08a19.43,19.43,0,0,1,.5-4c.5-2.25.94-1.75,1.22-4.25s-.28-1.65,0-3.9a6.64,6.64,0,0,0-1-4.1h-2.75l-2.7-3c1.7-1,0-.25,1.7-1s.5-1.25,2-2.25.69-4.75,2.72-1a24.06,24.06,0,0,1,2.53,7,5.9,5.9,0,0,1,2,0c.75.21.75.07,1.5,3s0,2.69,1.25,4.19,3.25,1,1.88,2.5.13-.75-1.37,1.5-.5-1-1.5,2.25-1.5,0-1,3.25a34.61,34.61,0,0,1,.75,5c.25,3.25-.75,4.37-.75,4.37s.5-2-.5.81-1.5,4.78-2,5.3-.12-2-.37.52-.12,2.5-.12,2.5v5l-.75,5.93s.75,2.26,1,2.79-.5-2,1.5,0,0,1,2,2,3.18.47,3.59,2.36,1.83,2.39,1.75,3.64-1.84.25-.09,1.25,3.75.5,3.25,1.5,1.25.5-.5,1l-1.75.5Z"/>
        <path class="cls-1" d="M143.65,209.49a1.64,1.64,0,0,0,0-2.64c-1.5-1.5-1,.45-1.5-1.55s-1.33-3.18-2-3.1a22.57,22.57,0,0,1-2.46,0v-3.42s-.75-1,0-1.48l.75-.52,1.71,1.64.71-1.12s-3.33,1.75,0-1l3.33-2.76a2.88,2.88,0,0,0,.17,2.17c.58.83,1.33-2.42.58.83a14.94,14.94,0,0,1-2,5s.25,1.51,1,1.76,1.13.63,1.31,2.19S143.65,209.49,143.65,209.49Z"/>
        <path class="cls-1" d="M150.15,221.51l3.78,3.25c.47,1.25-1,.75.47,1.25a5.65,5.65,0,0,0,3,.07l-1.87-2.2c-1.6.88-.57-.6-1.6-1.24A15.83,15.83,0,0,0,150.15,221.51Z"/>
        <path class="cls-1" d="M85.9,200c-.75-.5,0-1.71-1.5-2.73s-1.25,1.23-1.5-1,.25-1.5,0-4,0-.75-.25-2.5-.5-4.44-1.75-3.47a2.26,2.26,0,0,1-3,0c-.75-.53-1.25,1-1.75-1.78l-.5-2.75h0c2-.25,2.25-.5,3,0a9.08,9.08,0,0,0,2.75.75c1-2,.25-2.89,1.75-3.82l1.5-.93s1.75-.68,2.5,1.54,1.93-1.54,2.22,3.21-.47,4.5,1,7,1.5.25,2.25,4.25-.5,4,1,6.25a22.75,22.75,0,0,1,3,5.39c.25,1.11,3.5.86.25,1.11s-2,1.63-4.5-1.06,0-.69-2.5-2.69A25.71,25.71,0,0,0,85.9,200Z"/>
        <path class="cls-1" d="M74.76,162.54s.89-.43-.48-1-2.88-2.74-2.88-2.74c-2.25-.06-.75.69-2.25-.06a29.42,29.42,0,0,1-3.25-2s-.5-1.9,0-2,.25.71,1.25-.54,2.35-3,2.18-4.5.07,1.75-.18-1.5-2.69-3-3.47-7l-.78-4s-4-5.89,0-1.69a51.43,51.43,0,0,1,5.75,6.94c1.25-.5,2.25,0,1.25-2.25s0,1-1-2.25l-1-3.25s-.63,1.33-.82-2.21a37.13,37.13,0,0,1,0-5.29,36.76,36.76,0,0,0,0-5.25c-.18-2.75,1.32.25-.18-2.75a25.36,25.36,0,0,1-2-5.25s-1,1,1,0l2-1s1.5-2,1.5,1-1.75-.25,0,3,3.29,4,3.65,5.5-.85-.5,0,3.25a54.13,54.13,0,0,1,1.1,6.79,3.32,3.32,0,0,0,0,3c.75,1.94-1,1.44,0,3.44a3.37,3.37,0,0,1,.19,3.25,6.23,6.23,0,0,0-1.58,2l-.61,1.25a7.23,7.23,0,0,1,.13,3.25c-.38,1.5-1.66.91.48,4.08S76.15,155,76.65,157s1,4.5,1,4.5Z"/>
        <path class="cls-1" d="M123.65,92.78s-1-2.52,0-2.77.75,1.24,1.5-2.25l.75-3.5,2,3.5s2.4,1.75,2.32,0-.67-3.5,0-3.5,3.92,0,2.92,1.5a5.47,5.47,0,0,0-1,2.76L133.34,90s4.21,2.79,2.89,2.77-1.58-.48-3.08,0l-1.5.48a9.62,9.62,0,0,1-3-.48C127.15,92.26,123.65,92.78,123.65,92.78Z"/>
        <path class="cls-1" d="M174.6,171s1.3,2,2.55,1.5l1.25-.5c2.5-1,3.25-4.07,4-3.16s-2.5-.34.75.91S184.9,171,186.4,171s6.25-2.8,6.25-2.8-1.75-.7,0-.95,0,1.25,1.75-.25,3-1.54,3.5-2.27.5,2.27.5-.73-.25-2.89,0-4.57-2.25-1.18,0-2.68,1.15-1,3.07-2.5a9.8,9.8,0,0,0,2.71-3.17s1.88-2.33-1.45-1.33-.08-1-3.33,1-2.5.16-4.75,2.08-2.5,2.42-2.5,3.17-1.5-2.25,0,.75a28.65,28.65,0,0,0,2.5,4.29s2.78,0,1,1.49,1.48,1.47-1.77,1.47-4,1-5.25.73a8.25,8.25,0,0,0-2.57,0s1.68-5.12,0-5.3-2.68.18-3.43,0-2.39-2.82-3.07,0-.43,1.57-.68,2.82-.25-.5-.25,1.25,2.5,2.25,0,1.75l-2.5-.5h0c-2-.75,0-.5-2-.75l-2-.25s-.75,1.71-1.5,1-5.87-3.19-5.87-3.19-2.37-2,0,1,1.12,1.72,2.37,3,2.2,1.65,1.6,2.7l-.6,1.05a4,4,0,0,0,1.53.75l1,.25Z"/>
        <path class="cls-1" d="M206.65,161.76h4s1.25-.92,2-.71-.26,1.48,2,0,1.45-.64,3.73-2.2l2.28-1.56,3.94,3.79s-1.19.54,1.06,0,3,.71,2.76-1.54,2.24,1-.26-2.25-3.56-4.42-3.56-4.42,1.69-1.67,0-1.75-2.34-2.08-2.89-1.58-1.55-.08-1.55-.08l-.75-2.17-.5-1.5a1.73,1.73,0,0,0,1.25,0c.75-.25-1.5-.25.75-.25s-.25.25,2.25,0,2.25,3.25,3.25,0,2.75-5.25,1-5.5-4.4-.5-5.7,0a9.24,9.24,0,0,0-1.3.5c-2.5,1-1,1.25-2.5,1s-2.26.5-3.26-1l-1-1.5s-1.75-2.25-2,0-2.12,3-1.18,4.5.68,2.5,1.43,3,1.81-1.75,2.28,2-1.55,1.66.46,4.33,3,3.17,2,4.17l-1,1Z"/>
        <path class="cls-1" d="M129.65,173.76h3c.25-2.25-.25-5.07.5-4.91s-1.25,1.41.75.16l2-1.25s.25-.25,1.75,0,1.25,2.43,3.62,1.09l2.38-1.34a9.13,9.13,0,0,1,0-2.77,3.33,3.33,0,0,0,0-2.2c-.25-1.28-1.12-.67.19-3.1s.56-.18,1.31-2.43,0-3.59,1.75-4.17l1.75-.58a2.74,2.74,0,0,1,.55,4l-1.8,2.25h0c3.25.25,3.5,1.25,4.25-.75s.5,2.25.75-2,2-4.25,0-6.25-3.11-3.25-4.56-1.5.06,0-1.44,1.75,1,.5-1.5,1.75l-2.5,1.25-2.29,1.5a14.54,14.54,0,0,0,0,1.75c0,1.5-.29,1.36,0,3.43s0-1.18.29,2.07,2.25,3.75.25,3.25-1.5.75-2-.5,2.25,0-.5-1.25a14.61,14.61,0,0,1-3.5-2l-1.5-2.23s1.75-.31,0-1.06-1.85-1.65-3.18-3-2.32.11-2.32-2v-3.08c-2,1-5.14.16-4.44,3.08s2.69.92.69,2.92-2.5.25-2,2-.08,1.58.84,3.29a36.55,36.55,0,0,1,1.41,3.69c.5,1,.35,1.52,2,2s.2-1.5,1.7.5S129.65,173.76,129.65,173.76Z"/>
        <path class="cls-1" d="M122.61,139.36a2.87,2.87,0,0,0,.06-1.3c-.09-1-1.05.48-.05-1s.52-1.51,2.27-2.76,2.26,0,1.76-1.26,2.5-1-.5-1.25-.5-1.25-3-.25-.87-1.25-2.62,1a14,14,0,0,1-1.87,2.25v1Z"/>
        <path class="cls-1" d="M107.78,107a16.9,16.9,0,0,0,3.59,2l1.53.5s-1,1,1.5.39,3.5-2,4.25-1.34.14-.27,3.07,1.34,1.18-1.14,2.93,1.61,4.2,2,2.85,4.75-2.6,3.25-2.6,3.25-1.15,1.75,1.3,1,1.7,1.75,2.45-.75,1.39-3.75,1.19-4.5.69-4.22,0-5.36,3.56,1.86-.69-1.14l-4.25-3s-.39.39-1.69-1.43a56.49,56.49,0,0,0-3.78-4.45c-.52,2.13-.27.38-.52,2.13l-.25,1.75a11.82,11.82,0,0,1-1.75.57c-1.5.43-1.5.57-2.75,0s-.56.57-2.78,0S107.78,107,107.78,107Z"/>
        <path class="cls-1" d="M77.65,116.26s-2.78-1.31-2.89-3.9.11-.1,0-4.1-.86-1.5-.11-4,1.67-1,1.34-4.38,2.16,1.63-.34-3.37-1-4.25-3.25-6.5l-2.25-2.25s-2.9-2.25-.82-3.5,4.75-2,3.79-3,0-1.25-1.46-3l-1.5-1.75s-.39-3.48-1.57-4.12.82-2.13-1.18-.63l-2,1.5s-1.31.69-2.28,1.1l-1,.4-4-2.52C54.9,69,52.94,68.51,53,67.51l.11-1s.35-4.47,2,0,1.85,2.17,3,4.31-1,.9,2,1.42.5,2.27,3,.52,1.5-.18,3.25-2.84.85-.6,2.93-3.63.57-2.78,2.07-3,2.47,1.31,3.36,3,.64,2.79.89,3.63-.75,1.3.5,2.32,1.75-.21,2.75.15,1.5,1.37,2.75,3.12.5-1,1.25,1.75.75,1.5,1,4-1.25,3-1.25,3,1.5-.5-1.75,0-4.5,0-4.5,0a20.55,20.55,0,0,0,1.25,3.5l.5.75a8.22,8.22,0,0,1,1.5,3c.25,1,.25-2,.25,1s-.25,1,0,3-.5-1.25.25,2,2,4.75,2,5.5a3.23,3.23,0,0,1-1,2.5c-1,1.25-2,2.75-2,2.75s-2.25.53-1.5,1.64S77.65,116.26,77.65,116.26Z"/>
        <path class="cls-1" d="M49.65,62.76s2,2,2,0c0-1,1-1.94,1.39-3.47s.15-1.28,0-3,2.11.5-.14-1.75l-3.25-3.25s-.25-.08-3-1.79L43.9,47.76l-2.75-2.11a8.19,8.19,0,0,1-1.25-1.39c-.5-.75-1.5-2.48-1.5-2.48l-2.25-1s2.25,1,0-.75.75.5-2.25-1.75-1.5.25-3-2.25-2.5.5-1.5-2.5,1-3.75,2-4.25a12,12,0,0,1,2.94-.75s.44,1.5,0-1.25.56-2.22-1.19-3.74-2.55-4-4.15-4.76-5-4.5-3.17,0,1.32,2,1.82,4.5,1.36,4.25-1.82,6-.93-.5-3.18,1.75-4.25-2-2.25,2.25,1,4.58,2.75,5.67,2.11.87,2.68,2.85a7.4,7.4,0,0,1,0,3.82,4.86,4.86,0,0,1-4.43-1.09c-1-.75-1.5-4.21-4.5-2.73s-1-1.77-3,1.48l-2,3.25s1.25,2.91,3,2.33a12.06,12.06,0,0,1,4.75,0s-1.25-.17,1.75,0,1.75-.83,3,.17.5,1,2.5,1.75a23.06,23.06,0,0,0,6,.75c3,1.5,1.25-.25,3,1.5s.76.67,4,1.58,1.75.17,3.25.92,1.25,1.11,2.5,2.06.25.25,1.5,1.72A35.1,35.1,0,0,1,49.65,62.76Z"/>
        <path class="cls-1" d="M1.65,84.76h7s-.25-3.25,1-.5,1.75.74,2,3.5-2,1,.25,4.25,1.16,5.25,2.08,6,.17.25,1.67,1.87a9.49,9.49,0,0,1,2,3.88c2.25-2.5,2.25-3.5,3-3.88s-.75,1.38.75-.37,4-1.25,2.25-4.5-1-2-1.75-3.25,1.75.5-.75-1.25a28.61,28.61,0,0,1-3.5-2.75s.25,1-.75-1.5a18.39,18.39,0,0,1-1.5-4.5c-.25-1.5-.25,1.25-.25-1.5s-.75-2.75.75-4.25,0-.75,1.5-1.5-1.75-1,1.5-.75,4.2.69,5.35.6.26.72,1.58-.69,4.07-2.09,1.32-3.75-3.75-3.85-5.25-3.63-1.75,0-3,1.47,1.5.25-1.25,1.5-5.75,3-5.75,3c-.25,2.27.5,2.52-.25,3.52s1-1.25-.75,1L9.15,79s.18,1.66-.79,1a16.25,16.25,0,0,0-2.84-1.2l-.38-.25a2.25,2.25,0,0,0-3.19,0C.15,80,.9,77,.15,80A4.71,4.71,0,0,0,1.65,84.76Z"/>
        <path class="cls-1" d="M95.9,45.6l2.44.05s-3.56.11,0,.86,1.31.75,3.56.75,0,2,2.25,0,1.38-3,2.69-3.75.06-1,2.81-1.73,2.25.27,4,0,2.25.48,3.5,1.48l1.25,1,1,.56,3.31-1.56c1.16,1-.22,0,.47,2.39s1.69-.14.69,2.36-1.25,2.25-3.25,3.25,2,1.75-2,1-1.5,0-4-.75-.75-2.5-2.5-.75-1.58,1.92-2,3.83.46,4.72,0,4.69-.34,3.78-3.27,0-1.69-3-2.94-3.78-.25.5-1.25-.75,2,.5-1-1.25a32.4,32.4,0,0,1-3-1.75,9.44,9.44,0,0,1-2.75-2.29l-.75-1Z"/>
        <path class="cls-1" d="M78.4,69.92l3.13-2.41c3.25-2.5,4.61-3.08,5-2.92s.38,0,1.63,1.7,2.52,3.34,2.77,4.53a32.76,32.76,0,0,1,.77,3.53v3.4l2.5-2.25s-.75-2.23-1-3.12l-.25-.88s2.25,1.07,0-1.59-2.32-4.24-3.53-5.32A15,15,0,0,1,86.55,61c-.15-.45,4.35.8-.15-.45l-4.5-1.25s.25-2.25-1.5,0-3,3.95-2.75,4S78.4,69.92,78.4,69.92Z"/>
        <path class="cls-1" d="M71.65,341.67s-1.25.16,1.25,0l2.5-.16c4-.25,2.5.14,5-.3s.5.45,3.75,0-.5-.2,3.25-.45,2.5.5,3.75-.25,3-1.39,1.25-4.19l-1.75-2.81a2.37,2.37,0,0,0-2.75-.75c-2,.5.25-2.5-2,.5s-.75,2.75-2.25,3-1.75-.14-4,.06-3.53-.43-4.89.51S71.65,341.67,71.65,341.67Z"/>
        <path class="cls-1" d="M98.71,343.71l1.94.83v2.22c2,1.5,2.44,2,4.1,2h1.9l2.25-.5s2,0-1.12-2-2.88,0-3.13-2,.25-.5-.25-2,3.2-2.25-.28-2.25-1-.5-3.47,0-3.25,1.39-4,1.2,0-2.45-.75-.2l-.75,2.25Z"/>
        <path class="cls-1" d="M139,358.26l1.15-3,1.13-2.65-1.18-1.56s.53,1.47-1.22,0-2-3-3-2.27-1.5,1.74-3.25,2.24-.5.74-1.75.74h-1.25l-2.15.25s2.05,1.56,2.73,1.53-.82.22.68.22h1.75s2.25-1.42,3-.21-.05-1.74,1.66,1.48Z"/>
        <path class="cls-1" d="M151.65,317s.39,1,1.7-1.25-.2-1.5,1.3-2.25,1-1,2.75-1,.75-1.5,3,0,1.94,2.05,3.72,2a6.44,6.44,0,0,0,3.21-1s1.69-.58,0-1.67,1.81,1.42-1.69-1.08l-3.5-2.5s-.31-.25-2.66,0,.66-1.25-2.34.25-.36,1.35-3.8,2-5.5,4.7-5.5,4.7c-1.19,1-.44-.5-1.19,1S151.65,317,151.65,317Z"/>
        <path class="cls-1" d="M113.65,287.14s2.89,1.62,3.32,2.37-1.32-1.5.43.75-.25,1.5,1.75,2.25a9.54,9.54,0,0,1,2.57,1.06c1.18.69-.57.44,1.18.69a25.94,25.94,0,0,0,4.6,0l2.35-2.25s-.61-.75,1.22-2.25l1.83-1.5s.25.51,1.5-1.12a19.8,19.8,0,0,1,2.91-3.13,13.81,13.81,0,0,1,1.59-1.23s.5,0,0-1.27-1.06.8.22-1.48a35,35,0,0,1,2.15-3.44s1.3-1.51-1.16-1.42-2.29-.09-3.63,0-3.33,2.34-3.33,3.09,1.5-.45,0,1.77l-1.5,2.23s-1.11,2.5-1.81,2.5,2.06-1.75-.69,0-3,2.38-3,2.38a2.41,2.41,0,0,1-3,0L121.4,286s0-1.5-2-1.25l-2,.25-2.25-.25s-1.5-1-1.5,0Z"/>
        <path class="cls-1" d="M49.65,251.11s.67,1.78,1.83,1.84,2.18-1.19,2.42,1.56-1.49,2.75,0,3.75-.51-1,1.49,1,.4.25,2.75,3.75,3.77,2.17,5,3.58-.47-.17,2.28,0a19.58,19.58,0,0,0,3.93,0c1.57-.08,3.07,0,3.07,0s0-1.08-2-3.33a2.86,2.86,0,0,1,0-4.11s-.86,2.14,1,0L73.15,257h0c-2-1-1-.33-2.76.46a11.8,11.8,0,0,0-2.74,1.68.93.93,0,0,1-.75,1.36c-1.25.25-.75,1-3,.25L61.65,260s-.5.28-1-.86l-.5-1.14-.25-1.31s.25-.59-.25-3.27l-.5-2.67h0s-2.75-2,.5-1.25,4.25,0,4.25,0a2.15,2.15,0,0,0,1.5-2.29c0-2-.25-3.25-1.5-3.48s.75-1.73-1.25-.23a9.23,9.23,0,0,1-3.25,1.75,6.4,6.4,0,0,1-3.5-1.06l-2-1.19s1.52-1.12-.86,1.19-3.89,2-3.39,3,1.75.29.5,1-.25-.75-1.25.75A1.33,1.33,0,0,0,49.65,251.11Z"/>
        <path class="cls-1" d="M82.24,250.93l1.69,1.93s-.31-1.11,2-.88a14.32,14.32,0,0,0,3.48,0l1.28.94v-2.19s-1.75-2.08,0-3.54l1.75-1.46a5.81,5.81,0,0,0-3-3.42l-2.22-.83s-.53-1-1.27.25-2,3.75-2,3.75a1.32,1.32,0,0,0-1.69.5c-.59,1-.59-.5-.59,1A21.82,21.82,0,0,0,82.24,250.93Z"/>
        <path class="cls-1" d="M87,284.76l-.48,2.38a1.14,1.14,0,0,0-.66,1.37c.27,1,.52-1.25.27,1s3,.75-.25,2.25l-3.25,1.5s-1.32.47-.41,1.11-.78.64,1.69,1.39,2.63-.25,3.43,0l.8.25a8,8,0,0,1,1.22-2.44c1-1.56.78-.06,1-1.56a10.37,10.37,0,0,0,0-3s1.22-1,.11-1.87S87,284.76,87,284.76Z"/>
        <path class="cls-1" d="M96.95,297.35s-1.65,1-.15,1.2-.32-2.52,1.43.23a11.14,11.14,0,0,1,1.71,5.55l1.73-.32a2.16,2.16,0,0,1,3.09.31c1.4,1.68-.1,1.43,1.4,1.68l1.5.25s-.23-.25,1.89.5-1.14.75,2.11.75.75.5,3.25,0l2.5-.5,4.32-.25s-2.21-1,1.49,0,1.94,1,3.69,1,3.14.5,2.94-1a17,17,0,0,1,.38-4.21s-.57-1.21-1.32,0,1.5.46-.75,1.21-2.25.88-3.5.57,2.25-.07-1.25-.32-.75-1-3.5-.25a10,10,0,0,1-3.75.57s-.25-.47-1,.22a2.27,2.27,0,0,1-2,.22h-1.45s2.75.63-1.25-.43-4-1.19-4-1.19l-1.65-3.37h-2.1Z"/>
        <path class="cls-1" d="M241.1,379.26s1.8.74,3.55-1.75a25.36,25.36,0,0,0,1.75-2.5,38,38,0,0,1,3.75-4.51c1.75-2,3.28-2.24,3.27-2.74s1.8-3.5,0,.5.25,1.55-2.14,4.53-2.85,2.22-3,3.72-3.15.75-.15,1.5-1,.75,3,.75,1-.25,4,0a10.78,10.78,0,0,0,5.5-1.12s4.25,3.63,0,4.38-4.45.62-5.72.81.31,1.06-3.11,0-4.54-2.56-5-1.81,1.06.5-.44.75l-1.5.25-2.73.81Z"/>
        <path class="cls-1" d="M177,137.54c1.25-1.44-.06-.24,1.19-1.49a4.72,4.72,0,0,0,1.4-2.52,7,7,0,0,0,1.55-2.45c1-2.07-2-1.07,1-2.07s.5-.25,3-1,2.25,1.5,3.5-1.25,2.75-3,1.75-4.75l-1-1.75s-1.6,0,1.33-2.75,3.67-3.5,3.67-3.5,1.75-1.81,3.5-1.65,2,1.15,2.5-.35,2.5.53,0-2.11-.5-.64-2.5-2.64-.25-1-2-2-3.5-.75-3.25,1.75,2.25-1,.25,2.5-2,4.25-3.63,5.75-.12-1-1.62,1.5-.88,2.53-1.57,4.14,4.32.11-.68,1.61-4.25.25-5,1.5-1,.75-2,2.25.25.75-1.5,2.5.13-1-1.62,1.75-1.62,2.75-1.62,2.75v2.5a4.61,4.61,0,0,1,0,2.25c-.25,1.75,1.25,2.75,0,3.5l-1.25.75h0c1.25-.75.65,0,2.2-.75l1.55-.75Z"/>
        <path class="cls-1" d="M186,147.67l.72-4.83s-.56-.71,1.94-1.21,1.27-.31,2.52-.56,1.76-1.84,2.51-1.68-1.71,3.06,2,0,1.73-3.23,4.73-3.79l3-.56s.12,2.75,1.31,0,.69-.25,1.19-2.75l.5-2.5s-1.5-.5.5-1.5,1.13-1.5,3.57-2.5a14.26,14.26,0,0,1,2.43-1,19,19,0,0,1,3.75-.88c1.75-.37-.5-.12,1.75-.37a7.24,7.24,0,0,1,3.3,0c1.7.25,1.2-.76,2.45.62s2.5,2.63,2.5,2.63h5s3.25-2.75,3.75-.5-1.63,4.63-2.07,4.82-.93-.93-1.68,0-.51,2-2.38,1.47L227.4,132s-.25-.42-1.25.54-.25,1.32-2.75,3a10.48,10.48,0,0,1-4,1.88s-2.06,0-1-1.95-.22,0,1-2,1.75,1.25,1.25-2l-.5-3.25A2.47,2.47,0,0,0,218,128c-1.06.5-.06-.5-2.31.75s1-.5-2.25,1.25l-3.25,1.75-1.25,2.5s.19-.75-2,0a3.47,3.47,0,0,0-2.19,3.19c-1.31.06-3.24,0-3.24,0l-3.07,1.31-2.73,2.5c-1.52,1.5,1,.75-1.52,1.5s-3.75-.17-3.75-.17l-.75,1.92Z"/>
        <path class="cls-1" d="M146.65,112l-1.39-1.62L141.63,107l6.22-3.25c1.06-1.25.3-5.07,2.3-2s.75,2.54,2,3,.47-1.5,1.86-2.25,2.14-2.65,3.39-3.33S157,96.57,159.07,97s2.62-1.37,3.1,1.18a5.62,5.62,0,0,1-2.68,5.54c-1.34.75-1.34-1-1.34.75s-3.75-1.5,0,1.75,3.7,4.75,4.1,5.75,1.6,4.25,1.87,4.25,1.28-1.75.28,0-.25,1-3.25,0-2.5,1.75-3-1,1.75.25-.5-2.75-.5-2.75-2.25-3,.5-.5-1.75-.25-3.87,1.28-4.42.64-2.58-2.83-2.58-2.83Z"/>
        <path class="cls-1" d="M278,140.88l3.92-1.47s-.53-2.13,1.47-1.38,2.21.57,3.35,1.28,1.63-.8,2.63,1.45l1,2.25s-2.5,4.5,0,1.25l2.5-3.25,3.27-3s0-.5-1.28-1.25a17.91,17.91,0,0,0-2.59-1.54c-.66-.21,1.09.29-.66-.21s-1.21-.75-3.48-.75,1,.5-2.27,0-.87-2.5-3.12-.5-2.12.25-2.12,2v2Z"/>
        <path class="cls-1" d="M280.53,127.76l1.81,2,1.53,1.32s.37.57,1.94,0-.92-1.57,1.58-.57,2,1.08,3.5,2-1.75.71,1.5,1,1,.25,3.25.25h2s1-.27,2.25,1.74-.88,1.82,1.06,3.67,3.54,3.51,3.62,3.43-.07-.58,0,1.17,0,.83,0,3.42,0,2,0,3.91-1.2-1.08,0,1.92.6,4.25,2,4.5,1,5,1.45.25.5-3,.5-4.75a4.19,4.19,0,0,1,2.25-3.5c.75-.25-1.75-3,.75-.25s.5,2,2.5,2.75,1,3.5,2,.75,2-2.42,1.61-5.08.64-1.17-.36-2.67-1,.67-2.5-2.42-1.7-1.08-2.85-4.58,3.35-2-1.15-3.5-5.65-3.62-6.32-3.43,1.07-.07-2.43-1.07-1-.5-3.5-1-5.25-1.25-5.25-1.25,0,1-2.25,0,0-1-2.25-1S280.53,127.76,280.53,127.76Z"/>
        <path class="cls-1" d="M317.51,96.92s-1,1.28,2.76,2.9,2.06.41,3.81,1.66,0-1.36,1.78,1.14a26.17,26.17,0,0,1,2,3.14h3.75c0-1.75-.75-4.09-2.25-4.42l-1.5-.33s.25-1.25-2-2.25a24.6,24.6,0,0,1-3.1-1.72C322.15,96.76,317.51,96.92,317.51,96.92Z"/>
        <path class="cls-1" d="M104.13,39.17a18.5,18.5,0,0,1,2.71-2.26c1.81-1.28.56-.85,1.81-1.35s2.5-.53,3.25-1.53-1.25-1.27.75-1,1.75.82,2.75,2.91,2.25,3.42,3.25,3-.2-.77.77-3,1.23-2,1.23-3.35V29.76s-1.45-4.47-1.23-6.24.52-.51,0-3.51-1-2.06-.77-5.65.55-4.82.77-7.59,1.77-2,0-4,1.23-3.5-3.52-2.37-2.5-1.13-4.75,1.12S106.53,5,106.84,6.77s-1.17-.51.94,2.74,3.12,1.94,3.12,4.85,1.25-.6,0,2.9-.08,3.75-1.16,5.25-1.32-.93-2,2.91-1.26,2.84-.94,5.84S104.13,39.17,104.13,39.17Z"/>
        <path class="cls-1" d="M201.48,86.26c1.68-2-1.32,0,1.68-2s1.5-1.5,3-2,2.13-2.25,4.32,0,.75,2.25,3.72,2a10.72,10.72,0,0,0,3.78-.9l.69-.1s1.87-3.34-.69-3.3-.56,0-2.56,0,0,2.41-3.25,0-2.5-1.45-4.25-2.2L206.15,77l.5-2.65s.87-2.4-1.94,0-.31,1.4-2.81,2.4-2.5-1.25-4,1-1.42,1.75-1.34,3.5,2.09-1.5.09,1.75-2.25,4.49-3,4.75,3.75,1.25,4.25,1S201.48,86.26,201.48,86.26Z"/>
        <path class="cls-1" d="M479.9,280s2.9-.5,2.82,0-1.32-2.5,1.18,0,2.25-1.16,4.75,2.67,1.25,2.83,3.5,4.08,5,1.25,4.86,1.75-1.36,1,1.14,0,1.25-.49,3.5-1.37,3.25-1.23,3.25-1.23c-3.25-.41,0-1.66-3.25-.41s-1.75,1.25-3.25,1.25-1.75,1.5-2.75,0-3.25-4.08-3.25-4.08,1.5-.17,0-1.92.5.5-1.5-1.75-.75-3.18-2.75-3.84-5.44-1.41-5.34-1.91,2.34-2,.09-.5-2-.75-2.25,1.5-.75,0-.25,2.25A4.28,4.28,0,0,1,479.9,280Z"/>
        <path class="cls-1" d="M406.65,404.76s-3.62,3.31-4.37,3.15-1.69-2.59-1.94,0-1,.34-.22,2.59.77.75.77,4.75-1.49,5,0,6a24.73,24.73,0,0,1,2.47,1.75c1.29,1,2.54-.75,3.54,1.75s2.25,1.47,2.5,3.74-1.25,1.76.25,2.26,2.25,2.75,2.25,0,.75-3.66,0-5,.5.45-2-3.3-4.24-2.91-3.87-4.08-.37.08,0-2.92-2.12-2.5,0-4-.47-.75,1.7-2.5a4.42,4.42,0,0,0,1.92-4.25v-1Z"/>
        <path class="cls-1" d="M370.4,360.76s-.62,1.5,1.81,3.37,1.69,1.63,4.19,3.38,3,.45,3.75,3.1-1.75,3.4,0,5.65,1.75,3.78,2.5,4.39-.75-.89.75.61,4.71,2,3.48-.61-.23-1.15-1.23-3.14-1-3-1.75-5.87-.75-3.72-.5-5.42a11.29,11.29,0,0,1,.25-1.7,28.41,28.41,0,0,1,1.5-5.47,16.68,16.68,0,0,0,.25-4c0-1.77,2.25-2,0-4.27s-.25-1.5-2.25-2.25.25-2-2-.75-.5.75-4.75,1.5-3-.5-4.25.75-1.89.33-1.82,3.54,1.88,8,1.88,8Z"/>
        <path class="cls-1" d="M176.65,57.76v-4s-.25.5,1.5,0-.75.5,1.75-.5,4.64-1.07,4.32-2a5.25,5.25,0,0,1,0-2.38,2.1,2.1,0,0,1-1.6,0c-1-.33-.41.33-2.21,0s.08.39-2.92-.1a13,13,0,0,0-4.87,0v2s2.25-2,0,2.39-4.5,1.11-2.25,4.36,2.15,2.9,4.2,3.45l2.05.55Z"/>
        <path class="cls-1" d="M204.72,29.26s-3.1,3.7-3.08,3.35-1.48-1.35-1.48-1.35c-2.5,1.25-4.5,1-2.25,2.75s1.65,1,3.57,2.48,1.43-.23,1.93,1.52-2,.25.5,1.75a12.52,12.52,0,0,0,4,1.73s-.25-.69,1.5.29,3-.56,2.5-1.66.5,1.89-.5-1.11l-1-3s-1.5,1.08-2-.33a20.06,20.06,0,0,0-1.5-3.07l.75-2.35Z"/>
      </g>
    </g>
  </g>
</svg>
