<svg xmlns="http://www.w3.org/2000/svg" viewBox="0 0 1009.61 761.74">
  <defs>
    <style>
      .cls-1 {
        fill: #3d8489;
      }
    </style>
  </defs>
  <title>U_07_Blue</title>
  <g id="Layer_2" data-name="Layer 2">
    <g id="Universe_-_Page" data-name="Universe - Page">
      <g id="_01" data-name="01">
        <path class="cls-1" d="M5.5,213.52l8.25,4.58s2.75,6.83,3,7.58-2.25,7.54-2.25,7.54-6.25,2-7.75,2-6.5-1.74-6.5-2.49S1,230,.25,228s.5-7.16,0-8.66,2-5.83,2-5.83Z"/>
        <path class="cls-1" d="M20.25,288.77s6.75,5.75,8.5,5.25,4.25-.25,7-1.25,3.25-.5,5-2.5A22.79,22.79,0,0,0,44.5,285c1-2-.5-3.25,0-6s2.5-2-1.25-6-2-2.75-5-5.5-3.27-2-5.38-4.25S27.75,261,27.5,257s-2.5-2,.25-6.25,2.5-5,7-5.75,2.75-1.5,6,0,6.5,5.25,8,7.25,1.75,2,2.25,5.25,3,6.5,3.25,7.25,1.25,2.75,4.25,5.75a53,53,0,0,1,6.25,8.5s1.75-1,0,4.75A43.2,43.2,0,0,0,62.5,294c-.5,4,0,5.22-.75,7s-3.25,0-3.25,5.75-2,3.75.25,8,3.75,7.5,3,7.75a8.72,8.72,0,0,1-8.25,0c-4.25-2.25-2.25-.75-6.75-4.5s0,.25-6.75-4.25-6.5-4-9.75-6.5-1.5-2-5.25-4.5-1.75-.25-4.75-5.25-3.71-1.5-3.48-6S20.25,288.77,20.25,288.77Z"/>
        <path class="cls-1" d="M142.87,471.52c2.25,1,13.31,11.25,13.31,11.25s.78-.12,3.53,2.13,6.52,6.44,9.52,8.94S174,497,176.74,500s-.25,1.73,5.75,5.48,5,3.24,10,6.49,4.75,3.5,9.5,6,2.75,2.5,6.5,3.5,5,2,5,2h-21s-16.25-7.5-17.25-7.75-6.25-3.5-9.25-6.25-1-.5-7-5.75-7-5.75-8.75-7.75-15-18.25-15-18.25.75-1.37,1.75-2.87a33.21,33.21,0,0,1,2.75-3.37Z"/>
        <path class="cls-1" d="M263.37,542.39l5.31-1.81s6.81-3.06,8.81-3.06h7s6-1.25,9.75,0,5.25,1,10.5,1S309,536.65,315.5,537s5.5,1.88,8.75,0,8.75-2.16,3.5-3.41a30.1,30.1,0,0,1-13.75-7c-4.75-4-4-1.25-7.75-7.25s-3-8.75-6.5-10.5-3.25-4.25-7,0-2.75,4.25-6,9,0,1-5.5,6.64-5.5,4.61-8.75,7.86S263.37,542.39,263.37,542.39Z"/>
        <path class="cls-1" d="M243.75,638.52s7.75,1.75,9.75,5.25,1,3.5,5.5,8,2,3.75,7.75,7.75,2,5,9.25,5.5,10.5.5,13.75,0,2.5.75,10.5.38,10-1,16,.07-1,2.2,8.75,0,9.5-.7,12.75-4.95S340,658,342.5,654s3.25-4.75,5-9.25,5.5-6,3-9-1.25-3.5-7-6.25-3.25-4.25-11.75-4.5-2-.5-12,0-9,2.25-17,1-7.25,1-12.5-2.75-4-2.5-10-6.25-3.25-2-7.25-4.5-3.25-3.75-9.62-4.75-5.87,3.5-13.13-2.25,2,1.25-13-9.75-14.5-12.25-17.5-12.25-6-.25-8,3.25-3.25,0-3.5,6.5-1.5,6.25,5.25,11.75,5.25,3.5,10.5,9.25,4.5,5.2,9.25,10.85,4.25,4.9,6.5,8.4A24.47,24.47,0,0,0,243.75,638.52Z"/>
        <path class="cls-1" d="M430.75,690.27a31.46,31.46,0,0,0,5.5,1.5c.75,0,2,.75,2-1.5s4-1.5-1.25-5.25-6.25-5-6.25-5-3-1-1.5,2.5,3,4.75,2.25,6.25Z"/>
        <path class="cls-1" d="M432.62,668.89c-1,0-1.69.31-2.44.06s-3.56,0-1.39,2.28,2.81,3.52,3.81,4.52a15.26,15.26,0,0,0,2.89,2v-3.25Z"/>
        <path class="cls-1" d="M460.25,629.77c.25,1.25,2.25,4.75,3.75,8.75s.75,4.5,5,7,3,3.75,6.75,3.25,5.5,3,7.25-2.5,1.25-3.25,2.25-8.75-4.25-.25,1-5.5,7-6,9.25-10,3.5-.75,3-7.75,1-6.75-1.75-10.25-.5-2.25-6-7.5l-5.5-5.25s1.75-3-3.5,2.75-4,5.75-8,8.75-5.5,3-7.25,5-4,4-3.25,5S460.25,629.77,460.25,629.77Z"/>
        <path class="cls-1" d="M658.62,566.53s-5.69,6.24-5.69,8.49-2.47,3,0,6,3.27,4,4,5.51,1.77,4,1.77,4h.75s2.25.5,5.25-1.75,1.5-1.25,4.25-3.75,3.25-1.5,3-4.75.75-4.25-1-7-.75-2.5-2.75-5.25a26.86,26.86,0,0,0-3.75-4.25Z"/>
        <path class="cls-1" d="M656.75,593.52s-1.8-1.75-4.9,3.75-6.35,3-3.35,8,6.2,2.75,3.35,8,1,2-4.54,8-7.06,7.5-9.31,11.25-.75,1-4,6.5-4.25,6-5.25,10.39-.5,2.11-1.5,8.86,1,5.5,0,12.25-1.08,4-.29,9.37-1,4.38,3,9.63,1,4.25,6.5,8.75,3.75,4.25,7,6,3.75,4.25,6.25,1.75,3.95,2.25,2.1-7,.65-2.5-2.85-11.75-6-7.25-4.25-16,0-8.5,3.5-14,3.25-6.75,6-11.25-2.75.25,2.5-6.25,5.5,0,7.5-10,1.5-12.25,2-14,2,2.25,0-5-1.5-8.75-3.25-11A69.49,69.49,0,0,0,656.75,593.52Z"/>
        <path class="cls-1" d="M714.75,606.77s-3-2.25-4.25,2.25-2.25,6.5-4.5,8.25.25-1.14-3.25,2.68-4,6.82-4,7.57-5.25,2,3,0,5,.25,9.75-3.5,6.5-3.5,6.5-5.25,1.25-1.75,0-4.5S714.75,606.77,714.75,606.77Z"/>
        <path class="cls-1" d="M744,560s-.75.75,0,4.75,4,2,1.5,7.25-1,3-4.25,7-6,4.75-5.75,8.75-.75,3.75,2.5,8.5,4.75,3,4,8.25-4.34,4-1,8.25-.85,1.25,5.47,8.5,5.82,4,7.57,8.5-.25,1.25,2.75,6.75,4.75,8,5.5,11.75-.75,1.5,0,6.25-3.32,2.75.22,7.25,2.53,4.75,5.28,7.5,2,3.5,5.25,4.25,3.75,4.75,5.75-1.5,6.25-2.75,2.25-12-3.5-10.5-7.25-17-.25,3-6.5-9.75-6.11-17-8.18-25.25-1.07-7.25-4.32-9.75-3.5-1.56-5.5-7.78-2-4.22-2.25-9.22,3.75-12.75,4.5-13.5.5,1,.75-.75,1-4.25.25-7-1.5-4.5-3-4.5S744,560,744,560Z"/>
        <path class="cls-1" d="M947,759.77a28.92,28.92,0,0,0,2.75-3.5c1.75-2.5,1.5,1,2.75-4.75s0-.5,2-10.5-.75-7.25,2.5-12.5-.25-4,7.25-8.25,6.25-5.5,11.75-5,6.25.25,6.25,5,1.25,3.25,0,8.75-1.14,7.25.56,9.5,3.44,2.5,3.44,6.75-.5,6.5-1.75,8-1.5,1.25-4.25,3-5.75,2.25-7.5,3.5-1.5,1-6.12,1.5-7.87.75-11.87,0S949,759,947,759.77Z"/>
        <path class="cls-1" d="M980,451.52c0,.75.75,5.75,0,9.25s.5-1-2,5.75-4.5,6.5-4.25,12.5-4.25,5.75,2,10.75,9.75,5.5,14.5,9.5,5.25,2.75,7,7,0,6.25,1.75,8.75,1.75,5.5,4.75,2.25,4.75,1.25,4.75-5.75,2.5-2.25,0-12.5-8.25-15.5-9-18.25.25-1.25-2-7.5-1.5-7.5-4.75-12.5-2.75-4.75-4.25-6.5S980,451.52,980,451.52Z"/>
        <path class="cls-1" d="M901.25,318.52s-7.75-.75-5,4.25,1.75,1,5,7.25-.75,9.5,3.5,9.25-1,5,4.25-.25,8-4,6.25-7.75,0-2-3.75-5.5-1.5-1.75-3.75-3.5A44.22,44.22,0,0,0,901.25,318.52Z"/>
        <path class="cls-1" d="M733,389.52c-2,2.25-6.25,0-4,4.5s0,5.75,4,8.75,8.75-5,6,4S735.67,418,734.08,422s-.59,6-4.34,10.5-6.25,3.25-6.25,7.75-1.25,8,2.75,7,2.75.5,6.5-3.5,4.5-.25,5.25-6.25-2.37-6.75,1.82-12.25,4.68-4,6.18-9,3-2.75,0-8-4.25-7.75-4.25-8.75,4-.25,2.25-3.25-1.25-3.5-3.5-4.25,1.25,0-2.25-.75A19.94,19.94,0,0,1,733,389.52Z"/>
        <path class="cls-1" d="M749.5,394.77l-3,2s-5-1,0,3.5,1,1.25,5,4.5.75,8.5,4,3.25,5.5-1.75,3.25-5.25-1.75-3.5-3.5-5A25.24,25.24,0,0,0,749.5,394.77Z"/>
        <path class="cls-1" d="M957,39s-.5,5.25,5,4.25,6.25-.37,8.25-2.06,3.75-6.69,4-2.19,1.25,3.75-3.25,7.75S964.5,52,963.75,52s-2.75.75-4.25-1.75-3.27-3-2.51-3.75S957,39,957,39Z"/>
        <path class="cls-1" d="M756.75,215.52a36.52,36.52,0,0,0-4.78,4.75c-3,3.25-4.24,4.5-4.24,4.5s-6-4.25-1.73,0,1.69,8.5,6,4.25,3.28-.5,4.28-4.25,0-3.25.5-5.25A9.29,9.29,0,0,0,756.75,215.52Z"/>
        <path class="cls-1" d="M788.25,249.77s-3.5,1-3,3.5.2,3.75,1.48,5.25-1.48,4.5,1.52,2.75,4.75-4.47,4-5.48-3.62-1.52-3.44-2.27A15.89,15.89,0,0,0,788.25,249.77Z"/>
        <path class="cls-1" d="M700,263.52c-2,2.25-4.5,1-3.5,4.75s2,4.25,3.5,5,.75,2.25,1.5.75-.5-1.5,0-3S700,263.52,700,263.52Z"/>
        <path class="cls-1" d="M390.25,7c-3.25,1.75-13,.5-19.25,6.75s-5.25,1.75-8.5,9.25-1.25-.25-4,11.25-4,15-6.5,24.5-.25,5-4.5,13.75-6.5,13.75-7.25,15.25-3.5,4-11.5,6.5-3.75-1.75-10.25,4-5.75,1.75-9.75,9.25-8.75,5.75-6.25,13,.75,4.5,4.75,10-.25,5,6.75,8,1.5,2.5,10.75,5.5,5.5,6.25,11,3a80.53,80.53,0,0,0,8.5-5.25c6.75-4.5,4.25,0,10.5-10s9.5-3.25,10-15.75,1.75-3.25.5-14.5-5.75-9-1.75-19.5,1.25-5.25,6.75-16.5-.75-7.25,7.75-15.75,8-7,12.25-11.5S392,38,397,31.52s8.25-3.25,6.5-14-4.25-15.25-4.75-16,1.75-3-1.75,0S390.25,7,390.25,7Z"/>
        <path class="cls-1" d="M534,150.77c1-.75,7.5-1.75,13.25-6.5s-.75-4,9.75-7.25,7.5-5.75,16-2.75,7,3,17,5,8.25,1.5,15.75,5.75,8.5,1.75,10,5.75-1.25,4.5,4.75,10.25,2.5.75,8.5,7.5,4.25,7.5,9.25,10,6.25,3.25,13.5,2.5-3.75-.5,13.75-2,18.75.25,29,.5,1-.5,12.25,0,16.13-6.25,16.57,3,4.18,8.75-1.57,10.75,3.25,3.5-9.25,4-4.5-1-18.25-1.75-8.5-3.5-23.5-4.25-10-2.5-21-.75-3.25,5.25-15.75.5-5.25-4.25-20.75-9.75-11.25-4-23-9.75-11.25-8.5-22-9.5-9,.5-19,1.5-5.25,7-12,1.63-8.75-6.63-8.75-8.13,3.75-5.25,3.75-5.25Z"/>
        <path class="cls-1" d="M286.25,204c-4,4.25-6.75,5.75-9.75,12s-3.5,6-3,12.75,1.75,8.5-1.5,14.25-5.25,2.75-5.5,9.5-.25,1.75,0,11-1.25,8.5,2.25,14,2,1.5,5.75,8-.5,3.75,4,9.5,3,5,9.25,9-2.25,5.25,8.5,4.5,7-5.34,13,.21,5.25,3.54,8.25,8.79.75,7.75,5.25,6.25,6.25,3.5,7.75-4,7.5-3,0-14.5-5.25-7-10.5-16.25-5.75-10.5-8.25-14.25-.75-2-5.75-8.5-6.75-6.75-8-12-1.75-3.5-1.75-6.75.5,3.25-1.5-7.75-2.5-17.75-3.25-19.5-5.25.75-.75-5.5,5-6.5,5.25-8,1.25-2-.5-2.75S286.25,204,286.25,204Z"/>
        <path class="cls-1" d="M252.75,414.27s5.5,0,7.75,1.25a50.11,50.11,0,0,1,5.81,3.5c.44.5,2.94-.5,8.19,4.75s6.5,6.25,8,8,3.25,4.25,4.75,5.75-1.5,4.75,6.25,3.75,5.5,0,10-1.75,5.5-2.5,6.25-2.5,4.25-.75,12.5.5S333.5,438,339,436s2.5-1.25,9-3.25,3.25-6.75,10.5-2.5,7.75,1,8.5,7,4.5,4,0,9.5-1.75,7.5-13.25,9.5-13.5,0-16,3.25,1.63,3-3.56,8-5.19,11.25-8.44,5.5-2.5-4.75-4.75-11.25,6-11.5-4.5-10-6.5,3.75-15,4.5-10.75,1-17.25-2.5-8-5.75-16.5-10.5-8.25-3.5-13.5-9-7-5.5-7-9.5,2.75-6.75,4-6.75S252.75,414.27,252.75,414.27Z"/>
        <path class="cls-1" d="M583.75,375.27A38.62,38.62,0,0,0,588,381c2.5,2.75.75-2.75,5.5,6.5s3,6.23,5.25,15,3.25,7.51,4.5,12.76.75,4.75,1.5,12.25,3.75,6.84-1.25,19.92-4.75,10.58-6.25,17.83.5,9.75-3.5,17a92.2,92.2,0,0,0-7.75,19c-1.75,5.75-1.75,6.75-4.25,11.25s-1.25.75-4,7-3.25,5.75-4.75,10.25-5,7.25-1.5,4.5,4-3.25,4.5-4-1.75,3.5,3.75-5.5,3.75-3.75,7.25-12,.25-5.75,5.75-12-.5-.5,7.25-9,4.25-.5,10.25-11.25,5.75-8.5,7-14,3.25-.25,3.25-14.5,3.5-3.75,0-17.5,0-12-3.75-29,.5-5.5-7-21.5-3.5-15.5-9.5-21.75S598,359,592.5,354s-4.5-6-7.25-6.75-4-5-4.75-1.25-1.5,2.75-.75,7.5-.25,2.5,2.25,8S583.75,375.27,583.75,375.27Z"/>
        <path class="cls-1" d="M439.5,169c2-1.75,1-1.75,4-3.87s1.5-4.88,5-2.63,5.5,6,6.75,6.5.25,1.25,2,3.5-.5,0,1.75,2.25.75-1,2.25,2.25,1,5.75-3.25,3.5-4.48-2-7.24-3.75,0-3.25-5.51-3.25-6-1.23-8.5-2S439.5,169,439.5,169Z"/>
        <path class="cls-1" d="M179.5,126c-1,1.25,1,1.75-2.25,2.75s-5.75,0-5.75,2.25-3,2.5,0,4.75,4.75,3.25,6.25,2.75,2.5,3.25,1.5-.5-1.25-1.5-1-3.75S179.5,126,179.5,126Z"/>
        <path class="cls-1" d="M284.5,331.52s-3.5.25-2.25,3-2.5,7,4.25,6,1.75-1.25,6.75-1,7,2,6,1.15.55-6.4-2.6-6.4-1.4.75-4.65-.75A29.15,29.15,0,0,0,284.5,331.52Z"/>
        <path class="cls-1" d="M306,380a36.54,36.54,0,0,0,2.21,9.5c1,2.25-1,.5,1.79,4.75s.75,7.5,6,6.25,6.25,1.5,7-2.25,3-1,0-6.25-.75-3.5-4.5-6.25-2.75-2.75-5-5.75-3.32-6-5.29-7.5-.46-2.75-2.21-2.25-2,1-2.75,4.25S306,380,306,380Z"/>
      </g>
    </g>
  </g>
</svg>
