<svg xmlns="http://www.w3.org/2000/svg" viewBox="0 0 1012.51 754.26">
  <defs>
    <style>
      .cls-1 {
        fill: #d9feff;
      }
    </style>
  </defs>
  <title>U_08_stars_02</title>
  <g id="Layer_2" data-name="Layer 2">
    <g id="Universe_-_Page" data-name="Universe - Page">
      <g id="_04" data-name="04">
        <path class="cls-1" d="M156.42,495.18l2.08,5.14s1.38-1.76,2.71.51-.65,1.27,1.35,2.27,2.34,1.89,4,2.11.34.11,3.67,1.66-.33-.11,3.34,1.56a25.72,25.72,0,0,1,5,2.8c2,1.2,2.33,1.87,5.33,3.2s.33-1,3,1.33,2.33,1.21,4.33,3.27-3.33.73,2,2.06,6.67.33,7.67,1.17-.33.38,3,.78,5.67,1.61,4.67,0,1.33-4.06-2.33-4-1.33,1.06-3.67.06.67,0-3.67-1.67-3.67-4.66-6-4.66,1,2.33-2.33,0,1,1.67-3.33-2.33-3.1-3.11-4.55-5.22-1.78-4-2.78-4.38,0,3-3-.51-.33-1.56-3-3.56.33,0-2.67-2-1,0-3-2l-2-2h-5Z"/>
        <path class="cls-1" d="M32.88,246.51a10.52,10.52,0,0,0,2.75,1.13s-.87.75,1.25,0,2.5-1.25,2.88-1.12.88,1.63.88,2.13-1.12.75,0,1.25-.37-.5,1.13.5.5.25,2.25,1.5,1.75,1.5,2.5,1.5-.37-.5.75,0,1.75.5,1.13,1.75.25-.12-.62,1.25-1.75-.25-.87,1.38,1.37,1.38,1.75,2.5-.38.25,0,1.75A6,6,0,0,0,50,264.76c.38.38,1.25.5,2,1.25s.25.13,1.38,1.13.38.38,1.88,1.25.5.13,2.38,1.25,2.13,1,3,1.63,1.75.75,1.75,1.5.75.75,0,1.75.38,2.25-2.37,0-1.5-1.25-2.75-2.25-9.46-3.37-9.46-3.37.83.75-.67,0-1.25-.62-1.87-1.37-.37-.37-1.25-1.37-.37-.12-.87-1-.12-.12-1.25-1.37-.25-.51-2-2.63-1.75-2.87-3.12-4L35.38,256a7.28,7.28,0,0,1-1.37-.87c-.37-.37.5.75-1.12-1.5s-1.75-1.62-2-3.25S32.88,246.51,32.88,246.51Z"/>
        <path class="cls-1" d="M1.5,224.64c.88-.37-1-.37.88-.37s1-.75,2.88,1,1.75,2.13,2.63,2,2.5-.26,1.38-1.57S8,225.07,7.63,224.1s-1.75-1.47-.37-1.84,1.89-.12,2.38-.62,1.13.13,0-1.62,1-.75-1.13-1.75S7,217,5.88,217s-1.51-.75-1.88,0,.38-1.75-.37.75,1,1.75-.75,2.5-1-.5-1.75.75S0,222,0,223.14,1.5,224.64,1.5,224.64Z"/>
        <path class="cls-1" d="M314.63,530.51a3.15,3.15,0,0,1,.88,1.38c.38,1-.37.63.38,1s.75,0,1.88-1.19-.12-1.44,1.13-1.19-.25.3,1.75,1.21.5,1.41,2,.91,1.5-.07,1.88-.91,1-1.09,0-2.34-.25-1-1-1.25.25.38-1.25,0-1.87-1-1.87-1,.79.38-.54-.62-.58-3.75-2-1.12A22.43,22.43,0,0,1,316.5,528c-.5.75.25.5-.5.75S314.63,530.51,314.63,530.51Z"/>
        <path class="cls-1" d="M253,629.39a7.84,7.84,0,0,0,1.5,2.38c.88,1-.5.13,1.75,1.38s1.75-1.12,2.75,2,.88,3.88,1.13,4.5,1.88-1.12.25.63-1,4-2.62,1.75.25-.5-1.75-3-2.12-1.5-2.37-3.37l-.25-1.87a2.45,2.45,0,0,1-1.25-.87c-.62-.75-1.5-1-.75-1.87A17.14,17.14,0,0,1,253,629.39Z"/>
        <path class="cls-1" d="M485.71,598.14s1.17-1.62-1.46,1.38-1.75,2.25-3.37,4-2.87.88-1.75,2.88,1.25.75,1.63,3.13,1.88.5.38,3.13-3.24,2.25-2.43,3.63a11.87,11.87,0,0,0,1.81,3c1.5,1.88,1.36,2.25,2,2.25s.38,2.5,2,0,1.13-1.83,2.38-3.73,2.88-.65,1.38-3.52-1.87-3.7-1.87-4.1-.37.48.13-1.77.5-1.5.5-3.12,0-2.62-.37-3.12-.92.75-.92-1.62,1.42-1.5,1.42-1.5Z"/>
        <path class="cls-1" d="M665.38,564.76c.67.22-1.62-1.25,1,2s1.88,2.25,3.25,3.88,2.72,2.13,2.3,2.75.2.38-1.42,2.38-2-.12-1.62,2,1.5,1.63,1.38,3,0,1.13-.87,2.25a12.9,12.9,0,0,1-1.62,2.13c-1.75,2-.18,2.25-2.72,2.38s-1.91.13-2.53.13-3.37,1.88-3.75,0,2.75-.62,0-3.37-2.25-1.87-2.75-2.75-1.12-.62,0-2.5a23.45,23.45,0,0,1,2.25-3c1.38-1.87,1.68-.62,2.34-2.5s.41-1.87,1-2.62.63.63,1.38-1.37a11.34,11.34,0,0,1,.75-2C664.25,566.51,664.63,564.51,665.38,564.76Z"/>
        <path class="cls-1" d="M683.5,726l-2,1.25s.13-.37,0,1.13-.87.75,0,2.13.88,1.75,2,1.88-1.75.88,1.13.13,3.25,0,3.5-1.25-.25-2.12,0-2.87,1.13.25.25-.75-1.5-1-2-1.62S683.5,726,683.5,726Z"/>
        <path class="cls-1" d="M651.5,708.39c-1.12.38-1.75.25-2,1s.38.63,0,1.5-.87,1.5-.06,1.75,1.56,0,2.06.63-.25.25.5.63,1,1.25,1.88,0,.5.25.88-1.25.75-1.25,0-2.37-.87-2-1.25-1.87A10.48,10.48,0,0,1,651.5,708.39Z"/>
        <path class="cls-1" d="M753,617.64s-.37-1-1.12,1-1.12,1.75-1.12,2.88-1,1.5,0,1.88,3.75-3,4-3-.12,1.13.25,0,1-.25.38-1.12A7,7,0,0,0,753,617.64Z"/>
        <path class="cls-1" d="M741.25,631.76s.13.88-1.25,1.88-.37.44-1.37,1.06-1.75-.72-1.62,1.16.25,2.27.88,2.64-1.26,2.51,1.24,0,1.76-1.37,2.51-2.5-.12.75.75-1.25,1.25-3,1.25-3Z"/>
        <path class="cls-1" d="M774.94,712.89s1.44.88-.94.88h-2.75s-2.12-1.37-2.5,0-1.75.75,0,2.13-1.37-.5,1.75,1.38.75,1.13,3.13,1.88,2.13,2.25,3.25.63,2.5-.62,1.13-2.25A37.84,37.84,0,0,1,774.94,712.89Z"/>
        <path class="cls-1" d="M767.13,651c-1.37.38-2.12.13-2.62.88s.38-.37-.5.75a3.74,3.74,0,0,1-1.62,1.5c-1.12.75-1.12-1.5-1.12.75s-2,1.25,0,2.25,3,1,3.13,0-.62,0,.13-1,.38-1.75,1.5-1.69-.5.69,1.13.06,2.13-1.25,2.13-1.62.75-1,0-1.37A7.62,7.62,0,0,0,767.13,651Z"/>
        <path class="cls-1" d="M904.5,319.14c-1.37,1-.87-.5-2.25,1.88s-2.62,2-1.37,3.13l1.25,1.13s1,0,.88,1.25a4.26,4.26,0,0,1-.57,2.38,11.54,11.54,0,0,0-.8,1.75s-1.75-.37-.12.75.88.38,2.38,1.5,2,1.88,2.38,2,.75.75,1.5-.75.63-.87.75-1.5-2.12,0,0-1.12,1.88-.37,2.13-1.12,2.5-.37,0-2.25a32,32,0,0,1-3.25-2.75,14.72,14.72,0,0,1-1.62-1.37c-.75-.75-.62-3.87-.62-3.87Z"/>
        <path class="cls-1" d="M702,263.89a1.35,1.35,0,0,1-.5,1.43c-.75.44-.87-.76-1.25.41s.5,1.79,0,2.29-2-1-.5.5-.12,1.38,1.5,1.5,2.31,1,2.34,0,.47-.75,0-1.5.47-.28,0-1.33-.34.2-.47-1A4.26,4.26,0,0,0,702,263.89Z"/>
        <path class="cls-1" d="M657.75,193.26l-1.12-.12s.75-.5,0-1.25l-.75-.75s.38.25.94-.5.94-1.21.94-1.21l2,1.21Z"/>
        <path class="cls-1" d="M453.25,166.2a18,18,0,0,0-2.94-.69c-.19.13-.94-.69-.5.69s-.37.81.94,2,.94.13,1.31,1.19-.4.63,1,1.56a14.13,14.13,0,0,0,2.67,1.44s-.25.63.56-.44,1.19-.5,1-1.5.31-.76-.31-1.47a7.71,7.71,0,0,0-1.19-1.34A27.11,27.11,0,0,0,453.25,166.2Z"/>
        <path class="cls-1" d="M537.38,146.45s-.12-.25-1,.75-1.19.38-1.06,1.38-.62.75.38,1.56-.31,1.31,1,.81,1.63.31,2-.87.88-.5.38-1.69-.62-.31-.5-1.19-.08-.44.71-1.62.91-1.06,1.16-1.94.5-1.5,0-1.37a2.24,2.24,0,0,0-1.5,1.5c-.19.81-.06.25-.31,1.19A2.85,2.85,0,0,1,537.38,146.45Z"/>
        <path class="cls-1" d="M524.5,179.76s-1.37.38-.44,1.44a15.69,15.69,0,0,0,1.94,1.88c.44.38.31,1.38.94.5s.75-.21.63-1.73.81-.89-.12-1.52a7.57,7.57,0,0,0-1.64-.81C525.44,179.33,524.5,179.76,524.5,179.76Z"/>
        <path class="cls-1" d="M597.69,148c-.19.19-.37-1.31-.19.19s-.25,1.88.75,2.31,1.29.44,2.14.75a12.83,12.83,0,0,1,2.36.94c.56.38,1.19-.62,1.25.88a9.12,9.12,0,0,1,0,2.94c-.25,1,1.06.88-1.25,1.94s-1,1.25-3.94,1.69-2.81-.06-3.87.94a2.19,2.19,0,0,0-.56,2.88c.44,1.13-.5,1,1.19,2.44a19.56,19.56,0,0,0,2.38,1.75c.81.63-1.84,1.25,1.18.81s.64.69,3-.44,1.81,1.31,2.38-1.12-.5-1.94.88-3.19,0-.94,2.19-1.87,2.37.25,3.81-1.62,2.19-.06,1.75-2.56.31-2-1.06-3.81a37.46,37.46,0,0,0-3.87-4.56c-.94-.81,0-1.06-2.5-1.44s-1.69,0-3.75-.3-3.5-.51-3.5-.51Z"/>
        <path class="cls-1" d="M602.56,437c.5.19,1.94,1.13,2,1.5s.38-.19,0,1.25a11.8,11.8,0,0,0-.56,2.13c-.25,1.5-.63,1.06-.35,2.56s.16.44.54,2.13a8,8,0,0,0,.81,2.63c.69,1.63.81,1.88,1.38,3a12.82,12.82,0,0,0,1.38,2.25c.81,1.19.81,1.13,1.63,2.31s.69.56,1.63,2.13a23.38,23.38,0,0,1,1.56,2.81c.56,1.19,1.13,1.56,1.25,3.06s.75.81-.69,2.81-.56,1.19-2.44,2.81a19.24,19.24,0,0,0-2.38,2.44,5.76,5.76,0,0,0-1.74,2.5c-.31.94.19-.19-1.25,1.94s-2.56,2-4.56,3.25-3.62,1.63-4.5,2.31a9.94,9.94,0,0,0-1.81,1.81c-.81.94-.81.31-.69,1.4s.44,1.85,1,1.66.44.38,1.19-.81-.62-1,1.5-1.75l3-1.06c2.62-.94,1.56.06,3.43-1.25a26.33,26.33,0,0,0,2.82-2.31c1.31-1.06,1.06.31,2.13-1.87s.06-1.25,1.31-2.5-1.44,1.5,1.63-1.69,1.88-1.37,3.5-3.62,1.81-2.19,1.81-2.75.75,1.56,0-3.12-.75-5.06-1.06-5.56a5.25,5.25,0,0,1-1.5-2.25c-1.06-2.25-1.12-1.81-1.87-4.19s-1.31-3.31-1.12-4.81-.31-.56.38-1.87a18.64,18.64,0,0,0,1.69-3.06c.44-1.31,1.12-1.69.56-2.5s-.62-.69-.69-1.56-.62-.81-.06-2.12-.94,1.19.75-1.75,2.13-2.37,2.38-4.56.5-2.19-1-4.69-3.94-4.62-4.75-4.56-1.31-1.56-2,.69-.69,1.06-.69,2.94.69,2.13.13,3.13,1.31.38-1.12,1.63-2.06-.06-3,1.69-1.45,2.12-1.5,3.12S602.56,437,602.56,437Z"/>
        <path class="cls-1" d="M582.75,359.26s.5,1.69.81,3.13.38.56.44,1.94-1.25.44,0,2.44.81.38,2.56,3.19,1.56,1.25,2.19,3.81.06,1.91,1.25,3.86.63,1.58,1.75,3.14,1.5,1.56,1.94,2.94.56-.12.69,2.31a11.49,11.49,0,0,0,.75,4.07c.56,2.06.94,2.24,2.06,4.74s.52,2.19,1.51,3.63a42.2,42.2,0,0,1,2.8,4.06,9.1,9.1,0,0,0,2,2.94c1.63,1.88,1.35,1.94,2.68,3.5s1.32,2.13,2.07,2.75.19,2.22,1.19.64,2.62-.89,1.56-3.08,1.81,2.75-1.37-3.5-2.62-4.87-3.19-6.25.15-1-.89-3.06-1.73-2.06-1.73-4.37.88-2.25.25-4.94.56-2.37-3.31-6.19-4.31-2.87-5.69-5.62-1.81-3-2-4.69-.69-1.12-.31-3.87.88-2.81.25-4.5-.44-2.56-2.31-4.19-.89-1.69-3.54-2.62-3-.75-3.27,0S582.75,359.26,582.75,359.26Z"/>
        <path class="cls-1" d="M637.19,344.28c-.87,0-1.16-.46-2-.52s.21-.57-1.23,0-.75-.29-1.62,1-2.12.75-1,2,.56,2.19,1.56,1.81.63,0,1.56-.69.56-.69,1.31-1,1.94-.81,1.94-1.06.31.13,0-.25A4.57,4.57,0,0,1,637.19,344.28Z"/>
        <path class="cls-1" d="M596.25,338.45c-.25.13-1.12,1.44-1,1.69s.24-.25.49.94.26.42.26,1.62,1,1.08,1.31.61a2.48,2.48,0,0,0,.46-1.16c.22-.81-.22-1.5,0-1.69s.16,0,.06-.75S596.25,338.45,596.25,338.45Z"/>
        <path class="cls-1" d="M564.25,308.83s.56,1.94.75,2.31-.28-.06.16.38-.08,1.5,1.17,0,.8-1.31,1.62-1.75,1.43.31,1.18-.62-1.25-.5-.63-1.44a7.35,7.35,0,0,1,1.19-1.56c.94-1.06,2.37-.69,1.12-1.87s-.88-1.06-1.88-1.5-.14-.69-1.22-.75-2.34-1.19-1.4.44,1.3,1.63,1.4,2.38.72.38-.4,1.19-.62.85-1.5,1.3a5.55,5.55,0,0,0-1.56,1.32Z"/>
        <path class="cls-1" d="M481.63,269.14a2,2,0,0,0-1.25.5c-.81.56.13.06-1.31,1.06s-2.06-.06-2,1.63-.62,1.25.38,2.44.06.75,1.5,1.69a20,20,0,0,0,3.25,1.75c.25.06.06.88.81-.56a8.73,8.73,0,0,0,1.06-2.37c.81-2.19,1-2.12,1-2.81s0-.75-.31-1.12A37.59,37.59,0,0,0,481.63,269.14Z"/>
        <path class="cls-1" d="M388.25,12.64s-.25-.21.5,0,.29.63,1.21.29A8.88,8.88,0,0,0,392,12c1-.58,1-.71,1.46-.83s1.38.67,1.54.94a8.37,8.37,0,0,1,.63.94c.38.67,0-.21.38.67s1,.62.42,1.29-.75.46-.87.79-.5,0-.08.79,2.38,1.54.42.83-1.83-.83-2.79-1.21a16.41,16.41,0,0,1-1.58-.71c-.71.79-.67,1-1.21,1.33s-.29.92-1.17.42-1-.37-1.37-.79-.5-.42-.46-.88.45-.21,0-1-1.08-.75-.54-1A10.74,10.74,0,0,0,388.25,12.64Z"/>
        <path class="cls-1" d="M311.75.17s.19-.53-.37.28-.41.72-.78,1-.81.06-.41.63.68.66.71.66-.09.41.88,0,.53-.06,1-.41.59-.38.69-.63.19.06.19-.62.09-.84,0-.87S311.75.17,311.75.17Z"/>
        <path class="cls-1" d="M325.58,438.76a14.2,14.2,0,0,1,1.85,2c0,.25-.1.44.74,1.44s.5.3,2.92,2a19.43,19.43,0,0,0,3.67,2.28c.5.17,2-.49,2.5,0s.08-.66.83,1,.5,1.84,2,2.92,2.75,1.08,2.67,1.33-.58,2.08-2.17,1.5a10.76,10.76,0,0,1-1.58-.58,8.84,8.84,0,0,0-2.75-.83c-1.58-.33.33-.08-2.58-.75s-3.25-.92-3.75-.83a5.64,5.64,0,0,0-1.42.67s.28.42-1.07-.92-1.85-1.5-1.85-1.83.83.2,0-1.9a8.83,8.83,0,0,0-1.25-2.6c-.58-.92-1-.75-1.08-1.5s-.42-1.38,0-1.88.75-1.54,1-1.54Z"/>
        <path class="cls-1" d="M265.67,415.1s.17.67.58.75,0,.25.75.58.75.13,1.42.52.75.39.67,1.06.33.24-.42,1-1,.88-1.27,1,.94.17-.31.08-1-.08-1.42-.33a3.44,3.44,0,0,1-.92-.71c-.25-.29.33-.29,0-.79s-.06-.61-.06-.61S265.47,414.65,265.67,415.1Z"/>
        <path class="cls-1" d="M316.17,395.35a.48.48,0,0,0,.75,0c.42-.42.42.08,1.42,0s1.17.16,1.75-.17a8.78,8.78,0,0,0,1.75-1.33c.5-.5,1.42-.33.33-1s-1.33-1.17-1.58-1.17-2.42-.33-2.42-.33-.75-.83-1.33-.5-.83-.25-1.58,1.25a4.94,4.94,0,0,0-.58,2.67Z"/>
        <path class="cls-1" d="M284.12,336.76s-.39-.79.77-.12,1.18.35,1.51.6a1.79,1.79,0,0,1,.76,1.14c.25.75.25.73.25.73s.33.33,1.33-.67-.83-.67,1-1l1.83-.34s1.08-.93,1-.88.17.21-.33-.45-.25-.08-1.25-1.17-1-.83-1-.83h-1.75l-1.25,0a1,1,0,0,1-.42.69,5.73,5.73,0,0,1-1.25.58C284.83,335.26,284.12,336.76,284.12,336.76Z"/>
        <path class="cls-1" d="M320.92,317.43l.42.83c.58.5-.92,1.25.58.5s1.33-1.33,1.83-1.33.25.75.83,0,1.08-.58,1.08-1.58.25-1.17-.5-1.33-.17-.17-.75-.17-.63.17-1.1.42-1,1-1.73,1.5-1.58.15-1.42.45A3.35,3.35,0,0,0,320.92,317.43Z"/>
        <path class="cls-1" d="M290.67,242.68l-1.17,1.08a1.66,1.66,0,0,1-.67,0c-.25-.08-.83-1.84-.92,0s-.5,1.3-.08,1.88.23.92,1.33.83a3.78,3.78,0,0,0,1.51-.33s1.25-.07.75-1.58l-.5-1.51Z"/>
        <path class="cls-1" d="M274.25,256.18c-.25,0-1.25-.58-1.5,0a13.45,13.45,0,0,0-.5,1.58s-1.58.5,0,.58,1.42-.08,2,0,1.5.5,1.08-.33A20.81,20.81,0,0,0,274.25,256.18Z"/>
        <path class="cls-1" d="M340.83,148.93a7.19,7.19,0,0,0-1.5,1c-.5.5-.67-.83-.5.5s.19,1.83,1,1.92-.47,1.25,1,0l1.5-1.25s.92,0,.92-.58-.08-.92-.33-1S340.83,148.93,340.83,148.93Z"/>
        <path class="cls-1" d="M334.17,95.68,333,95.26s-.83.42-1,.83-1.67.08,0,1.08a24.31,24.31,0,0,0,2.17,1.17c.25.17-.75.92,1,0s1.67-.89,2.08-1.32,1.14-1.17.42-.43-1.17.43-1.17.43a10.8,10.8,0,0,0-1.9-.52Z"/>
        <path class="cls-1" d="M233.58,351.6a5.37,5.37,0,0,1-1.58.33c-.67.08.17-.5-.67.08s-1.08.17-1,.92.25,1.25.67,1.5.4.17,1,0,.38-.33.88-.5l1.25-.42s.33-.17,0-.75l-.33-.58Z"/>
        <path class="cls-1" d="M240,350.29l-1.17.81.58.5s.58-.08,0,.58l-.58.67s-1,1.25,0,.67,1.17-1,1.17-1l.92-.53s-.08.12,0-.38S240,350.29,240,350.29Z"/>
        <path class="cls-1" d="M433.5,680.68a1.16,1.16,0,0,0,0,1.25,5.45,5.45,0,0,0,1.25,1.67A3.29,3.29,0,0,0,436,684a2.79,2.79,0,0,0,.83,0c.08-.08.17-.5,0,.75s-.39,1.5.1,1.92,1.4.58,1.4,1.25a6.11,6.11,0,0,1,0,1.75c-.17.83.83.83-.17.83s-.92.92-1.58,0,0,.25-1-1.42-.42-1.67-1-2.08-1.12-.26-1.27-1.21.31-.37,0-1.7-.07-1,0-1.83A9.62,9.62,0,0,1,433.5,680.68Z"/>
        <path class="cls-1" d="M434.25,670.1l.58,2.33-.29,1a1.6,1.6,0,0,1,.29.67c.08.42.33.58-.58,0s-.52-.92-1.09-1.42-.41-.58-.66-1a9.13,9.13,0,0,1-.5-.92c-.25-.5-.75-.17-.42-1.08s.9-1,1.57-1.75a8.81,8.81,0,0,1,1.26-1.17l-.25,2.17Z"/>
        <path class="cls-1" d="M343.08,648.18s-1.31.25-1.61,1a.77.77,0,0,0-.06.37c.08,1-.51.83,0,1.58s.46.25.73,1.33.48,1,0,1.58a6.21,6.21,0,0,1-.94.83.9.9,0,0,1-.79.5c-.5,0-.17.25-.5,0s-.92-.5-.83-1-1.33.83.08-.5,1.17-1,1.42-1.33.2.28.23-.7,0-1,0-1.47,1.94-2.67,1.94-2.67Z"/>
        <path class="cls-1" d="M223.42,581.51s-1.25.42-1.33.67a9,9,0,0,1-1.08,1.25l.75,1a3.27,3.27,0,0,0,1,0c.58-.08-.08.33.67-.33s.75-1.1.75-1.1Z"/>
        <path class="cls-1" d="M245.5,534.85s.92.42.83.92.34.17,0,.92-.12,1.42-.35,1.83.35-.42-.24.42-.25,1.58-1.08.75-.33-.5-.83-.83-.58-.17-.58-.75-.5-1,0-1.08a2,2,0,0,0,.92-.5l.58-.08Z"/>
        <path class="cls-1" d="M313.25,345.76a24.87,24.87,0,0,0,2.51-1.79c.49-.5-.35.23,1-.94s1.25-1.22,2.33-2.14a13,13,0,0,1,1.83-1.4c1.42-1,.08-.91,2.42-1.74a33.17,33.17,0,0,1,4.1-1.31c1.15-.27.09-.35,2.5-.35s4.24.08,4.74-.42.25,0,.5-.5.17-1.55-.42-1.44.17-.69-1.92,0-1.31.94-2.91.94-.59-.75-3,.25a19.68,19.68,0,0,1-4.33,1.52,3.67,3.67,0,0,0-2.44,1,26.28,26.28,0,0,0-3.06,2.54,50,50,0,0,0-4.33,5.79Z"/>
        <path class="cls-1" d="M1002.17,488.43s-.33-.38-.42.42-.58.46,0,1.17.25.29,1,1.13.67.62,1,1.08a8.39,8.39,0,0,1,.79,1.33s-.92.38.38-.42a8.84,8.84,0,0,0,1.29-.79c.54-.42,1.25,0,.46-.87s-.5-.75-1-1.12-.21-.33-1-.87-1.79-1.37-1.79-1.37Z"/>
        <path class="cls-1" d="M977.46,483.43c-.33.29-1.42.88-1.42,1.08a6.93,6.93,0,1,0,.25.92c.42,1.67,1.13.67.67,2s-2,1.75-1,2.13a8.93,8.93,0,0,1,1.45.67c.29.13.54.83.33-.62s-.92-.63-.21-1.46.46-.76,1-1.15a4,4,0,0,0,1-.81c.67-.67-.33-.58.92-.87s1.83-.63,1.88-.79.21-.29-.25-.71.17-.71-.87-.79l-2.2-.17A15.38,15.38,0,0,0,977.46,483.43Z"/>
        <path class="cls-1" d="M1011,601.85a2.92,2.92,0,0,0-.92,0c-.58.08-.75,0-.87.54s-.25.5,0,1.08.54.29.33,1-.62.88,0,.92.5.71,1-.33.17-.66.67-1.31.46-.36.5-.65S1011,601.85,1011,601.85Z"/>
        <path class="cls-1" d="M1000,625.22s-1.12-.21-1.25,0-.25-.25-.21.58-.46.58.25,1.17-.5.12.71.58l1.21.46s.67.58.67-.29.25-.82,0-1.05-.21-.4-.5-.61A9.14,9.14,0,0,1,1000,625.22Z"/>
        <path class="cls-1" d="M1010,662.76s.42-.83-.79-.25-1.29.42-1.29.79.54.13,0,.88-1.29.88-.21,1.29a15.38,15.38,0,0,1,1.46.63c1,.46,1.63.21,1.88.92s-.12,1.37.46,1,1.25.38.92-1,.54-.5-.33-1.37-.87-.75-1.08-1.12Z"/>
        <path class="cls-1" d="M974.46,736.51c-.54-.17-2.54-.87-3-.17s-.67.88,0,1.54,1.12.29,1.71,1.42,1.25,1.5,1,2.54-.37-.17-.37,1.42.33,1.38.38,2.13.33.67-.46,1.38-.71.21-1.25,1.38-1.21.21-.62,1.58-.38.42,1.21,2,.75,1.88,2,2,1,1.17,1.92-.21-.08-.54,1.29-1.87,1.25-.54,1.92-1.75,1.46-.46.88-2a11.1,11.1,0,0,0-1-2.12,4.77,4.77,0,0,1-.71-2.75c.17-1.29-.17-1,.17-2.58a5.31,5.31,0,0,1,1.38-2.87c.67-.75,1.29-.62.75-1.17s.92-1.33-1-.79-1.5,0-1.87.54.71.46-.5,1.08-1,.92-1.86.71-.89.08-1.52-.46S974.46,736.51,974.46,736.51Z"/>
        <path class="cls-1" d="M964.58,708.35c-1.21,0-1.75-1-2.54,0s-.92.71-1.08,1.54-.54,0,0,1.17a4.13,4.13,0,0,0,.88,1.58c.71,1,.29,1.08,1.25,1.21s.92.83,1.88,0,.71,0,1.21-1.08,1.17-.1.58-1.69-.54-1.68-.79-1.85Z"/>
        <path class="cls-1" d="M556.88,647.76a.78.78,0,0,0-.6.38c-.25.38-.47-.08-.47.63s.14.52.43,1a5.09,5.09,0,0,0,.45.76c.38.54-.21,1.65.58.53s1-.68,1-1.31v-1s.08.12-.5-.47-.57-.53-.72-.53Z"/>
        <path class="cls-1" d="M192.25,85.51c-.42.33-1.37.58-1.37.79s0-.21,0,.58-1.08.67,0,1.21.67.17,1.38.67.37.83,1,.5.58.08.92-.67.5-.37.33-1.14,0-.94-.33-1.15S192.25,85.51,192.25,85.51Z"/>
      </g>
    </g>
  </g>
</svg>
