<svg xmlns="http://www.w3.org/2000/svg" viewBox="0 0 975.69 767.82">
  <defs>
    <style>
      .cls-1 {
        fill: #ffc543;
      }
    </style>
  </defs>
  <title>U_09_stars_01</title>
  <g id="Layer_2" data-name="Layer 2">
    <g id="Universe_-_Page" data-name="Universe - Page">
      <g id="_07" data-name="07">
        <path class="cls-1" d="M741.23,316.23l1.5-1.57,3-1.93s3.22,2.75,3.87,3.5-3.87,4.29-3.87,4.29Z"/>
        <path class="cls-1" d="M726.5,128.73h4s3.25.25,3.25,1.75,2,3.5,0,3.75-4.25,1-5.5,0S726.5,128.73,726.5,128.73Z"/>
        <polygon class="cls-1" points="749.5 144.48 745.64 147.48 746.85 150.23 749.5 148.98 749.5 144.48"/>
        <path class="cls-1" d="M737.5,86.73v3a21.19,21.19,0,0,0,1.78,3h.22l.44-2Z"/>
        <polygon class="cls-1" points="827 157.48 824.5 158.48 824.5 160.73 825.75 159.11 827 157.48"/>
        <polygon class="cls-1" points="968.91 395.23 972.3 392.73 975.69 395.23 972.3 398.23 968.91 395.23"/>
        <polygon class="cls-1" points="814.5 467.23 816.63 468.57 819.69 472.48 821.47 477.06 819.11 475.12 814.5 472.15 814.5 467.23"/>
        <polygon class="cls-1" points="887.5 577.48 890.41 575.23 891.63 577.48 887.5 580.23 887.5 577.48"/>
        <polygon class="cls-1" points="694.46 565.47 697.5 562.73 700.5 562.73 697.48 565.48 694.46 565.47"/>
        <polygon class="cls-1" points="544.5 694.73 546.5 694.73 546.67 696.73 544.5 696.73 544.5 694.73"/>
        <polygon class="cls-1" points="550.39 702.92 549.22 706.14 550.5 709.1 550.5 705.73 550.39 702.92"/>
        <path class="cls-1" d="M341.17,750.4s-1,.5-1.17,1.17a7.39,7.39,0,0,0,.58,2.58,1,1,0,0,0,.58,0c.42-.08.58.17,1.17-.75s.75-.92,1-1.75.58-.08,0-1.25a7.54,7.54,0,0,0-1.52-2Z"/>
        <path class="cls-1" d="M311.83,729.32a4.1,4.1,0,0,1-.33,1.5c-.25.25-.08.17-.58.75s-.67.58-.5,1.08-.23.75.68.83-.09.83.91.08,1.5.75,1-.75-.75-1.33-.75-2.17A2.21,2.21,0,0,0,311.83,729.32Z"/>
        <path class="cls-1" d="M218.92,736.4c.33,0,.42.17,1.08.42s.5.08,1,.58,1.17-.75.75.92.08,1.58-.42,1.67,0-.33-.93,0,.27,1.08-.9.33a4.42,4.42,0,0,1-1.42-1.25c-.5-.5-.67-.42-.5-.92l.17-.5Z"/>
        <path class="cls-1" d="M209,694.82a31.35,31.35,0,0,1,1.83,2.58c.17.42,0-.25.42.83s.83.75.83,1.83.5.75,0,1.08-.61.08-1.43-.58-.9-.33-1.32-1.5.17-1.17-.33-1.83a5.44,5.44,0,0,1-.75-1.58Z"/>
        <path class="cls-1" d="M198.58,708.57s.92-.17,1.17,0-.08.25.92,0a10.88,10.88,0,0,0,1.58-.58c.75-.25.08-1,1.58,0s1.92.92,2.17,1.92,1,.58,0,1.58.67,1.08-1,1-.76.75-2-.33-1.41-1.25-1.66-1.5-.17-.19-1.67-.55a5.51,5.51,0,0,1-2.25-1.11C197.08,708.82,198.58,708.57,198.58,708.57Z"/>
        <path class="cls-1" d="M88.67,618.9c.25.08-.67-.83.83.5s.67.67,1.5,1.33,1.33.25,1.08,1.33.83,1.25-.75,1.42a17.2,17.2,0,0,1-2.08,0c-1.25.08-1.58-.22-2.17.06s-.58.48-1.08,0-1.17,0-.83-1.31-.42-.83.83-2,.42-.83,1.25-1.17A2.37,2.37,0,0,1,88.67,618.9Z"/>
        <path class="cls-1" d="M229.25,411.73a1.79,1.79,0,0,1,1.33-.83c.75,0,0-.92,1.06.42s1.59.42,1.27,1.92.34,1-.66,2.17.42,1-1,1.17-1.58.83-2,0a8.09,8.09,0,0,1-1-2.08C227.83,413.15,229.25,411.73,229.25,411.73Z"/>
        <path class="cls-1" d="M12.92,764.48a13.84,13.84,0,0,1,1.92-1.33,2.33,2.33,0,0,1,.83.67c.17.33-.42-.34,0,1a2.65,2.65,0,0,1,0,2.08c-.11.5,1,1.42-.61.58s-1.42-1.58-2.17-2S12.92,764.48,12.92,764.48Z"/>
        <path class="cls-1" d="M60.5,712.73s2-1,2,0c0,0,.75.67.83,1s.25-.08.33.92.92,1.67,0,1.75-.67.83-1.75-.42-.75-.83-1.08-1.25A5.16,5.16,0,0,1,60.5,712.73Z"/>
        <path class="cls-1" d="M.5,362.73h2s0-1.17.83,0,1.17,1.33.83,2.17.42.75-1.25,1.58a12.32,12.32,0,0,1-2.42,1,3.06,3.06,0,0,1-.5-1.92A10.57,10.57,0,0,1,.5,362.73Z"/>
        <path class="cls-1" d="M97.33,38.73c.5-.17.67.25,1.25,0s.08-1.59,1.08.08,1.42,1,1.5,2.25.92,1.42,0,2.08-.41,1.25-1.7.92-1.13.17-2.13-.83-1.83-1.48-1.83-2.16S97.33,38.73,97.33,38.73Z"/>
        <path class="cls-1" d="M47.08,2.48a2,2,0,0,1,.83-1.17C48.67.73,49.25-.52,49.75.23s.75-.57.75,1A3.66,3.66,0,0,1,50,3.4c-.17.5-.5.33-.17,1.17s1.58,1.25.25,1.33-1.17.42-1.92,0a2.77,2.77,0,0,1-1.5-1.42C46.25,3.65,47.08,2.48,47.08,2.48Z"/>
        <path class="cls-1" d="M249.17,49.9a2.64,2.64,0,0,1,1.5,0c1.08.25,1.17-1.08,1.75,0s1.08.75,1,1.83.67.17-.42,1.42-1.16,1.67-1.62,1.5a7.18,7.18,0,0,1-1.71-1.08,3.57,3.57,0,0,1-1.08-1.49C248.58,51.82,249.17,49.9,249.17,49.9Z"/>
        <path class="cls-1" d="M286.33,82.07a15.08,15.08,0,0,1,1.42.75s-.25.08,0,.83,2.25,1,2.33.75-.17-.16,0-1.12,1.12-.46,0-1.21l-1.1-.75s.54.08-.52-.67-.65-.67-1.06-.75-1.25,0-1.08.67A4,4,0,0,1,286.33,82.07Z"/>
        <path class="cls-1" d="M248.08,190.82c1.08-.42,2.83-1.67,3.58-1.42s.58-.42,1.58,1.42,1.08,1,1.33,2.83,1.17,1.58.75,2.92-.7,1.25.11,2,1.94,1.75,0,1.67-.18,1-3.14-.42-1.63-.83-3-1.42-2.58-1.58-2.83-.83,2.17,3-.25.75-3.67-2-2.67-3.36A41.9,41.9,0,0,1,248.08,190.82Z"/>
        <path class="cls-1" d="M191.33,176.65a7.26,7.26,0,0,0,1.92,0c.33-.17-.42-1.19.67.07s1.5,1.34,1.75,2.18.83-.33.25.83.33,1.17-.92,1.17.25.92-1.25,0-1.58-.75-2.08-1.67-.42-1-.33-1.58A3.25,3.25,0,0,0,191.33,176.65Z"/>
        <path class="cls-1" d="M950.88,503s0-.17,0,.54-.37.42,0,1.08-.62.67.38.67,1,.17,1.21-.33.21-.12.25-.81.46-1,0-1.17A5.56,5.56,0,0,0,950.88,503Z"/>
      </g>
    </g>
  </g>
</svg>
