<svg xmlns="http://www.w3.org/2000/svg" viewBox="0 0 31.72 31.67">
  <defs>
    <style>
      .cls-1 {
        fill: #0071bb;
      }

      .cls-2 {
        fill: #3a5a00;
      }
    </style>
  </defs>
  <title>Earth</title>
  <g id="Layer_2" data-name="Layer 2">
    <g id="Solar_System_-_Page" data-name="Solar System - Page">
      <g id="Planets">
        <g id="Earth">
          <circle id="Oceans" class="cls-1" cx="15.84" cy="15.83" r="15.83"/>
          <g id="Contenants">
            <path class="cls-2" d="M0,16.05A15.77,15.77,0,0,1,2.9,6.74,15.4,15.4,0,0,1,8.14,2s.2.32.31.32.48.38.62.38.13.75.13.75L9,3.93A1.83,1.83,0,0,1,9.47,4c.18.05.53.35.72.43s0,.7-.32.94-.75-.81-.78-.3.69,1.13.38,1.64c0,0-.49-.5-.49-.13s.56.34.24.5S8,6.16,7.72,6.11s-1,.24-.78-.19,1-.43,1-.43-.48,0,0-.59-.24-1.24-.46-1.13,0-1.18-.62,0-.27.67-.27,1.07-.4.48-.51.75.4.57.4.78-.19.24-.46.22S5.76,7,5.6,7s-.35-.41-.35-.41S3.91,7.75,4,8.31A3.31,3.31,0,0,0,6,10s.24,1.1.43,1.18.13-1.07,0-1.16,1.13-.32.19-1.48c0,0,.29-.19.21-1.45a2.23,2.23,0,0,1,1.36.16c.47.32.41,1.56.58,1.42a1.14,1.14,0,0,0,.46-.78s.46,0,.54.86a2.05,2.05,0,0,0,1,1.42c.22.16.46.94.3,1.16s.81.94.62,1.34-1.13-.54-1.32-.19c0,0,.45-1.16.29-1.07s-1.21-.05-1.77.46l.54.13-.11.75a1.12,1.12,0,0,0,.7.16c.3-.08-.56.81-1,.94s0-.54,0-.54-.77.3-.76.65-.26.27-.58.72a2.34,2.34,0,0,0-.35,1.5c.11.08-1,.38-.94,1s.3,1.1.19,1.26-.68-.75-.69-.91-.68-.51-.81-.32-.38.43-.51.32-.67-.29-.78.08,0,2.23.61,2,.66-.54.66-.54L5.52,19l-.13,1.18s.65-.05.73.27.05,1.13.32,1.13.78.35,1,.35.68-.56.85-.64.47.35.71.43,1.32-.13,1.4.21.89.94.89.94a1.27,1.27,0,0,1,1.24,1.13,15.78,15.78,0,0,0,1.72.78c.24,0,1.63.19,1.65.64s-.76,1.29-.87,1.32-.05,1-.54,1.45-1.08.32-1.21.46.11.46-.19.91a1,1,0,0,1-.89.56c-.27,0,.05.08-.27.4l-.55.54A10.28,10.28,0,0,1,9,30.11s.59-.62.5-.92-.17-1.29-.33-1.8-.86-1.07-1.22-1.58S6.75,24.49,6.83,23.9s1-1.56.08-1.93l-.24.27A8.77,8.77,0,0,1,5.38,21.1c-.59-.65-1-1.13-1.45-1s-1.69-.56-1.64-.83.32-.73.16-.78A9.3,9.3,0,0,1,0,16.05Z"/>
            <path class="cls-2" d="M11.39.63s1.89-.92,6.18-.54a.45.45,0,0,0,0,.35c.23.28.43.88.3.88h-.43s.89.47.65,1.14a1.36,1.36,0,0,1-.67-.72c-.19-.51-.27.61-.35.61s.83.25.83.25-.33.9-2.07,1.15c0,0-.13,1.63-1.5,1.29a2.1,2.1,0,0,1-.19,1.34c-.35.59-.35,1.42-.51,1.5s-.78-.46-1.08-.56-.67-1.56-1-2.28.11-1.61.35-1.61.43-.56.19-.62-.21.59-.54.43-.11-.29,0-.56A10.24,10.24,0,0,0,11.39.63Z"/>
            <path class="cls-2" d="M17.64,5s.29-.19.29-.4.23.4.23.4.93-.33,1.11-.45.65.29.62.64-.7.54-.83.78-.75,0-1-.19S18.17,5.17,17.64,5Z"/>
            <path class="cls-2" d="M5.1,19.27a4.83,4.83,0,0,1,.91,0c.3.05.94.59,1.18.62s.63.43,1,.4,1.05-.35.65-.52a10.12,10.12,0,0,0-1.28-.52C6.74,19,5.1,18.52,5.1,18.9Z"/>
            <path class="cls-2" d="M24.79,28.91a16.11,16.11,0,0,0,6.87-14.78A15.26,15.26,0,0,0,25.4,3.21L25,4.12s.05-.08.24-.05-.31.87-.48,1.27A3.38,3.38,0,0,1,24,6.56c-.32.24-.67.3-.56.84s.35,1.29.62,1.32.59-.35.7-.35.32.43.32.67.05.83.38.62.48,0,.48-.38a1.73,1.73,0,0,1,.3-.86c.13-.24.24-.46,0-.73S26,7.21,26,7.13a1.7,1.7,0,0,0,.32-.57c.16-.42.27-.9.43-.93s.32-.27.35.05a1.1,1.1,0,0,1-.24.75c-.16.27-.21.11-.27.62s.13,1,.27,1,.65-.22.78-.12a.87.87,0,0,1,.21.37s0,.05-.33.08-.37.13-.79.51,0,.4-.16.81-.38.83-.54.7.21-.21-.16-.13-.27,0-.62.08-.51.27-.43-.05a1.58,1.58,0,0,0-.05-.67c0-.16.19-.3,0-.54s-.24-.27-.39.08.07.35,0,.67.15.62,0,.62-.31-.13-.5,0-.47.32-.5.51a.86.86,0,0,1-.22.48c-.13.13,0,.3-.4.46s-.51,0-.51,0-.15.32-.31.32-.44,0-.2.24.51.11.59.56.29.78,0,.73-.33-.27-.71-.21-.39-.19-.58.13-.35.54-.27.78a1,1,0,0,1,0,.64c-.06.08-.18.08,0,.43s.29.32.61.43a1,1,0,0,0,1-.38c.24-.35.4-.35.59-.78s.24-.86.46-.94.24,0,.38-.08a2.93,2.93,0,0,0,.55-.43c0-.05.12-.35.23,0s.05.64.16.67a1.17,1.17,0,0,1,.43.19c.13.11.11.3.27.46s.24.35.19.43-.11.24-.24.22l-.13,0h0c-.19.11-.16-.11-.19.11a.87.87,0,0,0,.16.48s-.08,0,.16-.19.35-.19.43-.35a4.28,4.28,0,0,0,.33-.59c.1-.27.33-.13,0-.32s-.3-.08-.44-.3a1.64,1.64,0,0,1-.13-.24l-.08-.19c-.11-.24-.32-.43-.19-.43s.4-.27.29.08.38.51.38.51.32.3.4.3.11.35.11.46-.05.4.05.48,0,.24.21.4.3.3.32.16,0-.21.16-.21.27.16.24-.11-.1-.27-.22-.43-.46-.29-.29-.35.07-.38.07-.11V15s.42.42.5.42.52.11.69.11.26.24.48.21a1.66,1.66,0,0,0,.49-.19s.13.91-.14,1.13-.69-.13-.77.11.06.38-.21.25-1.07-.85-1.37-.56-.27,0-.32.42,0,.62-.23.4-1.51-.54-1.51-.82.11-.34.11-.6-.1,0-.39,0-.58-.32-1-.13a5,5,0,0,1-1.13.59c-.46.11-.91-.48-1.26.15s-.19,1.3-.54,1.41A2.13,2.13,0,0,0,19.41,19c-.4.7,0,.86-.19,1.21s-.43.73-.29,1.1,0,.62.48.89a5,5,0,0,1,1,.83c.43.38.7.16,1.13.05a10.09,10.09,0,0,0,1.07-.35c.21-.08.78-.19.83-.11a3.84,3.84,0,0,0,.64.43c.19.11.35.08.11.48s-.54.48-.16.64.63.54.37,1.37-.53.72-.37,1.18.3.46.37.7S24.22,28.36,24.79,28.91Z"/>
            <path class="cls-2" d="M21.07,9.79c-.16,0,.05.38-.19.38s-.29-.27-.24,0,.33.29.21.46-.4.3-.22.43a1,1,0,0,0,.45.16s.11-.13.3-.32.13-.62.13-.62.08-.27.24-.24.2.48.22.47-.22-.09-.2.17.11.4.05.54-.13.13-.08.24.3.11.48.11,0,.11.38,0A.45.45,0,0,0,23,11c0-.22.17-.22,0-.33s-.25-.29-.52-.78-.29-.54-.29-.78.2.19,0-.24-.12-.19-.12-.43V8.24a.17.17,0,0,0-.24,0,1.19,1.19,0,0,1-.49.29c-.08,0,0-.27-.09,0s-.27.56-.11.62.21-.24.32.08a2.4,2.4,0,0,1,.11.67L21,9.68Z"/>
            <path class="cls-2" d="M21.26,6.57s-.35.23-.21.31A1.06,1.06,0,0,0,21.4,7Z"/>
            <path class="cls-2" d="M22.59,7.48l-.17,0s-.16.24,0,.27l.16,0Z"/>
            <path class="cls-2" d="M7.41,4.17c-.12-.05-.25.39-.25.39l.12.33.3-.33.16-.4Z"/>
            <path class="cls-2" d="M9.15,19.95c-.17,0-.05.27,0,.35a.49.49,0,0,0,.16.13v-.13Z"/>
          </g>
        </g>
      </g>
    </g>
  </g>
</svg>
