<svg xmlns="http://www.w3.org/2000/svg" viewBox="0 0 1264.75 1264.75">
  <defs>
    <style>
      .cls-1 {
        fill: none;
        stroke: #fff;
        stroke-miterlimit: 10;
      }
    </style>
  </defs>
  <title>Rings</title>
  <g id="Layer_2" data-name="Layer 2">
    <g id="Solar_System_-_Page" data-name="Solar System - Page">
      <g id="Rings">
        <path class="cls-1" d="M977.2,734.8C932.93,883.07,795.5,991.17,632.83,991.17c-198.45,0-359.33-160.88-359.33-359.33S434.38,272.5,632.83,272.5,992.17,433.38,992.17,631.83q0,11.87-.76,23.56"/>
        <path class="cls-1" d="M918.27,717C881.91,839.3,768.62,928.5,634.5,928.5c-163.48,0-296-132.52-296-296s132.52-296,296-296,296,132.52,296,296q0,13.23-1.14,26.17"/>
        <path class="cls-1" d="M846.66,708.71C815.08,795.37,732,857.25,634.37,857.25c-124.75,0-225.87-101.13-225.87-225.87S509.63,405.5,634.37,405.5,860.25,506.63,860.25,631.37q0,7.28-.45,14.44"/>
        <path class="cls-1" d="M1051.16,750.24c-51.63,182-219.05,315.35-417.61,315.35-239.72,0-434-194.33-434-434s194.33-434,434-434,434,194.33,434,434q0,19.7-1.72,39"/>
        <path class="cls-1" d="M1131.15,773.3C1070,990.89,870.1,1150.41,633,1150.41,347.17,1150.41,115.5,918.74,115.5,633S347.17,115.5,633,115.5,1150.41,347.17,1150.41,633q0,18.6-1.29,36.87"/>
        <path class="cls-1" d="M1246.78,780.53c-66.67,277.5-316.46,483.72-614.41,483.72C283.4,1264.25.5,981.35.5,632.37S283.4.5,632.37.5s631.87,282.9,631.87,631.87a639.3,639.3,0,0,1-3.25,64.48"/>
        <path class="cls-1" d="M786.83,704.84a170.25,170.25,0,1,1,16-73.47q0,.65,0,1.3"/>
        <path class="cls-1" d="M718.71,700.79a109.65,109.65,0,1,1,19-101.72"/>
      </g>
    </g>
  </g>
</svg>
