<svg xmlns="http://www.w3.org/2000/svg" viewBox="0 0 1771.94 1769">
  <defs>
    <style>
      .cls-1 {
        fill: #0071bb;
      }

      .cls-1, .cls-2 {
        stroke: #000;
        stroke-miterlimit: 10;
      }

      .cls-2 {
        fill: #3a5a00;
      }
    </style>
  </defs>
  <title>Earth</title>
  <g id="Layer_2" data-name="Layer 2">
    <g id="Earth_-_Page" data-name="Earth - Page">
      <g id="Earth_copy" data-name="Earth copy">
        <circle id="Oceans" class="cls-1" cx="884.95" cy="884.5" r="884"/>
        <g id="Contenants_copy" data-name="Contenants copy">
          <path class="cls-2" d="M1,896.59S-17.43,631.26,162.49,376.53c66.58-94.26,155-188,292.22-264.45,0,0,11.36,18,17.36,18s27,21,34.5,21,7.5,42,7.5,42l-9,27s14.28,0,24.39,3,29.61,19.5,40.11,24,0,39-18,52.5-42-45-43.5-16.5,38.28,63,21.39,91.5c0,0-27.39-27.64-27.39-7.07s31.5,19.07,13.5,28.07-69-51-84-54-54,13.5-43.5-10.5,57-24,57-24-27-1.5,0-33-13.5-69-25.5-63-1.5-66-34.5-1.5-15,37.5-15,60-22.5,27-28.5,42,22.5,32.07,22.5,43.5-10.5,13.43-25.5,12.43-16.5,23.57-25.5,22.07-19.5-23.07-19.5-23.07-75,66.57-70.5,98.07,85.5,94.5,114,93c0,0,13.5,61.5,24,66s7.5-60,1.5-64.5,63-18,10.5-82.5c0,0,16.5-10.5,12-81,0,0,49.77-9,75.88,9s23.11,87,32.11,79.5,25.5-24,25.5-43.5c0,0,25.5,1.5,30,48s43.5,70.5,55.5,79.5,25.5,52.5,16.5,64.5,45,52.5,34.5,75-63-30-73.5-10.5c0,0,25.29-64.5,16.39-60s-67.39-3-98.89,25.5l30.39,7.5-6.39,42s22.5,13.5,39,9-31.5,45-58.5,52.5,0-30,0-30-43.22,16.5-42.61,36-14.39,15-32.39,40.5-25.5,79.5-19.5,84-55.5,21-52.5,54,16.5,61.5,10.5,70.5-38.22-42-38.61-51-37.88-28.5-45.38-18-21,24-28.5,18-37.5-16.5-43.5,4.5-1.25,124.49,33.88,112.49,36.62-30,36.62-30l27-6-7.5,66s36-3,40.5,15,3,63,18,63,43.5,19.5,54,19.5,37.77-31.5,47.38-36,26.11,19.5,39.61,24,73.5-7.5,78,12,49.5,52.5,49.5,52.5,54-3,69,63c0,0,82.5,42,96,43.5s90.81,10.5,91.9,36-42.41,72-48.41,73.5-3,55.5-30,81-60,18-67.5,25.5,6,25.5-10.5,51-34.5,31.5-49.5,31.5,3,4.5-15,22.5-30.46,30.25-30.46,30.25-84.06-21-132.06-51c0,0,32.81-34.74,27.92-51.24s-9.39-72-18.39-100.5-48.16-60-68.33-88.5-65.17-73.5-60.67-106.49,55.5-87,4.5-108l-13.5,15s-39-27-72-63-55.5-63-81-55.5-94.5-31.5-91.5-46.5,18-40.5,9-43.5S88,1003.13,1,896.59Z"/>
          <path class="cls-2" d="M636.65,35.8S742.2-15.5,981.38,5.7c0,0-3.42,4.55,2.15,11.15,13,15.38,24,41.15,16.51,41.15H976s49.58,34.58,36.09,72.08c0,0-27-7.5-37.5-36s-15,36-19.5,36,46.5,15,46.5,15-18.18,51-115.59,64.5c0,0-7.41,91.5-83.9,72,0,0,9,42-10.5,75s-19.5,79.5-28.5,84-43.5-25.5-60-31.5-37.5-87-54-127.49,6-90,19.5-90,24-31.5,10.5-34.5-12,33-30,24-6-16.5,0-31.5S636.65,35.8,636.65,35.8Z"/>
          <path class="cls-2" d="M985,281.58s16.5-10.5,16.5-22.5,12.83,22.5,12.83,22.5,51.67-18.57,62.17-25,36,16,34.5,35.53-39,30-46.5,43.5-42,1.5-57-10.5S1015,289.08,985,281.58Z"/>
          <path class="cls-2" d="M326.45,1076.54a84.17,84.17,0,0,1,30.06,0c16.5,3,42,33,55.53,34.5s30.29,24,48.9,22.5,56.12-19.26,33.62-29.13-7.72-14-51.88-29.2-116.22-40.66-116.22-19.67Z"/>
          <path class="cls-2" d="M1384.65,1614.2c196.17-121.87,417-427.36,383.38-825.25-17.26-204.48-117.75-434.11-349.69-609.42l-20.77,51.11s3-4.53,13.47-3-17.19,48.79-26.6,70.89-25.92,55-43.92,68.52-37.5,16.56-31.5,46.56,19.5,72,34.5,73.49,33-19.5,39-19.5,18,24,18,37.5,3,46.5,21,34.5,27-1.5,27-21,9-34.5,16.5-48,13.5-25.5,0-40.5-13.5-27-10.5-31.5,9-8.63,18-32.06,15-50.43,24-51.93,18-15,19.5,3-4.5,27-13.5,42-12,6-15,34.5,7.5,54,15,54,36-12.57,43.5-7,12,20.53,12,20.53-2.75,3-18.62,4.5-20.37,7.5-44.37,28.5,1.5,22.5-9,45-21,46.5-30,39,12-12-9-7.5-15,0-34.5,4.5-28.5,15-24-3-3-28.5-3-37.5,10.5-16.5,0-30-13.13-15-21.57,4.5,3.93,19.5,0,37.5,8.43,34.5,0,34.5-17.43-7.5-27.93,0-26.21,18-28.11,28.5-5,19.5-12.46,27,1.57,16.5-22.43,25.5-28.5,1.5-28.5,1.5-8.15,18-17.57,18-24.43-1.5-10.93,13.5,28.5,6,33,31.5,16.5,43.5,1.5,40.5-18.27-15-39.89-12S1189,745,1178.53,763s-19.5,30-15,43.5,2.12,31.5-1.19,36-10.19,4.5,0,24,16.19,18,34.19,24,43.5-1.5,57-21,22.5-19.5,33-43.5,13.5-48,25.5-52.5,13.5,0,21-4.5,30.37-21,30.93-24,6.57-19.5,12.57-1.5,3,36,9,37.5,16.5,4.5,24,10.5,6,16.5,15,25.5,13.5,19.5,10.5,24-6,13.5-13.5,12l-7.5-1.5h0c-10.5,6-9-6-10.5,6s9,27,9,27-4.5,0,9-10.46,19.5-10.5,24-19.5,12.81-18,18.41-33,18.41-7.5,0-18S1447,799,1439.52,787c-4.64-7.43-5.84-9.68-7.5-13.53-1-2.36-2.22-5.33-4.5-10.47-6-13.5-18-24-10.5-24s22.5-15,16.5,4.5,21,28.5,21,28.5,18,16.5,22.5,16.5,6,19.5,6,25.5-3,22.5,3,27,0,13.5,12,22.5,16.5,16.5,18,9-.12-12,8.94-12,15.06,9,13.56-6-5.62-15-12.56-24-9.34-16.5.22-19.5,20.28-21,20.28-6V835.5S1553.51,859,1558,859s21,6,30,6,10.5,13.5,22.5,12,25.5-10.5,25.5-10.5,6,51-9,63-39-7.5-43.5,6,3,21-12,14.26-60-47.25-76.5-31.51-15-.76-18,23.24,1,34.5-13,22.5-84.47-30-84.47-45.74,6-18.83,6-33.79-5.63,1.46-21.57,0-32.43-18-53.43-7.46-37.5,27-63,33-51-27-70.5,8.26S1166.53,991,1147,997s-40.5,22.5-63,61.5-1.5,48-10.5,67.5-24,40.5-16.5,61.5,0,34.5,27,49.5,33,25.5,57,46.5,39,9,63,3,48-15,60-19.5,43.5-10.5,46.5-6,25.5,18,36,24,19.5,4.5,6,27-30,27-9,36,34.87,30,20.43,76.5-29.43,40.5-20.43,66,16.87,25.5,20.43,39S1352.52,1583.5,1384.65,1614.2Z"/>
          <path class="cls-2" d="M1177,547.28c-9,0,3,20.89-10.48,20.89s-16.49-15.05-13.49-.05,18.44,16.47,11.47,25.47-22.59,16.48-12.53,24,25.06,9,25.06,9a243.76,243.76,0,0,1,16.5-18c10.5-10.5,7.5-34.5,7.5-34.5s4.5-15,13.5-13.5,11.35,27,12.43,26.25-12.43-5.25-10.93,9.75,6,22.5,3,30-7.5,7.5-4.5,13.5,16.5,6,27,6,1.5,6,21,0,22.5-18,21-30,9.66-12.33.33-18.17S1270,581.55,1255,554.55s-16.5-30-16.5-43.5,9,10.5,0-13.5-9-10.5-9-24V460.5s-4.69-7.06-11.31,0-21.62,16.06-26.12,16.06,0-15-4.5,0-15,31.5-6,34.5,12-13.5,18,4.5,6,37.48,6,37.48l-31.5-12Z"/>
          <path class="cls-2" d="M1187.53,367.5s-19.5,13.06-12,17.56,19.5,6,19.5,6Z"/>
          <path class="cls-2" d="M1261.45,418.06c-9-1.5-9.21-1.5-9.21-1.5s-8.89,13.5.11,15,9.11,1.5,9.11,1.5Z"/>
          <path class="cls-2" d="M414,233.57c-6.43-3-13.93,21.84-13.93,21.84l7,18.66,17-18.66,9-22.09Z"/>
          <path class="cls-2" d="M511.26,1114c-9.65-1.12-2.9,15.18.1,19.6s9.1,7.45,9.1,7.45v-7.53Z"/>
        </g>
      </g>
    </g>
  </g>
</svg>
