<svg xmlns="http://www.w3.org/2000/svg" viewBox="0 0 1066.84 703.62">
  <defs>
    <style>
      .cls-1 {
        fill: #e4e4e4;
      }
    </style>
  </defs>
  <title>Stars</title>
  <g id="Layer_2" data-name="Layer 2">
    <g id="Earth_-_Page" data-name="Earth - Page">
      <g id="Sky">
        <g id="Stars">
          <circle class="cls-1" cx="311.33" cy="280.49" r="3.33"/>
          <circle class="cls-1" cx="557.33" cy="283.49" r="3.33"/>
          <circle class="cls-1" cx="586.33" cy="108.49" r="3.33"/>
          <circle class="cls-1" cx="824.33" cy="261.49" r="3.33"/>
          <circle class="cls-1" cx="920.33" cy="147.49" r="3.33"/>
          <circle class="cls-1" cx="1044.33" cy="58.49" r="3.33"/>
          <circle class="cls-1" cx="564.33" cy="447.49" r="3.33"/>
          <circle class="cls-1" cx="266.33" cy="402.49" r="3.33"/>
          <circle class="cls-1" cx="145.33" cy="628.49" r="3.33"/>
          <circle class="cls-1" cx="431.33" cy="520.49" r="3.33"/>
          <circle class="cls-1" cx="742.33" cy="641.49" r="3.33"/>
          <circle class="cls-1" cx="860.33" cy="601.49" r="3.33"/>
          <circle class="cls-1" cx="982.33" cy="409.49" r="3.33"/>
          <ellipse class="cls-1" cx="972.5" cy="316.65" rx="1.34" ry="1.65"/>
          <ellipse class="cls-1" cx="736.5" cy="321.65" rx="1.34" ry="1.65"/>
          <ellipse class="cls-1" cx="553.5" cy="325.65" rx="1.34" ry="1.65"/>
          <ellipse class="cls-1" cx="326.5" cy="305.65" rx="1.34" ry="1.65"/>
          <ellipse class="cls-1" cx="359.5" cy="144.65" rx="1.34" ry="1.65"/>
          <ellipse class="cls-1" cx="476.5" cy="123.65" rx="1.34" ry="1.65"/>
          <ellipse class="cls-1" cx="736.5" cy="3.65" rx="1.34" ry="1.65"/>
          <ellipse class="cls-1" cx="809.5" cy="40.65" rx="1.34" ry="1.65"/>
          <ellipse class="cls-1" cx="748.83" cy="209.81" rx="0.67" ry="0.81"/>
          <ellipse class="cls-1" cx="777.83" cy="210.81" rx="0.67" ry="0.81"/>
          <ellipse class="cls-1" cx="824.83" cy="78.81" rx="0.67" ry="0.81"/>
          <ellipse class="cls-1" cx="691.83" cy="124.81" rx="0.67" ry="0.81"/>
          <ellipse class="cls-1" cx="499.83" cy="242.81" rx="0.67" ry="0.81"/>
          <ellipse class="cls-1" cx="567.83" cy="219.81" rx="0.67" ry="0.81"/>
          <ellipse class="cls-1" cx="518.83" cy="67.81" rx="0.67" ry="0.81"/>
          <ellipse class="cls-1" cx="541.83" cy="0.81" rx="0.67" ry="0.81"/>
          <ellipse class="cls-1" cx="286.83" cy="348.81" rx="0.67" ry="0.81"/>
          <ellipse class="cls-1" cx="197.83" cy="402.81" rx="0.67" ry="0.81"/>
          <ellipse class="cls-1" cx="214.83" cy="291.81" rx="0.67" ry="0.81"/>
          <ellipse class="cls-1" cx="94.83" cy="332.81" rx="0.67" ry="0.81"/>
          <ellipse class="cls-1" cx="73.83" cy="136.81" rx="0.67" ry="0.81"/>
          <ellipse class="cls-1" cx="307.83" cy="54.81" rx="0.67" ry="0.81"/>
          <ellipse class="cls-1" cx="553.83" cy="702.81" rx="0.67" ry="0.81"/>
          <ellipse class="cls-1" cx="74.83" cy="470.81" rx="0.67" ry="0.81"/>
          <ellipse class="cls-1" cx="55.83" cy="556.81" rx="0.67" ry="0.81"/>
          <ellipse class="cls-1" cx="916.83" cy="454.81" rx="0.67" ry="0.81"/>
          <ellipse class="cls-1" cx="601.5" cy="607.65" rx="1.34" ry="1.65"/>
          <ellipse class="cls-1" cx="541.5" cy="252.65" rx="1.34" ry="1.65"/>
          <ellipse class="cls-1" cx="1065.5" cy="276.65" rx="1.34" ry="1.65"/>
          <circle class="cls-1" cx="3.33" cy="246.49" r="3.33"/>
          <circle class="cls-1" cx="218.33" cy="47.49" r="3.33"/>
        </g>
      </g>
    </g>
  </g>
</svg>
