<svg xmlns="http://www.w3.org/2000/svg" viewBox="0 0 28.52 58.49">
  <defs>
    <style>
      .cls-1 {
        fill: #fff;
      }
    </style>
  </defs>
  <title>Earth</title>
  <g id="Layer_2" data-name="Layer 2">
    <g id="Solar_System_-_Page" data-name="Solar System - Page">
      <g id="Names">
        <g>
          <path class="cls-1" d="M11.55,47.35l-1.26,7.23L17,55.74l1.4-8.05,2,.35L18.59,58.49,0,55.25l1.75-10,2,.35L2.43,53.2l5.88,1L9.57,47Z"/>
          <path class="cls-1" d="M22.23,37.61l-1.72-.1v.08A5,5,0,0,1,21.78,42a3.86,3.86,0,0,1-4.55,3.41c-3.23-.56-4.49-3.74-3.57-8.89l-.28,0A2.79,2.79,0,0,0,9.77,39a6.74,6.74,0,0,0,.39,3.65l-1.7.27A8.42,8.42,0,0,1,8,38.32c.71-4.08,3.67-4.59,6.35-4.12l5,.87a19.08,19.08,0,0,0,3.24.34Zm-6.88-.83c-.52,2.64-.57,5.73,2,6.18a2.18,2.18,0,0,0,2.72-1.89,3.37,3.37,0,0,0-1.67-3.62,2.58,2.58,0,0,0-.75-.27Z"/>
          <path class="cls-1" d="M14.07,30.11c-1.57-.27-2.93-.48-4.18-.62l.37-2.12,2.63.37,0-.11a4.07,4.07,0,0,1-2.28-4.21,2.64,2.64,0,0,1,.2-.68l2.29.4a3.72,3.72,0,0,0-.23.81,3.46,3.46,0,0,0,2.55,3.8,7,7,0,0,0,1.11.31l7.12,1.24-.42,2.4Z"/>
          <path class="cls-1" d="M8.27,16.11l3.83.67.61-3.47,1.85.32L14,17.1l7.2,1.25c1.66.29,2.67,0,2.91-1.37a5.49,5.49,0,0,0,.08-1.44l1.84.21a6,6,0,0,1,0,2.21,3.41,3.41,0,0,1-1.48,2.44,5,5,0,0,1-3.64.33l-7.28-1.27-.36,2.07-1.85-.32.36-2.07-3.2-.56Z"/>
          <path class="cls-1" d="M7,9.48l.42-2.43,8.33,1.45V8.45a4.57,4.57,0,0,1-1.41-2,5.07,5.07,0,0,1-.26-2.6C14.36,2,16-.66,20.57.15l7.94,1.38L28.1,4,20.43,2.62c-2.15-.37-4.11.11-4.51,2.4A3.54,3.54,0,0,0,17.78,8.7a3,3,0,0,0,1.13.37L27,10.47l-.42,2.43Z"/>
        </g>
      </g>
    </g>
  </g>
</svg>
