<svg xmlns="http://www.w3.org/2000/svg" viewBox="0 0 30.17 81.17">
  <defs>
    <style>
      .cls-1 {
        fill: #fff;
      }
    </style>
  </defs>
  <title>Jupiter</title>
  <g id="Layer_2" data-name="Layer 2">
    <g id="Solar_System_-_Page" data-name="Solar System - Page">
      <g id="Names">
        <g>
          <path class="cls-1" d="M0,72.28l.4-2.4L12.86,72c4.94.83,6.06,3.51,5.52,6.72a7.88,7.88,0,0,1-.87,2.49l-1.9-.69a5.81,5.81,0,0,0,.7-2c.36-2.15-.39-3.59-4-4.2Z"/>
          <path class="cls-1" d="M17.9,57.28c1.38.23,2.6.41,3.66.5l-.36,2.15L19,59.71v.05a5.1,5.1,0,0,1,1.75,4.84c-.35,2.1-1.93,4.42-6.63,3.63L6.29,66.92l.41-2.43,7.4,1.24c2.54.43,4.38-.06,4.75-2.27a3.56,3.56,0,0,0-1.67-3.57A3.61,3.61,0,0,0,16,59.46l-8.2-1.37.41-2.43Z"/>
          <path class="cls-1" d="M13.22,52.35c-1.71-.29-3.1-.46-4.38-.62l.37-2.18,2.31.27v-.05a5.33,5.33,0,0,1-1.8-5.19c.54-3.23,3.68-5.2,7.74-4.52,4.81.81,6.69,4.13,6.16,7.28a4.75,4.75,0,0,1-2.79,3.76v.05l7.26,1.22-.4,2.4Zm4-1.81a5.59,5.59,0,0,0,1,.06,3.8,3.8,0,0,0,3.46-3.17c.43-2.57-1.42-4.41-4.48-4.93-2.68-.45-5.21.58-5.64,3.14a3.93,3.93,0,0,0,2.39,4.18,4,4,0,0,0,1,.33Z"/>
          <path class="cls-1" d="M8.19,32.57a1.53,1.53,0,0,1-.5,3,1.5,1.5,0,0,1-1.26-1.77A1.46,1.46,0,0,1,8.19,32.57Zm16.67,5.58L11.49,35.91l.41-2.43,13.37,2.24Z"/>
          <path class="cls-1" d="M9.23,25.88l3.84.64L13.65,23l1.85.31-.58,3.48L22.12,28c1.66.28,2.67,0,2.9-1.39a5.49,5.49,0,0,0,.07-1.44l1.84.19a6,6,0,0,1,0,2.21,3.42,3.42,0,0,1-1.46,2.45,5,5,0,0,1-3.64.36L14.52,29.2l-.35,2.07L12.32,31l.35-2.07-3.2-.54Z"/>
          <path class="cls-1" d="M21.43,20.31c3.3.5,5-1.38,5.41-3.81a8.91,8.91,0,0,0-.07-3.82l1.81-.12a11,11,0,0,1,.08,4.59c-.69,4.11-3.81,6.12-7.84,5.44S14,19,14.66,15.12c.73-4.36,4.76-4.88,7.22-4.47a9.23,9.23,0,0,1,1.12.27Zm-.55-7.42c-1.54-.29-4.06,0-4.51,2.71C16,18.06,18,19.52,19.69,20Z"/>
          <path class="cls-1" d="M20.57,7.34c-1.57-.26-2.93-.46-4.19-.59l.36-2.13L19.37,5l0-.11A4.07,4.07,0,0,1,17.08.68a2.66,2.66,0,0,1,.2-.68l2.29.38a3.72,3.72,0,0,0-.22.82A3.46,3.46,0,0,0,21.93,5a7,7,0,0,0,1.11.3l7.12,1.19-.4,2.4Z"/>
        </g>
      </g>
    </g>
  </g>
</svg>
