<svg xmlns="http://www.w3.org/2000/svg" viewBox="0 0 24.67 54.37">
  <defs>
    <style>
      .cls-1 {
        fill: #fff;
      }
    </style>
  </defs>
  <title>Mars</title>
  <g id="Layer_2" data-name="Layer 2">
    <g id="Solar_System_-_Page" data-name="Solar System - Page">
      <g id="Names">
        <g>
          <path class="cls-1" d="M12.29,37.09c-2.63-.17-5.79-.38-8.12-.69v.08c2.12.9,4.36,2,6.84,3.21l8.7,4.39-.22,1.84-9.29,2c-2.75.58-5.26,1-7.54,1.3v.06c2.33.33,5.45.85,8.24,1.35l8,1.46-.27,2.31L0,50.83l.37-3.09,9.44-2.12c2.4-.5,4.53-.9,6.54-1.14V44.4c-1.83-.7-3.81-1.61-6.08-2.73L1.61,37.26,2,34.18l18.88,1.06-.28,2.36Z"/>
          <path class="cls-1" d="M22.2,24H20.48v.08A5,5,0,0,1,22,28.41a3.86,3.86,0,0,1-4.35,3.65c-3.25-.39-4.69-3.49-4-8.69l-.28,0A2.79,2.79,0,0,0,9.83,26a6.76,6.76,0,0,0,.58,3.62L8.74,30a8.41,8.41,0,0,1-.67-4.56c.49-4.11,3.42-4.78,6.11-4.46l5,.6a19.07,19.07,0,0,0,3.25.16Zm-6.91-.46c-.37,2.66-.26,5.75,2.35,6.06a2.18,2.18,0,0,0,2.61-2A3.37,3.37,0,0,0,18.39,24a2.57,2.57,0,0,0-.76-.23Z"/>
          <path class="cls-1" d="M13.65,16.92c-1.59-.19-3-.32-4.21-.39l.25-2.14,2.65.23v-.11a4.07,4.07,0,0,1-2.5-4.08A2.68,2.68,0,0,1,10,9.75l2.31.27a3.72,3.72,0,0,0-.18.83,3.46,3.46,0,0,0,2.75,3.65,7,7,0,0,0,1.13.25l7.17.85L22.91,18Z"/>
          <path class="cls-1" d="M21.45,9A6.45,6.45,0,0,0,22.8,5.86C23,4.08,22.22,3.14,21.11,3s-1.89.48-2.77,2.21c-1.15,2.32-2.62,3.3-4.23,3.11-2.17-.26-3.74-2.22-3.4-5.11A6.77,6.77,0,0,1,11.94,0l1.71.82a5.27,5.27,0,0,0-1.11,2.66c-.17,1.44.57,2.35,1.57,2.47s1.71-.61,2.58-2.29c1.17-2.23,2.48-3.29,4.48-3C23.54.9,25,2.93,24.61,6.13A7.73,7.73,0,0,1,23.24,9.8Z"/>
        </g>
      </g>
    </g>
  </g>
</svg>
