<svg xmlns="http://www.w3.org/2000/svg" viewBox="0 0 38.38 95.71">
  <defs>
    <style>
      .cls-1 {
        fill: #fff;
      }
    </style>
  </defs>
  <title>Mercury</title>
  <g id="Layer_2" data-name="Layer 2">
    <g id="Solar_System_-_Page" data-name="Solar System - Page">
      <g id="Names">
        <g>
          <path class="cls-1" d="M12.95,78.15c-2.62-.3-5.77-.66-8.08-1.08v.08c2.07,1,4.26,2.17,6.67,3.54L20,85.51l-.31,1.82-9.37,1.51c-2.77.44-5.3.78-7.6.93v.06c2.31.45,5.41,1.11,8.17,1.75l7.89,1.84-.39,2.29L0,91.27l.52-3.06,9.54-1.66c2.42-.39,4.57-.68,6.58-.82v-.08c-1.8-.79-3.73-1.79-5.94-3L2.28,77.8l.52-3.06,18.8,2-.4,2.35Z"/>
          <path class="cls-1" d="M16.22,70.53c3.29.5,5-1.37,5.41-3.8a8.91,8.91,0,0,0-.07-3.82l1.81-.12a11,11,0,0,1,.08,4.58c-.69,4.11-3.82,6.11-7.85,5.43s-6.81-3.59-6.15-7.48c.74-4.36,4.77-4.87,7.23-4.46a9.33,9.33,0,0,1,1.12.27Zm-.54-7.42c-1.54-.29-4.06,0-4.52,2.7-.41,2.46,1.67,3.92,3.32,4.39Z"/>
          <path class="cls-1" d="M15.38,57.55c-1.57-.27-2.93-.47-4.19-.59l.36-2.13,2.64.36,0-.11a4.07,4.07,0,0,1-2.3-4.19,2.66,2.66,0,0,1,.2-.68l2.29.39a3.72,3.72,0,0,0-.22.81,3.46,3.46,0,0,0,2.57,3.78,7,7,0,0,0,1.11.3L25,56.7l-.41,2.4Z"/>
          <path class="cls-1" d="M27.16,40.74a9.08,9.08,0,0,1,.12,4c-.68,4-3.86,6.19-7.94,5.5a6.89,6.89,0,0,1-5.88-8.38,8.24,8.24,0,0,1,1.26-3.25l1.78.87a5.71,5.71,0,0,0-1.11,2.71c-.52,3.06,1.47,5.1,4.26,5.57,3.09.52,5.33-1.14,5.78-3.79a7,7,0,0,0-.16-3.09Z"/>
          <path class="cls-1" d="M26.38,26.18c1.38.23,2.6.41,3.66.5l-.36,2.15-2.2-.23v.06a5.1,5.1,0,0,1,1.74,4.84c-.35,2.1-1.94,4.41-6.63,3.62l-7.81-1.32.41-2.43,7.4,1.25c2.54.43,4.38-.06,4.76-2.26a3.56,3.56,0,0,0-1.67-3.58,3.6,3.6,0,0,0-1.2-.43L16.25,27l.41-2.43Z"/>
          <path class="cls-1" d="M21.51,21.22c-1.57-.27-2.93-.47-4.19-.59l.36-2.13,2.64.36,0-.11A4.07,4.07,0,0,1,18,14.55a2.66,2.66,0,0,1,.2-.68l2.29.39a3.72,3.72,0,0,0-.22.81,3.46,3.46,0,0,0,2.57,3.78,7,7,0,0,0,1.11.3l7.12,1.2-.41,2.4Z"/>
          <path class="cls-1" d="M19.14,9.91l8.39-1.59c.93-.16,2-.31,2.88-.39V7.87c-.76-.38-1.73-.83-2.64-1.33l-7.39-4L20.81,0l8.91,5.25c4.29,2.51,6.44,4.1,7.59,6a6.68,6.68,0,0,1,1.07,3.25l-2.15.26a6.53,6.53,0,0,0-.83-2.33A7.48,7.48,0,0,0,33,9.93a1.76,1.76,0,0,0-.55-.29,2.14,2.14,0,0,0-.66.06L18.69,12.56Z"/>
        </g>
      </g>
    </g>
  </g>
</svg>
