<svg xmlns="http://www.w3.org/2000/svg" viewBox="0 0 34.22 99.53">
  <defs>
    <style>
      .cls-1 {
        fill: #fff;
      }
    </style>
  </defs>
  <title>Neptune</title>
  <g id="Layer_2" data-name="Layer 2">
    <g id="Solar_System_-_Page" data-name="Solar System - Page">
      <g id="Names">
        <g>
          <path class="cls-1" d="M18.63,99.53,0,96.5l.43-2.63,10.4-4.44a53.21,53.21,0,0,1,6.6-2.36l0-.06c-2.52-.18-4.8-.5-7.7-1L1.91,84.78l.37-2.27,18.63,3L20.51,88,10.09,92.35a60,60,0,0,1-6.78,2.47v.09c2.37.24,4.62.55,7.72,1.06l8,1.29Z"/>
          <path class="cls-1" d="M15.55,79.06c3.3.48,5-1.4,5.39-3.83a8.9,8.9,0,0,0-.09-3.82l1.81-.13a11,11,0,0,1,.1,4.59C22.09,80,19,82,14.95,81.34s-6.83-3.55-6.19-7.45c.71-4.37,4.74-4.9,7.2-4.5a9.22,9.22,0,0,1,1.12.27ZM15,71.64c-1.54-.28-4.06,0-4.5,2.73-.4,2.46,1.69,3.91,3.35,4.37Z"/>
          <path class="cls-1" d="M14.82,66.11c-1.71-.28-3.1-.45-4.38-.6l.36-2.18,2.31.26v-.05a5.33,5.33,0,0,1-1.83-5.18c.53-3.23,3.66-5.22,7.72-4.56,4.81.78,6.71,4.1,6.2,7.25a4.75,4.75,0,0,1-2.77,3.78v.05l7.27,1.18-.39,2.4Zm4-1.82a5.57,5.57,0,0,0,1,.05,3.8,3.8,0,0,0,3.44-3.19c.42-2.57-1.44-4.4-4.51-4.9-2.68-.44-5.2.6-5.62,3.17a3.93,3.93,0,0,0,2.41,4.17,4,4,0,0,0,1,.33Z"/>
          <path class="cls-1" d="M9.64,46.13l3.84.63.57-3.48,1.85.3-.57,3.48,7.21,1.17c1.66.27,2.67,0,2.89-1.4a5.49,5.49,0,0,0,.06-1.44l1.84.19a6.05,6.05,0,0,1,0,2.21,3.42,3.42,0,0,1-1.45,2.46,5,5,0,0,1-3.64.37l-7.3-1.19-.34,2.07-1.85-.3.34-2.07-3.21-.52Z"/>
          <path class="cls-1" d="M26,30.92c1.38.22,2.6.39,3.67.48l-.35,2.16-2.21-.22v.05a5.1,5.1,0,0,1,1.77,4.83c-.34,2.1-1.91,4.43-6.61,3.66l-7.82-1.27.4-2.43,7.41,1.2c2.54.41,4.38-.08,4.74-2.29a3.56,3.56,0,0,0-1.69-3.57,3.61,3.61,0,0,0-1.21-.42l-8.21-1.34.4-2.43Z"/>
          <path class="cls-1" d="M20.59,25.89c-1.38-.22-2.52-.38-3.64-.48l.35-2.16,2.23.22v-.05a5,5,0,0,1-1.8-4.83c.3-1.85,1.88-4.55,6.46-3.8l8,1.3-.4,2.43L24.1,17.27c-2.16-.35-4.08.16-4.46,2.45a3.5,3.5,0,0,0,2,3.67,3.57,3.57,0,0,0,1.11.35l8,1.31-.4,2.43Z"/>
          <path class="cls-1" d="M26.82,9.77c3.3.48,5-1.4,5.39-3.83a8.91,8.91,0,0,0-.09-3.82L33.93,2A11,11,0,0,1,34,6.58c-.67,4.12-3.78,6.14-7.81,5.48S19.39,8.51,20,4.61c.71-4.37,4.74-4.9,7.2-4.5a9.22,9.22,0,0,1,1.12.27Zm-.58-7.41c-1.54-.28-4.06,0-4.5,2.73-.4,2.46,1.69,3.91,3.35,4.37Z"/>
        </g>
      </g>
    </g>
  </g>
</svg>
