<svg xmlns="http://www.w3.org/2000/svg" viewBox="0 0 29.67 73.97">
  <defs>
    <style>
      .cls-1 {
        fill: #fff;
      }
    </style>
  </defs>
  <title>Saturn</title>
  <g id="Layer_2" data-name="Layer 2">
    <g id="Solar_System_-_Page" data-name="Solar System - Page">
      <g id="Names">
        <g>
          <path class="cls-1" d="M15.19,73a8.63,8.63,0,0,0,1.91-4.12c.39-2.46-.67-4.11-2.55-4.41s-2.9.56-4.27,2.92C8.71,70.3,6.83,71.93,4.2,71.5,1.3,71-.47,68.29.11,64.67a8.57,8.57,0,0,1,1.57-4l1.86,1a7.52,7.52,0,0,0-1.45,3.4c-.41,2.54,1,3.75,2.23,4,1.74.28,2.78-.72,4.19-3.13,1.72-3,3.5-4.32,6.24-3.88s5,3,4.32,7.38a9.75,9.75,0,0,1-2,4.57Z"/>
          <path class="cls-1" d="M21.54,52.14l-1.72-.08v.08a5,5,0,0,1,1.34,4.41A3.86,3.86,0,0,1,16.65,60c-3.23-.52-4.54-3.68-3.69-8.84l-.28,0A2.79,2.79,0,0,0,9.1,53.69a6.75,6.75,0,0,0,.44,3.64l-1.69.3A8.41,8.41,0,0,1,7.36,53C8,48.95,11,48.4,13.65,48.83l5,.8a19.08,19.08,0,0,0,3.24.29Zm-6.89-.73c-.48,2.64-.49,5.73,2.11,6.15a2.18,2.18,0,0,0,2.69-1.92A3.37,3.37,0,0,0,17.73,52a2.58,2.58,0,0,0-.75-.26Z"/>
          <path class="cls-1" d="M5.72,40.64l3.84.62.56-3.48,1.85.3-.56,3.48,7.22,1.16c1.66.27,2.67-.05,2.89-1.41a5.49,5.49,0,0,0,.06-1.44l1.84.18a6,6,0,0,1,0,2.21A3.42,3.42,0,0,1,22,44.72a5,5,0,0,1-3.63.38L11,43.93,10.7,46l-1.85-.3.33-2.07L6,43.12Z"/>
          <path class="cls-1" d="M22.08,25.4c1.38.22,2.6.39,3.67.47L25.41,28l-2.21-.21v.05A5.1,5.1,0,0,1,25,32.7c-.34,2.1-1.9,4.43-6.6,3.68l-7.82-1.25.39-2.43,7.41,1.19c2.54.41,4.38-.09,4.74-2.3A3.56,3.56,0,0,0,21.38,28a3.61,3.61,0,0,0-1.21-.42L12,26.27l.39-2.43Z"/>
          <path class="cls-1" d="M17.17,20.47c-1.58-.25-2.94-.44-4.19-.56l.34-2.13,2.64.34L16,18a4.07,4.07,0,0,1-2.34-4.17,2.66,2.66,0,0,1,.19-.68l2.29.37a3.72,3.72,0,0,0-.22.82,3.46,3.46,0,0,0,2.6,3.76,7,7,0,0,0,1.12.29l7.13,1.14-.39,2.41Z"/>
          <path class="cls-1" d="M18.09,11.23c-1.38-.22-2.52-.38-3.64-.47l.35-2.16L17,8.82V8.77a5,5,0,0,1-1.81-4.83c.3-1.85,1.86-4.55,6.45-3.82l8,1.28-.39,2.43L21.57,2.6c-2.16-.35-4.08.17-4.45,2.46a3.5,3.5,0,0,0,2,3.66,3.56,3.56,0,0,0,1.11.35l8,1.29-.39,2.43Z"/>
        </g>
      </g>
    </g>
  </g>
</svg>
