<svg xmlns="http://www.w3.org/2000/svg" viewBox="0 0 31.23 78.99">
  <defs>
    <style>
      .cls-1 {
        fill: #fff;
      }
    </style>
  </defs>
  <title>Uranus</title>
  <g id="Layer_2" data-name="Layer 2">
    <g id="Solar_System_-_Page" data-name="Solar System - Page">
      <g id="Names">
        <g>
          <path class="cls-1" d="M.4,74.52l11,1.84c4.17.69,6.25-.86,6.66-3.35.46-2.76-1.07-4.83-5.18-5.52l-11-1.84.4-2.43L13.14,65c5.72,1,7.56,4.35,6.89,8.39-.63,3.81-3.3,6.32-9.07,5.36L0,77Z"/>
          <path class="cls-1" d="M12.39,60.71c-1.57-.26-2.93-.46-4.19-.58L8.55,58l2.64.35,0-.11A4.07,4.07,0,0,1,8.9,54.05a2.64,2.64,0,0,1,.2-.68l2.29.38a3.72,3.72,0,0,0-.22.82,3.46,3.46,0,0,0,2.58,3.78,7,7,0,0,0,1.11.3L22,59.84l-.4,2.4Z"/>
          <path class="cls-1" d="M24.3,45.94l-1.72-.09v.08a5,5,0,0,1,1.31,4.42,3.86,3.86,0,0,1-4.52,3.45c-3.23-.54-4.52-3.7-3.63-8.86l-.28,0a2.79,2.79,0,0,0-3.6,2.52,6.74,6.74,0,0,0,.42,3.65l-1.69.28a8.42,8.42,0,0,1-.46-4.59c.68-4.09,3.64-4.62,6.31-4.17l5,.83a19.08,19.08,0,0,0,3.24.31Zm-6.88-.78c-.5,2.64-.53,5.73,2.07,6.16a2.18,2.18,0,0,0,2.7-1.91,3.37,3.37,0,0,0-1.7-3.6,2.58,2.58,0,0,0-.75-.27Z"/>
          <path class="cls-1" d="M15.53,38.41c-1.38-.23-2.52-.39-3.64-.49l.36-2.15,2.23.23v-.05a5,5,0,0,1-1.78-4.84c.31-1.85,1.89-4.54,6.48-3.78l8,1.33-.4,2.43L19.07,29.8c-2.15-.36-4.08.14-4.46,2.44a3.5,3.5,0,0,0,1.94,3.67,3.56,3.56,0,0,0,1.1.35l8,1.34L25.28,40Z"/>
          <path class="cls-1" d="M26.05,12.91c1.38.23,2.6.4,3.66.5l-.36,2.15-2.2-.23v.05a5.1,5.1,0,0,1,1.75,4.83c-.35,2.1-1.93,4.42-6.62,3.64l-7.82-1.3.4-2.43,7.4,1.23c2.54.42,4.38-.07,4.75-2.27a3.56,3.56,0,0,0-1.68-3.57,3.61,3.61,0,0,0-1.21-.43l-8.2-1.37.4-2.43Z"/>
          <path class="cls-1" d="M27.83,9.4a6.46,6.46,0,0,0,1.5-3c.29-1.77-.45-2.74-1.56-2.93s-1.91.39-2.87,2.08c-1.26,2.26-2.77,3.17-4.37,2.91C18.37,8.06,16.9,6,17.38,3.15A6.76,6.76,0,0,1,18.75,0l1.67.9a5.28,5.28,0,0,0-1.23,2.61c-.24,1.44.46,2.37,1.45,2.54s1.74-.53,2.69-2.16C24.6,1.71,26,.72,27.94,1c2.35.39,3.7,2.49,3.17,5.67a7.72,7.72,0,0,1-1.54,3.61Z"/>
        </g>
      </g>
    </g>
  </g>
</svg>
