<svg xmlns="http://www.w3.org/2000/svg" viewBox="0 0 29.29 67.26">
  <defs>
    <style>
      .cls-1 {
        fill: #fff;
      }
    </style>
  </defs>
  <title>Venus</title>
  <g id="Layer_2" data-name="Layer 2">
    <g id="Solar_System_-_Page" data-name="Solar System - Page">
      <g id="Names">
        <g>
          <path class="cls-1" d="M19.61,64.19,0,67.26l.42-2.6,9.65-1.42c2.65-.4,5-.72,7.29-.87v-.05c-2.07-.87-4.3-2-6.59-3.25l-8.7-4.64.41-2.57L20,61.53Z"/>
          <path class="cls-1" d="M15.25,51.49c3.3.48,5-1.41,5.38-3.84a8.91,8.91,0,0,0-.09-3.82l1.81-.13a11,11,0,0,1,.11,4.58c-.66,4.12-3.77,6.14-7.81,5.49s-6.83-3.54-6.2-7.44c.7-4.37,4.73-4.91,7.19-4.51a9.43,9.43,0,0,1,1.12.27Zm-.59-7.41c-1.54-.28-4.06,0-4.5,2.73-.4,2.46,1.7,3.9,3.35,4.37Z"/>
          <path class="cls-1" d="M13.76,38.43c-1.38-.22-2.52-.38-3.64-.47l.35-2.16L12.7,36V36a5,5,0,0,1-1.8-4.83c.3-1.85,1.87-4.55,6.46-3.81l8,1.29L25,31,17.25,29.8c-2.16-.35-4.08.16-4.45,2.46a3.61,3.61,0,0,0,3.07,4l8,1.3L23.52,40Z"/>
          <path class="cls-1" d="M24.15,12.87c1.38.22,2.6.39,3.67.48l-.35,2.16-2.21-.21v.06A5.1,5.1,0,0,1,27,20.17c-.34,2.1-1.91,4.43-6.61,3.67L12.6,22.58,13,20.15l7.41,1.2c2.54.41,4.38-.09,4.74-2.3a3.47,3.47,0,0,0-2.9-4L14,13.74l.39-2.43Z"/>
          <path class="cls-1" d="M25.91,9.36a6.46,6.46,0,0,0,1.48-3.05c.29-1.77-.47-2.74-1.57-2.92s-1.91.4-2.86,2.09c-1.25,2.27-2.75,3.19-4.36,2.93C16.45,8.06,15,6,15.42,3.16A6.77,6.77,0,0,1,16.78,0l1.67.89a5.28,5.28,0,0,0-1.22,2.61C17,4.94,17.71,5.88,18.7,6s1.73-.54,2.68-2.18C22.64,1.68,24,.68,26,1c2.35.38,3.71,2.47,3.2,5.65a7.73,7.73,0,0,1-1.52,3.61Z"/>
        </g>
      </g>
    </g>
  </g>
</svg>
